Mitr-Medium.ufo
<glyph name="quotedbl" format="1">
  <advance width="362"/>
  <unicode hex="0022"/>
  <note>
	quotedbl
  </note>
  <outline>
    <contour>
      <point x="286" y="487" type="line" smooth="yes"/>
      <point x="310" y="487"/>
      <point x="319" y="495"/>
      <point x="321" y="520" type="curve" smooth="yes"/>
      <point x="331" y="669" type="line" smooth="yes"/>
      <point x="333" y="694"/>
      <point x="322" y="701"/>
      <point x="295" y="701" type="curve" smooth="yes"/>
      <point x="242" y="701" type="line" smooth="yes"/>
      <point x="216" y="701"/>
      <point x="206" y="694"/>
      <point x="208" y="669" type="curve" smooth="yes"/>
      <point x="215" y="520" type="line" smooth="yes"/>
      <point x="216" y="496"/>
      <point x="227" y="487"/>
      <point x="248" y="487" type="curve" smooth="yes"/>
    </contour>
    <contour>
      <point x="110" y="487" type="line" smooth="yes"/>
      <point x="133" y="487"/>
      <point x="143" y="495"/>
      <point x="145" y="520" type="curve" smooth="yes"/>
      <point x="154" y="669" type="line" smooth="yes"/>
      <point x="156" y="694"/>
      <point x="146" y="701"/>
      <point x="119" y="701" type="curve" smooth="yes"/>
      <point x="66" y="701" type="line" smooth="yes"/>
      <point x="39" y="701"/>
      <point x="30" y="694"/>
      <point x="31" y="669" type="curve" smooth="yes"/>
      <point x="39" y="520" type="line" smooth="yes"/>
      <point x="40" y="496"/>
      <point x="51" y="487"/>
      <point x="72" y="487" type="curve" smooth="yes"/>
    </contour>
  </outline>
</glyph>
<glyph name="percent" format="1">
  <advance width="767"/>
  <unicode hex="0025"/>
  <note>
	percent
  </note>
  <outline>
    <contour>
      <point x="215" y="0" type="line" smooth="yes"/>
      <point x="232" y="0"/>
      <point x="236" y="4"/>
      <point x="244" y="16" type="curve" smooth="yes"/>
      <point x="679" y="649" type="line" smooth="yes"/>
      <point x="689" y="663"/>
      <point x="685" y="680"/>
      <point x="666" y="680" type="curve" smooth="yes"/>
      <point x="550" y="680" type="line" smooth="yes"/>
      <point x="533" y="680"/>
      <point x="525" y="672"/>
      <point x="517" y="660" type="curve" smooth="yes"/>
      <point x="85" y="31" type="line" smooth="yes"/>
      <point x="75" y="16"/>
      <point x="79" y="0"/>
      <point x="98" y="0" type="curve" smooth="yes"/>
    </contour>
    <contour>
      <point x="666" y="-15"/>
      <point x="736" y="49"/>
      <point x="736" y="140" type="curve" smooth="yes"/>
      <point x="736" y="232"/>
      <point x="666" y="295"/>
      <point x="580" y="295" type="curve" smooth="yes"/>
      <point x="495" y="295"/>
      <point x="425" y="232"/>
      <point x="425" y="140" type="curve" smooth="yes"/>
      <point x="425" y="49"/>
      <point x="495" y="-15"/>
      <point x="580" y="-15" type="curve" smooth="yes"/>
    </contour>
    <contour>
      <point x="543" y="72"/>
      <point x="512" y="100"/>
      <point x="512" y="140" type="curve" smooth="yes"/>
      <point x="512" y="180"/>
      <point x="543" y="208"/>
      <point x="580" y="208" type="curve" smooth="yes"/>
      <point x="618" y="208"/>
      <point x="649" y="180"/>
      <point x="649" y="140" type="curve" smooth="yes"/>
      <point x="649" y="100"/>
      <point x="618" y="72"/>
      <point x="580" y="72" type="curve" smooth="yes"/>
    </contour>
    <contour>
      <point x="272" y="384"/>
      <point x="341" y="448"/>
      <point x="341" y="539" type="curve" smooth="yes"/>
      <point x="341" y="631"/>
      <point x="272" y="695"/>
      <point x="186" y="695" type="curve" smooth="yes"/>
      <point x="100" y="695"/>
      <point x="31" y="631"/>
      <point x="31" y="539" type="curve" smooth="yes"/>
      <point x="31" y="448"/>
      <point x="100" y="384"/>
      <point x="186" y="384" type="curve" smooth="yes"/>
    </contour>
    <contour>
      <point x="148" y="471"/>
      <point x="118" y="499"/>
      <point x="118" y="539" type="curve" smooth="yes"/>
      <point x="118" y="580"/>
      <point x="148" y="608"/>
      <point x="186" y="608" type="curve" smooth="yes"/>
      <point x="224" y="608"/>
      <point x="254" y="580"/>
      <point x="254" y="539" type="curve" smooth="yes"/>
      <point x="254" y="499"/>
      <point x="224" y="471"/>
      <point x="186" y="471" type="curve" smooth="yes"/>
    </contour>
  </outline>
</glyph>
<glyph name="asterisk" format="1">
  <advance width="432"/>
  <unicode hex="002A"/>
  <note>
	asterisk
  </note>
  <outline>
    <contour>
      <point x="366" y="423" type="line"/>
      <point x="375" y="430"/>
      <point x="377" y="440"/>
      <point x="368" y="449" type="curve" smooth="yes"/>
      <point x="300" y="521" type="line"/>
      <point x="389" y="559" type="line" smooth="yes"/>
      <point x="400" y="564"/>
      <point x="404" y="571"/>
      <point x="399" y="582" type="curve"/>
      <point x="372" y="636" type="line"/>
      <point x="368" y="645"/>
      <point x="361" y="647"/>
      <point x="350" y="642" type="curve" smooth="yes"/>
      <point x="270" y="607" type="line"/>
      <point x="270" y="690" type="line" smooth="yes"/>
      <point x="270" y="705"/>
      <point x="263" y="714"/>
      <point x="247" y="714" type="curve" smooth="yes"/>
      <point x="185" y="714" type="line" smooth="yes"/>
      <point x="169" y="714"/>
      <point x="162" y="705"/>
      <point x="162" y="690" type="curve" smooth="yes"/>
      <point x="162" y="608" type="line"/>
      <point x="81" y="644" type="line"/>
      <point x="71" y="648"/>
      <point x="65" y="647"/>
      <point x="60" y="637" type="curve" smooth="yes"/>
      <point x="33" y="583" type="line"/>
      <point x="28" y="572"/>
      <point x="32" y="565"/>
      <point x="43" y="560" type="curve" smooth="yes"/>
      <point x="132" y="522" type="line"/>
      <point x="64" y="450" type="line" smooth="yes"/>
      <point x="55" y="441"/>
      <point x="56" y="432"/>
      <point x="66" y="424" type="curve"/>
      <point x="112" y="384" type="line"/>
      <point x="120" y="376"/>
      <point x="128" y="378"/>
      <point x="136" y="386" type="curve" smooth="yes"/>
      <point x="216" y="471" type="line"/>
      <point x="294" y="387" type="line" smooth="yes"/>
      <point x="303" y="377"/>
      <point x="311" y="375"/>
      <point x="320" y="383" type="curve" smooth="yes"/>
    </contour>
  </outline>
</glyph>
<glyph name="plus" format="1">
  <advance width="470"/>
  <unicode hex="002B"/>
  <note>
	plus
  </note>
  <outline>
    <contour>
      <point x="261" y="121" type="line" smooth="yes"/>
      <point x="295" y="121"/>
      <point x="300" y="131"/>
      <point x="300" y="158" type="curve" smooth="yes"/>
      <point x="300" y="240" type="line"/>
      <point x="396" y="240" type="line" smooth="yes"/>
      <point x="426" y="240"/>
      <point x="439" y="245"/>
      <point x="439" y="279" type="curve" smooth="yes"/>
      <point x="439" y="323" type="line" smooth="yes"/>
      <point x="439" y="357"/>
      <point x="426" y="362"/>
      <point x="396" y="362" type="curve" smooth="yes"/>
      <point x="300" y="362" type="line"/>
      <point x="300" y="445" type="line" smooth="yes"/>
      <point x="300" y="472"/>
      <point x="295" y="482"/>
      <point x="261" y="482" type="curve" smooth="yes"/>
      <point x="207" y="482" type="line" smooth="yes"/>
      <point x="174" y="482"/>
      <point x="168" y="472"/>
      <point x="168" y="445" type="curve" smooth="yes"/>
      <point x="168" y="362" type="line"/>
      <point x="74" y="362" type="line" smooth="yes"/>
      <point x="44" y="362"/>
      <point x="31" y="357"/>
      <point x="31" y="323" type="curve" smooth="yes"/>
      <point x="31" y="279" type="line" smooth="yes"/>
      <point x="31" y="245"/>
      <point x="44" y="240"/>
      <point x="74" y="240" type="curve" smooth="yes"/>
      <point x="168" y="240" type="line"/>
      <point x="168" y="158" type="line" smooth="yes"/>
      <point x="168" y="131"/>
      <point x="174" y="121"/>
      <point x="207" y="121" type="curve" smooth="yes"/>
    </contour>
  </outline>
</glyph>
<glyph name="slash" format="1">
  <advance width="493"/>
  <unicode hex="002F"/>
  <note>
	slash
  </note>
  <outline>
    <contour>
      <point x="171" y="0" type="line" smooth="yes"/>
      <point x="188" y="0"/>
      <point x="196" y="8"/>
      <point x="201" y="20" type="curve" smooth="yes"/>
      <point x="459" y="649" type="line" smooth="yes"/>
      <point x="465" y="665"/>
      <point x="464" y="680"/>
      <point x="446" y="680" type="curve" smooth="yes"/>
      <point x="322" y="680" type="line" smooth="yes"/>
      <point x="306" y="680"/>
      <point x="298" y="672"/>
      <point x="293" y="660" type="curve" smooth="yes"/>
      <point x="35" y="31" type="line" smooth="yes"/>
      <point x="28" y="14"/>
      <point x="29" y="0"/>
      <point x="48" y="0" type="curve" smooth="yes"/>
    </contour>
  </outline>
</glyph>
<glyph name="zero" format="1">
  <advance width="741"/>
  <unicode hex="0030"/>
  <note>
	zero
  </note>
  <outline>
    <contour>
      <point x="598" y="-15"/>
      <point x="710" y="113"/>
      <point x="710" y="340" type="curve" smooth="yes"/>
      <point x="710" y="567"/>
      <point x="598" y="695"/>
      <point x="371" y="695" type="curve" smooth="yes"/>
      <point x="143" y="695"/>
      <point x="31" y="567"/>
      <point x="31" y="340" type="curve" smooth="yes"/>
      <point x="31" y="113"/>
      <point x="143" y="-15"/>
      <point x="371" y="-15" type="curve" smooth="yes"/>
    </contour>
    <contour>
      <point x="334" y="104"/>
      <point x="303" y="111"/>
      <point x="279" y="125" type="curve"/>
      <point x="519" y="463" type="line"/>
      <point x="536" y="433"/>
      <point x="546" y="392"/>
      <point x="546" y="340" type="curve" smooth="yes"/>
      <point x="546" y="182"/>
      <point x="493" y="104"/>
      <point x="371" y="104" type="curve" smooth="yes"/>
    </contour>
    <contour>
      <point x="204" y="248"/>
      <point x="195" y="288"/>
      <point x="195" y="340" type="curve" smooth="yes"/>
      <point x="195" y="498"/>
      <point x="248" y="576"/>
      <point x="371" y="576" type="curve" smooth="yes"/>
      <point x="407" y="576"/>
      <point x="437" y="568"/>
      <point x="461" y="553" type="curve"/>
      <point x="223" y="219" type="line"/>
    </contour>
  </outline>
</glyph>
<glyph name="one" format="1">
  <advance width="488"/>
  <unicode hex="0031"/>
  <note>
	one
  </note>
  <outline>
    <contour>
      <point x="435" y="0" type="line" smooth="yes"/>
      <point x="468" y="0"/>
      <point x="477" y="12"/>
      <point x="477" y="41" type="curve" smooth="yes"/>
      <point x="477" y="79" type="line" smooth="yes"/>
      <point x="477" y="108"/>
      <point x="468" y="121"/>
      <point x="435" y="121" type="curve" smooth="yes"/>
      <point x="348" y="121" type="line"/>
      <point x="348" y="636" type="line" smooth="yes"/>
      <point x="348" y="665"/>
      <point x="336" y="680"/>
      <point x="303" y="680" type="curve" smooth="yes"/>
      <point x="256" y="680" type="line" smooth="yes"/>
      <point x="235" y="680"/>
      <point x="227" y="677"/>
      <point x="216" y="670" type="curve" smooth="yes"/>
      <point x="43" y="566" type="line" smooth="yes"/>
      <point x="31" y="559"/>
      <point x="28" y="549"/>
      <point x="36" y="537" type="curve" smooth="yes"/>
      <point x="83" y="465" type="line" smooth="yes"/>
      <point x="91" y="453"/>
      <point x="101" y="454"/>
      <point x="111" y="460" type="curve" smooth="yes"/>
      <point x="182" y="504" type="line"/>
      <point x="182" y="121" type="line"/>
      <point x="96" y="121" type="line" smooth="yes"/>
      <point x="63" y="121"/>
      <point x="53" y="108"/>
      <point x="53" y="79" type="curve" smooth="yes"/>
      <point x="53" y="41" type="line" smooth="yes"/>
      <point x="53" y="12"/>
      <point x="63" y="0"/>
      <point x="96" y="0" type="curve" smooth="yes"/>
    </contour>
  </outline>
</glyph>
<glyph name="three" format="1">
  <advance width="598"/>
  <unicode hex="0033"/>
  <note>
	three
  </note>
  <outline>
    <contour>
      <point x="472" y="-15"/>
      <point x="567" y="72"/>
      <point x="567" y="197" type="curve" smooth="yes"/>
      <point x="567" y="268"/>
      <point x="536" y="323"/>
      <point x="469" y="352" type="curve"/>
      <point x="521" y="383"/>
      <point x="547" y="438"/>
      <point x="547" y="497" type="curve" smooth="yes"/>
      <point x="547" y="618"/>
      <point x="447" y="695"/>
      <point x="285" y="695" type="curve" smooth="yes"/>
      <point x="185" y="695"/>
      <point x="103" y="673"/>
      <point x="53" y="639" type="curve" smooth="yes"/>
      <point x="40" y="630"/>
      <point x="41" y="620"/>
      <point x="49" y="606" type="curve" smooth="yes"/>
      <point x="84" y="546" type="line" smooth="yes"/>
      <point x="93" y="531"/>
      <point x="100" y="533"/>
      <point x="115" y="541" type="curve" smooth="yes"/>
      <point x="150" y="560"/>
      <point x="198" y="576"/>
      <point x="261" y="576" type="curve" smooth="yes"/>
      <point x="340" y="576"/>
      <point x="383" y="549"/>
      <point x="383" y="492" type="curve" smooth="yes"/>
      <point x="383" y="446"/>
      <point x="356" y="409"/>
      <point x="290" y="409" type="curve" smooth="yes"/>
      <point x="215" y="409" type="line" smooth="yes"/>
      <point x="182" y="409"/>
      <point x="170" y="396"/>
      <point x="170" y="367" type="curve" smooth="yes"/>
      <point x="170" y="332" type="line" smooth="yes"/>
      <point x="170" y="302"/>
      <point x="182" y="289"/>
      <point x="215" y="289" type="curve" smooth="yes"/>
      <point x="297" y="289" type="line" smooth="yes"/>
      <point x="366" y="289"/>
      <point x="403" y="262"/>
      <point x="403" y="203" type="curve" smooth="yes"/>
      <point x="403" y="142"/>
      <point x="362" y="104"/>
      <point x="264" y="104" type="curve" smooth="yes"/>
      <point x="199" y="104"/>
      <point x="141" y="120"/>
      <point x="104" y="140" type="curve" smooth="yes"/>
      <point x="89" y="148"/>
      <point x="82" y="150"/>
      <point x="73" y="135" type="curve" smooth="yes"/>
      <point x="37" y="74" type="line" smooth="yes"/>
      <point x="29" y="60"/>
      <point x="28" y="49"/>
      <point x="41" y="40" type="curve" smooth="yes"/>
      <point x="95" y="5"/>
      <point x="181" y="-15"/>
      <point x="289" y="-15" type="curve" smooth="yes"/>
    </contour>
  </outline>
</glyph>
<glyph name="four" format="1">
  <advance width="610"/>
  <unicode hex="0034"/>
  <note>
	four
  </note>
  <outline>
    <contour>
      <point x="452" y="0" type="line" smooth="yes"/>
      <point x="486" y="0"/>
      <point x="497" y="11"/>
      <point x="497" y="40" type="curve" smooth="yes"/>
      <point x="497" y="142" type="line"/>
      <point x="557" y="142" type="line" smooth="yes"/>
      <point x="590" y="142"/>
      <point x="599" y="155"/>
      <point x="599" y="184" type="curve" smooth="yes"/>
      <point x="599" y="220" type="line" smooth="yes"/>
      <point x="599" y="250"/>
      <point x="590" y="263"/>
      <point x="557" y="263" type="curve" smooth="yes"/>
      <point x="497" y="263" type="line"/>
      <point x="497" y="636" type="line" smooth="yes"/>
      <point x="497" y="665"/>
      <point x="486" y="680"/>
      <point x="452" y="680" type="curve" smooth="yes"/>
      <point x="391" y="680" type="line" smooth="yes"/>
      <point x="364" y="680"/>
      <point x="357" y="673"/>
      <point x="343" y="657" type="curve" smooth="yes"/>
      <point x="28" y="275" type="line" smooth="yes"/>
      <point x="14" y="258"/>
      <point x="11" y="251"/>
      <point x="11" y="228" type="curve" smooth="yes"/>
      <point x="11" y="170" type="line" smooth="yes"/>
      <point x="11" y="152"/>
      <point x="20" y="142"/>
      <point x="40" y="142" type="curve" smooth="yes"/>
      <point x="332" y="142" type="line"/>
      <point x="332" y="40" type="line" smooth="yes"/>
      <point x="332" y="11"/>
      <point x="344" y="0"/>
      <point x="377" y="0" type="curve" smooth="yes"/>
    </contour>
    <contour>
      <point x="364" y="496" type="line"/>
      <point x="364" y="263" type="line"/>
      <point x="178" y="263" type="line"/>
    </contour>
  </outline>
</glyph>
<glyph name="six" format="1">
  <advance width="643"/>
  <unicode hex="0036"/>
  <note>
	six
  </note>
  <outline>
    <contour>
      <point x="500" y="-15"/>
      <point x="612" y="73"/>
      <point x="612" y="252" type="curve" smooth="yes"/>
      <point x="612" y="380"/>
      <point x="520" y="475"/>
      <point x="362" y="475" type="curve" smooth="yes"/>
      <point x="294" y="475"/>
      <point x="236" y="466"/>
      <point x="187" y="427" type="curve"/>
      <point x="213" y="529"/>
      <point x="264" y="576"/>
      <point x="359" y="576" type="curve" smooth="yes"/>
      <point x="415" y="576"/>
      <point x="454" y="564"/>
      <point x="490" y="543" type="curve" smooth="yes"/>
      <point x="505" y="534"/>
      <point x="512" y="533"/>
      <point x="521" y="548" type="curve" smooth="yes"/>
      <point x="555" y="607" type="line" smooth="yes"/>
      <point x="563" y="621"/>
      <point x="564" y="631"/>
      <point x="551" y="640" type="curve" smooth="yes"/>
      <point x="501" y="674"/>
      <point x="437" y="695"/>
      <point x="346" y="695" type="curve" smooth="yes"/>
      <point x="190" y="695"/>
      <point x="31" y="588"/>
      <point x="31" y="299" type="curve" smooth="yes"/>
      <point x="31" y="69"/>
      <point x="161" y="-15"/>
      <point x="318" y="-15" type="curve" smooth="yes"/>
    </contour>
    <contour>
      <point x="245" y="104"/>
      <point x="196" y="142"/>
      <point x="196" y="244" type="curve" smooth="yes"/>
      <point x="196" y="339"/>
      <point x="256" y="377"/>
      <point x="321" y="377" type="curve" smooth="yes"/>
      <point x="400" y="377"/>
      <point x="448" y="332"/>
      <point x="448" y="246" type="curve" smooth="yes"/>
      <point x="448" y="148"/>
      <point x="404" y="104"/>
      <point x="318" y="104" type="curve" smooth="yes"/>
    </contour>
  </outline>
</glyph>
<glyph name="nine" format="1">
  <advance width="640"/>
  <unicode hex="0039"/>
  <note>
	nine
  </note>
  <outline>
    <contour>
      <point x="461" y="-15"/>
      <point x="609" y="83"/>
      <point x="609" y="380" type="curve" smooth="yes"/>
      <point x="609" y="605"/>
      <point x="485" y="695"/>
      <point x="325" y="695" type="curve" smooth="yes"/>
      <point x="141" y="695"/>
      <point x="31" y="611"/>
      <point x="31" y="429" type="curve" smooth="yes"/>
      <point x="31" y="300"/>
      <point x="121" y="203"/>
      <point x="285" y="203" type="curve" smooth="yes"/>
      <point x="360" y="203"/>
      <point x="416" y="215"/>
      <point x="461" y="251" type="curve"/>
      <point x="445" y="151"/>
      <point x="393" y="104"/>
      <point x="291" y="104" type="curve" smooth="yes"/>
      <point x="239" y="104"/>
      <point x="194" y="115"/>
      <point x="156" y="136" type="curve" smooth="yes"/>
      <point x="141" y="144"/>
      <point x="134" y="146"/>
      <point x="125" y="131" type="curve" smooth="yes"/>
      <point x="91" y="72" type="line" smooth="yes"/>
      <point x="83" y="58"/>
      <point x="81" y="47"/>
      <point x="94" y="38" type="curve" smooth="yes"/>
      <point x="143" y="5"/>
      <point x="213" y="-15"/>
      <point x="302" y="-15" type="curve" smooth="yes"/>
    </contour>
    <contour>
      <point x="238" y="302"/>
      <point x="195" y="344"/>
      <point x="195" y="432" type="curve" smooth="yes"/>
      <point x="195" y="533"/>
      <point x="238" y="576"/>
      <point x="324" y="576" type="curve" smooth="yes"/>
      <point x="400" y="576"/>
      <point x="443" y="529"/>
      <point x="443" y="430" type="curve" smooth="yes"/>
      <point x="443" y="343"/>
      <point x="387" y="302"/>
      <point x="323" y="302" type="curve" smooth="yes"/>
    </contour>
  </outline>
</glyph>
<glyph name="colon" format="1">
  <advance width="203"/>
  <unicode hex="003A"/>
  <note>
	colon
  </note>
  <outline>
    <contour>
      <point x="114" y="348" type="line" smooth="yes"/>
      <point x="149" y="348"/>
      <point x="172" y="376"/>
      <point x="172" y="409" type="curve" smooth="yes"/>
      <point x="172" y="432" type="line" smooth="yes"/>
      <point x="172" y="466"/>
      <point x="149" y="493"/>
      <point x="114" y="493" type="curve" smooth="yes"/>
      <point x="88" y="493" type="line" smooth="yes"/>
      <point x="54" y="493"/>
      <point x="31" y="466"/>
      <point x="31" y="432" type="curve" smooth="yes"/>
      <point x="31" y="409" type="line" smooth="yes"/>
      <point x="31" y="376"/>
      <point x="54" y="348"/>
      <point x="88" y="348" type="curve" smooth="yes"/>
    </contour>
    <contour>
      <point x="114" y="0" type="line" smooth="yes"/>
      <point x="149" y="0"/>
      <point x="172" y="28"/>
      <point x="172" y="61" type="curve" smooth="yes"/>
      <point x="172" y="84" type="line" smooth="yes"/>
      <point x="172" y="119"/>
      <point x="149" y="145"/>
      <point x="114" y="145" type="curve" smooth="yes"/>
      <point x="88" y="145" type="line" smooth="yes"/>
      <point x="54" y="145"/>
      <point x="31" y="119"/>
      <point x="31" y="84" type="curve" smooth="yes"/>
      <point x="31" y="61" type="line" smooth="yes"/>
      <point x="31" y="28"/>
      <point x="54" y="0"/>
      <point x="88" y="0" type="curve" smooth="yes"/>
    </contour>
  </outline>
</glyph>
<glyph name="less" format="1">
  <advance width="542"/>
  <unicode hex="003C"/>
  <note>
	less
  </note>
  <outline>
    <contour>
      <point x="502" y="12"/>
      <point x="511" y="18"/>
      <point x="511" y="30" type="curve" smooth="yes"/>
      <point x="511" y="142" type="line" smooth="yes"/>
      <point x="511" y="158"/>
      <point x="507" y="162"/>
      <point x="494" y="167" type="curve" smooth="yes"/>
      <point x="231" y="274" type="line"/>
      <point x="494" y="381" type="line" smooth="yes"/>
      <point x="507" y="386"/>
      <point x="511" y="390"/>
      <point x="511" y="406" type="curve" smooth="yes"/>
      <point x="511" y="516" type="line" smooth="yes"/>
      <point x="511" y="528"/>
      <point x="502" y="533"/>
      <point x="489" y="528" type="curve"/>
      <point x="48" y="330" type="line" smooth="yes"/>
      <point x="35" y="324"/>
      <point x="31" y="317"/>
      <point x="31" y="303" type="curve" smooth="yes"/>
      <point x="31" y="243" type="line" smooth="yes"/>
      <point x="31" y="229"/>
      <point x="35" y="222"/>
      <point x="48" y="216" type="curve" smooth="yes"/>
      <point x="489" y="18" type="line" smooth="yes"/>
    </contour>
  </outline>
</glyph>
<glyph name="equal" format="1">
  <advance width="463"/>
  <unicode hex="003D"/>
  <note>
	equal
  </note>
  <outline>
    <contour>
      <point x="390" y="329" type="line" smooth="yes"/>
      <point x="423" y="329"/>
      <point x="432" y="342"/>
      <point x="432" y="371" type="curve" smooth="yes"/>
      <point x="432" y="405" type="line" smooth="yes"/>
      <point x="432" y="434"/>
      <point x="423" y="448"/>
      <point x="390" y="448" type="curve" smooth="yes"/>
      <point x="73" y="448" type="line" smooth="yes"/>
      <point x="40" y="448"/>
      <point x="31" y="434"/>
      <point x="31" y="405" type="curve" smooth="yes"/>
      <point x="31" y="371" type="line" smooth="yes"/>
      <point x="31" y="342"/>
      <point x="40" y="329"/>
      <point x="73" y="329" type="curve" smooth="yes"/>
    </contour>
    <contour>
      <point x="390" y="134" type="line" smooth="yes"/>
      <point x="423" y="134"/>
      <point x="432" y="147"/>
      <point x="432" y="176" type="curve" smooth="yes"/>
      <point x="432" y="209" type="line" smooth="yes"/>
      <point x="432" y="238"/>
      <point x="423" y="252"/>
      <point x="390" y="252" type="curve" smooth="yes"/>
      <point x="73" y="252" type="line" smooth="yes"/>
      <point x="40" y="252"/>
      <point x="31" y="238"/>
      <point x="31" y="209" type="curve" smooth="yes"/>
      <point x="31" y="176" type="line" smooth="yes"/>
      <point x="31" y="147"/>
      <point x="40" y="134"/>
      <point x="73" y="134" type="curve" smooth="yes"/>
    </contour>
  </outline>
</glyph>
<glyph name="question" format="1">
  <advance width="553"/>
  <unicode hex="003F"/>
  <note>
	question
  </note>
  <outline>
    <contour>
      <point x="274" y="160" type="line" smooth="yes"/>
      <point x="308" y="160"/>
      <point x="319" y="174"/>
      <point x="319" y="203" type="curve" smooth="yes"/>
      <point x="319" y="214" type="line" smooth="yes"/>
      <point x="319" y="264"/>
      <point x="339" y="290"/>
      <point x="404" y="327" type="curve" smooth="yes"/>
      <point x="482" y="371"/>
      <point x="522" y="416"/>
      <point x="522" y="500" type="curve" smooth="yes"/>
      <point x="522" y="626"/>
      <point x="418" y="695"/>
      <point x="272" y="695" type="curve" smooth="yes"/>
      <point x="171" y="695"/>
      <point x="97" y="670"/>
      <point x="41" y="632" type="curve" smooth="yes"/>
      <point x="28" y="623"/>
      <point x="27" y="616"/>
      <point x="34" y="604" type="curve" smooth="yes"/>
      <point x="73" y="537" type="line" smooth="yes"/>
      <point x="81" y="524"/>
      <point x="89" y="523"/>
      <point x="104" y="533" type="curve" smooth="yes"/>
      <point x="139" y="556"/>
      <point x="189" y="576"/>
      <point x="251" y="576" type="curve" smooth="yes"/>
      <point x="320" y="576"/>
      <point x="358" y="548"/>
      <point x="358" y="499" type="curve" smooth="yes"/>
      <point x="358" y="455"/>
      <point x="341" y="441"/>
      <point x="275" y="402" type="curve" smooth="yes"/>
      <point x="194" y="351"/>
      <point x="154" y="303"/>
      <point x="154" y="216" type="curve" smooth="yes"/>
      <point x="154" y="203" type="line" smooth="yes"/>
      <point x="154" y="174"/>
      <point x="166" y="160"/>
      <point x="199" y="160" type="curve" smooth="yes"/>
    </contour>
    <contour>
      <point x="265" y="0" type="line" smooth="yes"/>
      <point x="306" y="0"/>
      <point x="326" y="18"/>
      <point x="326" y="46" type="curve" smooth="yes"/>
      <point x="326" y="67" type="line" smooth="yes"/>
      <point x="326" y="96"/>
      <point x="306" y="114"/>
      <point x="265" y="114" type="curve" smooth="yes"/>
      <point x="207" y="114" type="line" smooth="yes"/>
      <point x="167" y="114"/>
      <point x="147" y="96"/>
      <point x="147" y="67" type="curve" smooth="yes"/>
      <point x="147" y="46" type="line" smooth="yes"/>
      <point x="147" y="18"/>
      <point x="167" y="0"/>
      <point x="207" y="0" type="curve" smooth="yes"/>
    </contour>
  </outline>
</glyph>
<glyph name="A" format="1">
  <advance width="740"/>
  <unicode hex="0041"/>
  <note>
	A
  </note>
  <outline>
    <contour>
      <point x="171" y="0" type="line" smooth="yes"/>
      <point x="190" y="0"/>
      <point x="197" y="6"/>
      <point x="203" y="21" type="curve" smooth="yes"/>
      <point x="248" y="139" type="line"/>
      <point x="491" y="139" type="line"/>
      <point x="537" y="21" type="line" smooth="yes"/>
      <point x="543" y="6"/>
      <point x="550" y="0"/>
      <point x="569" y="0" type="curve" smooth="yes"/>
      <point x="690" y="0" type="line" smooth="yes"/>
      <point x="709" y="0"/>
      <point x="712" y="15"/>
      <point x="705" y="33" type="curve" smooth="yes"/>
      <point x="446" y="650" type="line" smooth="yes"/>
      <point x="437" y="672"/>
      <point x="429" y="680"/>
      <point x="407" y="680" type="curve" smooth="yes"/>
      <point x="334" y="680" type="line" smooth="yes"/>
      <point x="312" y="680"/>
      <point x="303" y="672"/>
      <point x="294" y="650" type="curve" smooth="yes"/>
      <point x="35" y="33" type="line" smooth="yes"/>
      <point x="28" y="15"/>
      <point x="31" y="0"/>
      <point x="50" y="0" type="curve" smooth="yes"/>
    </contour>
    <contour>
      <point x="370" y="470" type="line"/>
      <point x="453" y="254" type="line"/>
      <point x="286" y="254" type="line"/>
    </contour>
  </outline>
</glyph>
<glyph name="B" format="1">
  <advance width="659"/>
  <unicode hex="0042"/>
  <note>
	B
  </note>
  <outline>
    <contour>
      <point x="389" y="0" type="line" smooth="yes"/>
      <point x="552" y="0"/>
      <point x="628" y="91"/>
      <point x="628" y="202" type="curve" smooth="yes"/>
      <point x="628" y="279"/>
      <point x="595" y="330"/>
      <point x="525" y="353" type="curve"/>
      <point x="578" y="375"/>
      <point x="609" y="428"/>
      <point x="609" y="490" type="curve" smooth="yes"/>
      <point x="609" y="604"/>
      <point x="541" y="680"/>
      <point x="389" y="680" type="curve" smooth="yes"/>
      <point x="96" y="680" type="line" smooth="yes"/>
      <point x="63" y="680"/>
      <point x="51" y="665"/>
      <point x="51" y="636" type="curve" smooth="yes"/>
      <point x="51" y="43" type="line" smooth="yes"/>
      <point x="51" y="14"/>
      <point x="63" y="0"/>
      <point x="96" y="0" type="curve" smooth="yes"/>
    </contour>
    <contour>
      <point x="216" y="292" type="line"/>
      <point x="369" y="292" type="line" smooth="yes"/>
      <point x="427" y="292"/>
      <point x="464" y="264"/>
      <point x="464" y="206" type="curve" smooth="yes"/>
      <point x="464" y="158"/>
      <point x="438" y="121"/>
      <point x="377" y="121" type="curve" smooth="yes"/>
      <point x="216" y="121" type="line"/>
    </contour>
    <contour>
      <point x="216" y="559" type="line"/>
      <point x="361" y="559" type="line" smooth="yes"/>
      <point x="418" y="559"/>
      <point x="445" y="538"/>
      <point x="445" y="483" type="curve" smooth="yes"/>
      <point x="445" y="433"/>
      <point x="415" y="405"/>
      <point x="361" y="405" type="curve" smooth="yes"/>
      <point x="216" y="405" type="line"/>
    </contour>
  </outline>
</glyph>
<glyph name="D" format="1">
  <advance width="686"/>
  <unicode hex="0044"/>
  <note>
	D
  </note>
  <outline>
    <contour>
      <point x="306" y="0" type="line" smooth="yes"/>
      <point x="526" y="0"/>
      <point x="655" y="103"/>
      <point x="655" y="340" type="curve" smooth="yes"/>
      <point x="655" y="582"/>
      <point x="526" y="680"/>
      <point x="306" y="680" type="curve" smooth="yes"/>
      <point x="96" y="680" type="line" smooth="yes"/>
      <point x="63" y="680"/>
      <point x="51" y="665"/>
      <point x="51" y="636" type="curve" smooth="yes"/>
      <point x="51" y="43" type="line" smooth="yes"/>
      <point x="51" y="14"/>
      <point x="63" y="0"/>
      <point x="96" y="0" type="curve" smooth="yes"/>
    </contour>
    <contour>
      <point x="216" y="558" type="line"/>
      <point x="314" y="558" type="line" smooth="yes"/>
      <point x="427" y="558"/>
      <point x="491" y="507"/>
      <point x="491" y="340" type="curve" smooth="yes"/>
      <point x="491" y="173"/>
      <point x="427" y="121"/>
      <point x="314" y="121" type="curve" smooth="yes"/>
      <point x="216" y="121" type="line"/>
    </contour>
  </outline>
</glyph>
<glyph name="E" format="1">
  <advance width="574"/>
  <unicode hex="0045"/>
  <note>
	E
  </note>
  <outline>
    <contour>
      <point x="510" y="0" type="line" smooth="yes"/>
      <point x="543" y="0"/>
      <point x="552" y="13"/>
      <point x="552" y="42" type="curve" smooth="yes"/>
      <point x="552" y="78" type="line" smooth="yes"/>
      <point x="552" y="108"/>
      <point x="543" y="121"/>
      <point x="510" y="121" type="curve" smooth="yes"/>
      <point x="216" y="121" type="line"/>
      <point x="216" y="280" type="line"/>
      <point x="422" y="280" type="line" smooth="yes"/>
      <point x="455" y="280"/>
      <point x="464" y="294"/>
      <point x="464" y="323" type="curve" smooth="yes"/>
      <point x="464" y="358" type="line" smooth="yes"/>
      <point x="464" y="387"/>
      <point x="455" y="400"/>
      <point x="422" y="400" type="curve" smooth="yes"/>
      <point x="216" y="400" type="line"/>
      <point x="216" y="558" type="line"/>
      <point x="511" y="558" type="line" smooth="yes"/>
      <point x="544" y="558"/>
      <point x="553" y="572"/>
      <point x="553" y="601" type="curve" smooth="yes"/>
      <point x="553" y="638" type="line" smooth="yes"/>
      <point x="553" y="667"/>
      <point x="544" y="680"/>
      <point x="511" y="680" type="curve" smooth="yes"/>
      <point x="96" y="680" type="line" smooth="yes"/>
      <point x="63" y="680"/>
      <point x="51" y="665"/>
      <point x="51" y="636" type="curve" smooth="yes"/>
      <point x="51" y="43" type="line" smooth="yes"/>
      <point x="51" y="14"/>
      <point x="63" y="0"/>
      <point x="96" y="0" type="curve" smooth="yes"/>
    </contour>
  </outline>
</glyph>
<glyph name="F" format="1">
  <advance width="564"/>
  <unicode hex="0046"/>
  <note>
	F
  </note>
  <outline>
    <contour>
      <point x="171" y="0" type="line" smooth="yes"/>
      <point x="205" y="0"/>
      <point x="216" y="14"/>
      <point x="216" y="43" type="curve" smooth="yes"/>
      <point x="216" y="279" type="line"/>
      <point x="422" y="279" type="line" smooth="yes"/>
      <point x="455" y="279"/>
      <point x="464" y="293"/>
      <point x="464" y="322" type="curve" smooth="yes"/>
      <point x="464" y="359" type="line" smooth="yes"/>
      <point x="464" y="388"/>
      <point x="455" y="401"/>
      <point x="422" y="401" type="curve" smooth="yes"/>
      <point x="216" y="401" type="line"/>
      <point x="216" y="558" type="line"/>
      <point x="511" y="558" type="line" smooth="yes"/>
      <point x="544" y="558"/>
      <point x="553" y="572"/>
      <point x="553" y="601" type="curve" smooth="yes"/>
      <point x="553" y="638" type="line" smooth="yes"/>
      <point x="553" y="667"/>
      <point x="544" y="680"/>
      <point x="511" y="680" type="curve" smooth="yes"/>
      <point x="96" y="680" type="line" smooth="yes"/>
      <point x="63" y="680"/>
      <point x="51" y="665"/>
      <point x="51" y="636" type="curve" smooth="yes"/>
      <point x="51" y="43" type="line" smooth="yes"/>
      <point x="51" y="14"/>
      <point x="63" y="0"/>
      <point x="96" y="0" type="curve" smooth="yes"/>
    </contour>
  </outline>
</glyph>
<glyph name="H" format="1">
  <advance width="711"/>
  <unicode hex="0048"/>
  <note>
	H
  </note>
  <outline>
    <contour>
      <point x="171" y="0" type="line" smooth="yes"/>
      <point x="205" y="0"/>
      <point x="216" y="14"/>
      <point x="216" y="43" type="curve" smooth="yes"/>
      <point x="216" y="281" type="line"/>
      <point x="494" y="281" type="line"/>
      <point x="494" y="43" type="line" smooth="yes"/>
      <point x="494" y="14"/>
      <point x="506" y="0"/>
      <point x="540" y="0" type="curve" smooth="yes"/>
      <point x="614" y="0" type="line" smooth="yes"/>
      <point x="648" y="0"/>
      <point x="660" y="14"/>
      <point x="660" y="43" type="curve" smooth="yes"/>
      <point x="660" y="636" type="line" smooth="yes"/>
      <point x="660" y="665"/>
      <point x="648" y="680"/>
      <point x="614" y="680" type="curve" smooth="yes"/>
      <point x="540" y="680" type="line" smooth="yes"/>
      <point x="506" y="680"/>
      <point x="494" y="665"/>
      <point x="494" y="636" type="curve" smooth="yes"/>
      <point x="494" y="402" type="line"/>
      <point x="216" y="402" type="line"/>
      <point x="216" y="636" type="line" smooth="yes"/>
      <point x="216" y="665"/>
      <point x="205" y="680"/>
      <point x="171" y="680" type="curve" smooth="yes"/>
      <point x="96" y="680" type="line" smooth="yes"/>
      <point x="63" y="680"/>
      <point x="51" y="665"/>
      <point x="51" y="636" type="curve" smooth="yes"/>
      <point x="51" y="43" type="line" smooth="yes"/>
      <point x="51" y="14"/>
      <point x="63" y="0"/>
      <point x="96" y="0" type="curve" smooth="yes"/>
    </contour>
  </outline>
</glyph>
<glyph name="J" format="1">
  <advance width="500"/>
  <unicode hex="004A"/>
  <note>
	J
  </note>
  <outline>
    <contour>
      <point x="380" y="-15"/>
      <point x="454" y="73"/>
      <point x="454" y="199" type="curve" smooth="yes"/>
      <point x="454" y="636" type="line" smooth="yes"/>
      <point x="454" y="665"/>
      <point x="442" y="680"/>
      <point x="408" y="680" type="curve" smooth="yes"/>
      <point x="334" y="680" type="line" smooth="yes"/>
      <point x="300" y="680"/>
      <point x="288" y="665"/>
      <point x="288" y="636" type="curve" smooth="yes"/>
      <point x="288" y="199" type="line" smooth="yes"/>
      <point x="288" y="137"/>
      <point x="262" y="104"/>
      <point x="198" y="104" type="curve" smooth="yes"/>
      <point x="152" y="104"/>
      <point x="112" y="120"/>
      <point x="84" y="139" type="curve" smooth="yes"/>
      <point x="71" y="148"/>
      <point x="62" y="149"/>
      <point x="53" y="134" type="curve" smooth="yes"/>
      <point x="17" y="73" type="line" smooth="yes"/>
      <point x="9" y="59"/>
      <point x="9" y="48"/>
      <point x="21" y="40" type="curve" smooth="yes"/>
      <point x="72" y="6"/>
      <point x="139" y="-15"/>
      <point x="224" y="-15" type="curve" smooth="yes"/>
    </contour>
  </outline>
</glyph>
<glyph name="N" format="1">
  <advance width="699"/>
  <unicode hex="004E"/>
  <note>
	N
  </note>
  <outline>
    <contour>
      <point x="171" y="0" type="line" smooth="yes"/>
      <point x="205" y="0"/>
      <point x="216" y="14"/>
      <point x="216" y="43" type="curve" smooth="yes"/>
      <point x="216" y="416" type="line"/>
      <point x="497" y="22" type="line" smooth="yes"/>
      <point x="510" y="4"/>
      <point x="519" y="0"/>
      <point x="540" y="0" type="curve" smooth="yes"/>
      <point x="603" y="0" type="line" smooth="yes"/>
      <point x="637" y="0"/>
      <point x="648" y="14"/>
      <point x="648" y="43" type="curve" smooth="yes"/>
      <point x="648" y="636" type="line" smooth="yes"/>
      <point x="648" y="665"/>
      <point x="637" y="680"/>
      <point x="603" y="680" type="curve" smooth="yes"/>
      <point x="528" y="680" type="line" smooth="yes"/>
      <point x="495" y="680"/>
      <point x="483" y="665"/>
      <point x="483" y="636" type="curve" smooth="yes"/>
      <point x="483" y="263" type="line"/>
      <point x="203" y="658" type="line" smooth="yes"/>
      <point x="190" y="676"/>
      <point x="181" y="680"/>
      <point x="159" y="680" type="curve" smooth="yes"/>
      <point x="97" y="680" type="line" smooth="yes"/>
      <point x="63" y="680"/>
      <point x="51" y="666"/>
      <point x="51" y="637" type="curve" smooth="yes"/>
      <point x="51" y="43" type="line" smooth="yes"/>
      <point x="51" y="14"/>
      <point x="63" y="0"/>
      <point x="96" y="0" type="curve" smooth="yes"/>
    </contour>
  </outline>
</glyph>
<glyph name="P" format="1">
  <advance width="614"/>
  <unicode hex="0050"/>
  <note>
	P
  </note>
  <outline>
    <contour>
      <point x="171" y="0" type="line" smooth="yes"/>
      <point x="205" y="0"/>
      <point x="216" y="14"/>
      <point x="216" y="43" type="curve" smooth="yes"/>
      <point x="216" y="221" type="line"/>
      <point x="346" y="221" type="line" smooth="yes"/>
      <point x="525" y="221"/>
      <point x="603" y="303"/>
      <point x="603" y="450" type="curve" smooth="yes"/>
      <point x="603" y="597"/>
      <point x="525" y="680"/>
      <point x="346" y="680" type="curve" smooth="yes"/>
      <point x="96" y="680" type="line" smooth="yes"/>
      <point x="63" y="680"/>
      <point x="51" y="665"/>
      <point x="51" y="636" type="curve" smooth="yes"/>
      <point x="51" y="43" type="line" smooth="yes"/>
      <point x="51" y="14"/>
      <point x="63" y="0"/>
      <point x="96" y="0" type="curve" smooth="yes"/>
    </contour>
    <contour>
      <point x="217" y="558" type="line"/>
      <point x="335" y="558" type="line" smooth="yes"/>
      <point x="403" y="558"/>
      <point x="439" y="524"/>
      <point x="439" y="450" type="curve" smooth="yes"/>
      <point x="439" y="377"/>
      <point x="403" y="342"/>
      <point x="335" y="342" type="curve" smooth="yes"/>
      <point x="217" y="342" type="line"/>
    </contour>
  </outline>
</glyph>
<glyph name="T" format="1">
  <advance width="601"/>
  <unicode hex="0054"/>
  <note>
	T
  </note>
  <outline>
    <contour>
      <point x="337" y="0" type="line" smooth="yes"/>
      <point x="371" y="0"/>
      <point x="383" y="14"/>
      <point x="383" y="43" type="curve" smooth="yes"/>
      <point x="383" y="558" type="line"/>
      <point x="547" y="558" type="line" smooth="yes"/>
      <point x="580" y="558"/>
      <point x="590" y="571"/>
      <point x="590" y="600" type="curve" smooth="yes"/>
      <point x="590" y="637" type="line" smooth="yes"/>
      <point x="590" y="666"/>
      <point x="580" y="680"/>
      <point x="547" y="680" type="curve" smooth="yes"/>
      <point x="53" y="680" type="line" smooth="yes"/>
      <point x="20" y="680"/>
      <point x="11" y="666"/>
      <point x="11" y="637" type="curve" smooth="yes"/>
      <point x="11" y="600" type="line" smooth="yes"/>
      <point x="11" y="571"/>
      <point x="20" y="558"/>
      <point x="53" y="558" type="curve" smooth="yes"/>
      <point x="217" y="558" type="line"/>
      <point x="217" y="43" type="line" smooth="yes"/>
      <point x="217" y="14"/>
      <point x="229" y="0"/>
      <point x="263" y="0" type="curve" smooth="yes"/>
    </contour>
  </outline>
</glyph>
<glyph name="Z" format="1">
  <advance width="636"/>
  <unicode hex="005A"/>
  <note>
	Z
  </note>
  <outline>
    <contour>
      <point x="560" y="0" type="line" smooth="yes"/>
      <point x="593" y="0"/>
      <point x="605" y="13"/>
      <point x="605" y="42" type="curve" smooth="yes"/>
      <point x="605" y="78" type="line" smooth="yes"/>
      <point x="605" y="108"/>
      <point x="593" y="121"/>
      <point x="560" y="121" type="curve" smooth="yes"/>
      <point x="249" y="121" type="line"/>
      <point x="576" y="566" type="line" smooth="yes"/>
      <point x="599" y="598"/>
      <point x="603" y="609"/>
      <point x="603" y="639" type="curve" smooth="yes"/>
      <point x="603" y="668"/>
      <point x="595" y="680"/>
      <point x="564" y="680" type="curve" smooth="yes"/>
      <point x="86" y="680" type="line" smooth="yes"/>
      <point x="53" y="680"/>
      <point x="41" y="667"/>
      <point x="41" y="638" type="curve" smooth="yes"/>
      <point x="41" y="601" type="line" smooth="yes"/>
      <point x="41" y="572"/>
      <point x="53" y="558"/>
      <point x="86" y="558" type="curve" smooth="yes"/>
      <point x="386" y="558" type="line"/>
      <point x="57" y="113" type="line" smooth="yes"/>
      <point x="35" y="83"/>
      <point x="31" y="69"/>
      <point x="31" y="41" type="curve" smooth="yes"/>
      <point x="31" y="11"/>
      <point x="38" y="0"/>
      <point x="69" y="0" type="curve" smooth="yes"/>
    </contour>
  </outline>
</glyph>
<glyph name="bracketleft" format="1">
  <advance width="332"/>
  <unicode hex="005B"/>
  <note>
	bracketleft
  </note>
  <outline>
    <contour>
      <point x="269" y="-70" type="line" smooth="yes"/>
      <point x="302" y="-70"/>
      <point x="311" y="-57"/>
      <point x="311" y="-28" type="curve" smooth="yes"/>
      <point x="311" y="8" type="line" smooth="yes"/>
      <point x="311" y="38"/>
      <point x="302" y="51"/>
      <point x="269" y="51" type="curve" smooth="yes"/>
      <point x="196" y="51" type="line"/>
      <point x="196" y="628" type="line"/>
      <point x="269" y="628" type="line" smooth="yes"/>
      <point x="302" y="628"/>
      <point x="311" y="642"/>
      <point x="311" y="671" type="curve" smooth="yes"/>
      <point x="311" y="708" type="line" smooth="yes"/>
      <point x="311" y="737"/>
      <point x="302" y="750"/>
      <point x="269" y="750" type="curve" smooth="yes"/>
      <point x="75" y="750" type="line" smooth="yes"/>
      <point x="43" y="750"/>
      <point x="31" y="735"/>
      <point x="31" y="706" type="curve" smooth="yes"/>
      <point x="31" y="-27" type="line" smooth="yes"/>
      <point x="31" y="-56"/>
      <point x="43" y="-70"/>
      <point x="75" y="-70" type="curve" smooth="yes"/>
    </contour>
  </outline>
</glyph>
<glyph name="backslash" format="1">
  <advance width="499"/>
  <unicode hex="005C"/>
  <note>
	backslash
  </note>
  <outline>
    <contour>
      <point x="452" y="0" type="line" smooth="yes"/>
      <point x="470" y="0"/>
      <point x="472" y="14"/>
      <point x="465" y="31" type="curve" smooth="yes"/>
      <point x="201" y="675" type="line" smooth="yes"/>
      <point x="196" y="687"/>
      <point x="189" y="695"/>
      <point x="171" y="695" type="curve" smooth="yes"/>
      <point x="48" y="695" type="line" smooth="yes"/>
      <point x="30" y="695"/>
      <point x="28" y="681"/>
      <point x="35" y="664" type="curve" smooth="yes"/>
      <point x="299" y="20" type="line" smooth="yes"/>
      <point x="304" y="7"/>
      <point x="311" y="0"/>
      <point x="328" y="0" type="curve" smooth="yes"/>
    </contour>
  </outline>
</glyph>
<glyph name="grave" format="1">
  <advance width="285"/>
  <unicode hex="0060"/>
  <note>
	grave
  </note>
  <outline>
    <contour>
      <point x="225" y="557" type="line" smooth="yes"/>
      <point x="251" y="557"/>
      <point x="258" y="571"/>
      <point x="251" y="591" type="curve" smooth="yes"/>
      <point x="204" y="719" type="line" smooth="yes"/>
      <point x="197" y="739"/>
      <point x="192" y="746"/>
      <point x="163" y="746" type="curve" smooth="yes"/>
      <point x="62" y="746" type="line" smooth="yes"/>
      <point x="35" y="746"/>
      <point x="23" y="732"/>
      <point x="37" y="707" type="curve" smooth="yes"/>
      <point x="107" y="577" type="line" smooth="yes"/>
      <point x="116" y="561"/>
      <point x="124" y="557"/>
      <point x="147" y="557" type="curve" smooth="yes"/>
    </contour>
  </outline>
</glyph>
<glyph name="a" format="1">
  <advance width="617"/>
  <unicode hex="0061"/>
  <note>
	a
  </note>
  <outline>
    <contour>
      <point x="323" y="-15"/>
      <point x="379" y="5"/>
      <point x="419" y="52" type="curve"/>
      <point x="430" y="17" type="line" smooth="yes"/>
      <point x="434" y="5"/>
      <point x="440" y="0"/>
      <point x="455" y="0" type="curve" smooth="yes"/>
      <point x="534" y="0" type="line" smooth="yes"/>
      <point x="559" y="0"/>
      <point x="566" y="7"/>
      <point x="566" y="29" type="curve" smooth="yes"/>
      <point x="566" y="433" type="line"/>
      <point x="510" y="470"/>
      <point x="441" y="495"/>
      <point x="341" y="495" type="curve" smooth="yes"/>
      <point x="156" y="495"/>
      <point x="31" y="384"/>
      <point x="31" y="214" type="curve" smooth="yes"/>
      <point x="31" y="66"/>
      <point x="116" y="-15"/>
      <point x="242" y="-15" type="curve" smooth="yes"/>
    </contour>
    <contour>
      <point x="231" y="99"/>
      <point x="195" y="136"/>
      <point x="195" y="217" type="curve" smooth="yes"/>
      <point x="195" y="322"/>
      <point x="253" y="382"/>
      <point x="340" y="382" type="curve" smooth="yes"/>
      <point x="367" y="382"/>
      <point x="392" y="377"/>
      <point x="412" y="367" type="curve"/>
      <point x="412" y="192" type="line" smooth="yes"/>
      <point x="412" y="132"/>
      <point x="358" y="99"/>
      <point x="303" y="99" type="curve" smooth="yes"/>
    </contour>
  </outline>
</glyph>
<glyph name="c" format="1">
  <advance width="563"/>
  <unicode hex="0063"/>
  <note>
	c
  </note>
  <outline>
    <contour>
      <point x="408" y="-15"/>
      <point x="467" y="4"/>
      <point x="520" y="38" type="curve" smooth="yes"/>
      <point x="534" y="47"/>
      <point x="535" y="54"/>
      <point x="527" y="67" type="curve" smooth="yes"/>
      <point x="490" y="130" type="line" smooth="yes"/>
      <point x="481" y="145"/>
      <point x="475" y="145"/>
      <point x="459" y="135" type="curve" smooth="yes"/>
      <point x="427" y="114"/>
      <point x="391" y="99"/>
      <point x="337" y="99" type="curve" smooth="yes"/>
      <point x="247" y="99"/>
      <point x="195" y="145"/>
      <point x="195" y="239" type="curve" smooth="yes"/>
      <point x="195" y="327"/>
      <point x="247" y="382"/>
      <point x="331" y="382" type="curve" smooth="yes"/>
      <point x="385" y="382"/>
      <point x="417" y="368"/>
      <point x="452" y="346" type="curve" smooth="yes"/>
      <point x="467" y="337"/>
      <point x="474" y="336"/>
      <point x="483" y="351" type="curve" smooth="yes"/>
      <point x="517" y="410" type="line" smooth="yes"/>
      <point x="525" y="424"/>
      <point x="526" y="434"/>
      <point x="513" y="443" type="curve" smooth="yes"/>
      <point x="464" y="477"/>
      <point x="408" y="495"/>
      <point x="318" y="495" type="curve" smooth="yes"/>
      <point x="139" y="495"/>
      <point x="31" y="391"/>
      <point x="31" y="239" type="curve" smooth="yes"/>
      <point x="31" y="73"/>
      <point x="137" y="-15"/>
      <point x="318" y="-15" type="curve" smooth="yes"/>
    </contour>
  </outline>
</glyph>
<glyph name="f" format="1">
  <advance width="445"/>
  <unicode hex="0066"/>
  <note>
	f
  </note>
  <outline>
    <contour>
      <point x="213" y="0" type="line" smooth="yes"/>
      <point x="247" y="0"/>
      <point x="258" y="14"/>
      <point x="258" y="43" type="curve" smooth="yes"/>
      <point x="258" y="364" type="line"/>
      <point x="362" y="364" type="line" smooth="yes"/>
      <point x="395" y="364"/>
      <point x="404" y="378"/>
      <point x="404" y="407" type="curve" smooth="yes"/>
      <point x="404" y="438" type="line" smooth="yes"/>
      <point x="404" y="467"/>
      <point x="395" y="480"/>
      <point x="362" y="480" type="curve" smooth="yes"/>
      <point x="258" y="480" type="line"/>
      <point x="258" y="511" type="line" smooth="yes"/>
      <point x="258" y="559"/>
      <point x="275" y="585"/>
      <point x="326" y="585" type="curve" smooth="yes"/>
      <point x="353" y="585"/>
      <point x="372" y="578"/>
      <point x="392" y="567" type="curve" smooth="yes"/>
      <point x="404" y="560"/>
      <point x="411" y="561"/>
      <point x="418" y="573" type="curve" smooth="yes"/>
      <point x="449" y="624" type="line" smooth="yes"/>
      <point x="457" y="637"/>
      <point x="455" y="645"/>
      <point x="443" y="654" type="curve" smooth="yes"/>
      <point x="406" y="681"/>
      <point x="354" y="695"/>
      <point x="288" y="695" type="curve" smooth="yes"/>
      <point x="154" y="695"/>
      <point x="93" y="622"/>
      <point x="93" y="506" type="curve" smooth="yes"/>
      <point x="93" y="480" type="line"/>
      <point x="53" y="480" type="line" smooth="yes"/>
      <point x="20" y="480"/>
      <point x="11" y="467"/>
      <point x="11" y="438" type="curve" smooth="yes"/>
      <point x="11" y="407" type="line" smooth="yes"/>
      <point x="11" y="378"/>
      <point x="20" y="364"/>
      <point x="53" y="364" type="curve" smooth="yes"/>
      <point x="93" y="364" type="line"/>
      <point x="93" y="43" type="line" smooth="yes"/>
      <point x="93" y="14"/>
      <point x="105" y="0"/>
      <point x="138" y="0" type="curve" smooth="yes"/>
    </contour>
  </outline>
</glyph>
<glyph name="j" format="1">
  <advance width="336"/>
  <unicode hex="006A"/>
  <note>
	j
  </note>
  <outline>
    <contour>
      <point x="210" y="-170"/>
      <point x="279" y="-91"/>
      <point x="279" y="28" type="curve" smooth="yes"/>
      <point x="279" y="436" type="line" smooth="yes"/>
      <point x="279" y="465"/>
      <point x="267" y="480"/>
      <point x="233" y="480" type="curve" smooth="yes"/>
      <point x="158" y="480" type="line" smooth="yes"/>
      <point x="125" y="480"/>
      <point x="113" y="465"/>
      <point x="113" y="436" type="curve" smooth="yes"/>
      <point x="113" y="31" type="line" smooth="yes"/>
      <point x="113" y="-23"/>
      <point x="95" y="-51"/>
      <point x="35" y="-51" type="curve" smooth="yes"/>
      <point x="-4" y="-51"/>
      <point x="-33" y="-37"/>
      <point x="-60" y="-18" type="curve" smooth="yes"/>
      <point x="-73" y="-9"/>
      <point x="-81" y="-8"/>
      <point x="-90" y="-23" type="curve" smooth="yes"/>
      <point x="-126" y="-84" type="line" smooth="yes"/>
      <point x="-134" y="-98"/>
      <point x="-134" y="-108"/>
      <point x="-122" y="-117" type="curve" smooth="yes"/>
      <point x="-77" y="-150"/>
      <point x="-12" y="-170"/>
      <point x="67" y="-170" type="curve" smooth="yes"/>
    </contour>
    <contour>
      <point x="224" y="547" type="line" smooth="yes"/>
      <point x="265" y="547"/>
      <point x="285" y="574"/>
      <point x="285" y="602" type="curve" smooth="yes"/>
      <point x="285" y="625" type="line" smooth="yes"/>
      <point x="285" y="653"/>
      <point x="265" y="680"/>
      <point x="224" y="680" type="curve" smooth="yes"/>
      <point x="166" y="680" type="line" smooth="yes"/>
      <point x="126" y="680"/>
      <point x="106" y="653"/>
      <point x="106" y="625" type="curve" smooth="yes"/>
      <point x="106" y="602" type="line" smooth="yes"/>
      <point x="106" y="574"/>
      <point x="126" y="547"/>
      <point x="166" y="547" type="curve" smooth="yes"/>
    </contour>
  </outline>
</glyph>
<glyph name="l" format="1">
  <advance width="267"/>
  <unicode hex="006C"/>
  <note>
	l
  </note>
  <outline>
    <contour>
      <point x="171" y="0" type="line" smooth="yes"/>
      <point x="205" y="0"/>
      <point x="216" y="14"/>
      <point x="216" y="43" type="curve" smooth="yes"/>
      <point x="216" y="636" type="line" smooth="yes"/>
      <point x="216" y="665"/>
      <point x="205" y="680"/>
      <point x="171" y="680" type="curve" smooth="yes"/>
      <point x="96" y="680" type="line" smooth="yes"/>
      <point x="63" y="680"/>
      <point x="51" y="665"/>
      <point x="51" y="636" type="curve" smooth="yes"/>
      <point x="51" y="43" type="line" smooth="yes"/>
      <point x="51" y="14"/>
      <point x="63" y="0"/>
      <point x="96" y="0" type="curve" smooth="yes"/>
    </contour>
  </outline>
</glyph>
<glyph name="p" format="1">
  <advance width="620"/>
  <unicode hex="0070"/>
  <note>
	p
  </note>
  <outline>
    <contour>
      <point x="168" y="-202" type="line" smooth="yes"/>
      <point x="202" y="-202"/>
      <point x="213" y="-188"/>
      <point x="213" y="-159" type="curve" smooth="yes"/>
      <point x="213" y="29" type="line"/>
      <point x="245" y="0"/>
      <point x="293" y="-15"/>
      <point x="348" y="-15" type="curve" smooth="yes"/>
      <point x="502" y="-15"/>
      <point x="589" y="85"/>
      <point x="589" y="239" type="curve" smooth="yes"/>
      <point x="589" y="410"/>
      <point x="490" y="495"/>
      <point x="293" y="495" type="curve" smooth="yes"/>
      <point x="196" y="495"/>
      <point x="103" y="463"/>
      <point x="51" y="427" type="curve"/>
      <point x="51" y="-159" type="line" smooth="yes"/>
      <point x="51" y="-188"/>
      <point x="63" y="-202"/>
      <point x="96" y="-202" type="curve" smooth="yes"/>
    </contour>
    <contour>
      <point x="255" y="98"/>
      <point x="212" y="130"/>
      <point x="212" y="189" type="curve" smooth="yes"/>
      <point x="212" y="367" type="line"/>
      <point x="230" y="376"/>
      <point x="255" y="381"/>
      <point x="288" y="381" type="curve" smooth="yes"/>
      <point x="376" y="381"/>
      <point x="425" y="346"/>
      <point x="425" y="242" type="curve" smooth="yes"/>
      <point x="425" y="154"/>
      <point x="389" y="98"/>
      <point x="311" y="98" type="curve" smooth="yes"/>
    </contour>
  </outline>
</glyph>
<glyph name="q" format="1">
  <advance width="620"/>
  <unicode hex="0071"/>
  <note>
	q
  </note>
  <outline>
    <contour>
      <point x="524" y="-202" type="line" smooth="yes"/>
      <point x="557" y="-202"/>
      <point x="569" y="-188"/>
      <point x="569" y="-159" type="curve" smooth="yes"/>
      <point x="569" y="427" type="line"/>
      <point x="517" y="463"/>
      <point x="425" y="495"/>
      <point x="327" y="495" type="curve" smooth="yes"/>
      <point x="133" y="495"/>
      <point x="31" y="396"/>
      <point x="31" y="225" type="curve" smooth="yes"/>
      <point x="31" y="76"/>
      <point x="118" y="-15"/>
      <point x="272" y="-15" type="curve" smooth="yes"/>
      <point x="327" y="-15"/>
      <point x="375" y="0"/>
      <point x="407" y="29" type="curve"/>
      <point x="407" y="-159" type="line" smooth="yes"/>
      <point x="407" y="-188"/>
      <point x="418" y="-202"/>
      <point x="452" y="-202" type="curve" smooth="yes"/>
    </contour>
    <contour>
      <point x="230" y="98"/>
      <point x="195" y="144"/>
      <point x="195" y="228" type="curve" smooth="yes"/>
      <point x="195" y="332"/>
      <point x="246" y="381"/>
      <point x="331" y="381" type="curve" smooth="yes"/>
      <point x="361" y="381"/>
      <point x="389" y="376"/>
      <point x="407" y="367" type="curve"/>
      <point x="407" y="189" type="line" smooth="yes"/>
      <point x="407" y="130"/>
      <point x="364" y="98"/>
      <point x="308" y="98" type="curve" smooth="yes"/>
    </contour>
  </outline>
</glyph>
<glyph name="w" format="1">
  <advance width="775"/>
  <unicode hex="0077"/>
  <note>
	w
  </note>
  <outline>
    <contour>
      <point x="274" y="0" type="line" smooth="yes"/>
      <point x="291" y="0"/>
      <point x="298" y="6"/>
      <point x="304" y="23" type="curve" smooth="yes"/>
      <point x="387" y="248" type="line"/>
      <point x="470" y="23" type="line" smooth="yes"/>
      <point x="476" y="6"/>
      <point x="483" y="0"/>
      <point x="500" y="0" type="curve" smooth="yes"/>
      <point x="578" y="0" type="line" smooth="yes"/>
      <point x="595" y="0"/>
      <point x="603" y="5"/>
      <point x="608" y="23" type="curve" smooth="yes"/>
      <point x="742" y="458" type="line" smooth="yes"/>
      <point x="746" y="472"/>
      <point x="740" y="480"/>
      <point x="725" y="480" type="curve" smooth="yes"/>
      <point x="620" y="480" type="line" smooth="yes"/>
      <point x="602" y="480"/>
      <point x="598" y="474"/>
      <point x="595" y="462" type="curve" smooth="yes"/>
      <point x="524" y="195" type="line"/>
      <point x="441" y="418" type="line" smooth="yes"/>
      <point x="436" y="432"/>
      <point x="431" y="438"/>
      <point x="414" y="438" type="curve" smooth="yes"/>
      <point x="361" y="438" type="line" smooth="yes"/>
      <point x="344" y="438"/>
      <point x="339" y="432"/>
      <point x="334" y="418" type="curve" smooth="yes"/>
      <point x="250" y="195" type="line"/>
      <point x="180" y="462" type="line" smooth="yes"/>
      <point x="177" y="474"/>
      <point x="172" y="480"/>
      <point x="154" y="480" type="curve" smooth="yes"/>
      <point x="50" y="480" type="line" smooth="yes"/>
      <point x="35" y="480"/>
      <point x="29" y="472"/>
      <point x="33" y="458" type="curve" smooth="yes"/>
      <point x="166" y="23" type="line" smooth="yes"/>
      <point x="171" y="5"/>
      <point x="179" y="0"/>
      <point x="197" y="0" type="curve" smooth="yes"/>
    </contour>
  </outline>
</glyph>
<glyph name="x" format="1">
  <advance width="615"/>
  <unicode hex="0078"/>
  <note>
	x
  </note>
  <outline>
    <contour>
      <point x="175" y="0" type="line" smooth="yes"/>
      <point x="191" y="0"/>
      <point x="196" y="3"/>
      <point x="204" y="12" type="curve" smooth="yes"/>
      <point x="307" y="133" type="line"/>
      <point x="411" y="12" type="line" smooth="yes"/>
      <point x="419" y="3"/>
      <point x="424" y="0"/>
      <point x="440" y="0" type="curve" smooth="yes"/>
      <point x="564" y="0" type="line" smooth="yes"/>
      <point x="583" y="0"/>
      <point x="590" y="18"/>
      <point x="577" y="33" type="curve" smooth="yes"/>
      <point x="399" y="244" type="line"/>
      <point x="569" y="447" type="line" smooth="yes"/>
      <point x="581" y="462"/>
      <point x="576" y="480"/>
      <point x="557" y="480" type="curve" smooth="yes"/>
      <point x="433" y="480" type="line" smooth="yes"/>
      <point x="416" y="480"/>
      <point x="410" y="476"/>
      <point x="403" y="467" type="curve"/>
      <point x="307" y="355" type="line"/>
      <point x="212" y="467" type="line"/>
      <point x="205" y="476"/>
      <point x="199" y="480"/>
      <point x="182" y="480" type="curve" smooth="yes"/>
      <point x="58" y="480" type="line" smooth="yes"/>
      <point x="39" y="480"/>
      <point x="34" y="462"/>
      <point x="46" y="447" type="curve" smooth="yes"/>
      <point x="215" y="244" type="line"/>
      <point x="38" y="33" type="line" smooth="yes"/>
      <point x="25" y="18"/>
      <point x="32" y="0"/>
      <point x="51" y="0" type="curve" smooth="yes"/>
    </contour>
  </outline>
</glyph>
<glyph name="z" format="1">
  <advance width="544"/>
  <unicode hex="007A"/>
  <note>
	z
  </note>
  <outline>
    <contour>
      <point x="468" y="0" type="line" smooth="yes"/>
      <point x="501" y="0"/>
      <point x="513" y="13"/>
      <point x="513" y="42" type="curve" smooth="yes"/>
      <point x="513" y="78" type="line" smooth="yes"/>
      <point x="513" y="108"/>
      <point x="501" y="121"/>
      <point x="468" y="121" type="curve" smooth="yes"/>
      <point x="247" y="121" type="line"/>
      <point x="458" y="347" type="line" smooth="yes"/>
      <point x="490" y="382"/>
      <point x="502" y="398"/>
      <point x="502" y="449" type="curve" smooth="yes"/>
      <point x="502" y="473"/>
      <point x="495" y="480"/>
      <point x="469" y="480" type="curve" smooth="yes"/>
      <point x="83" y="480" type="line" smooth="yes"/>
      <point x="50" y="480"/>
      <point x="38" y="467"/>
      <point x="38" y="438" type="curve" smooth="yes"/>
      <point x="38" y="401" type="line" smooth="yes"/>
      <point x="38" y="372"/>
      <point x="50" y="358"/>
      <point x="83" y="358" type="curve" smooth="yes"/>
      <point x="300" y="358" type="line"/>
      <point x="78" y="133" type="line" smooth="yes"/>
      <point x="42" y="97"/>
      <point x="33" y="83"/>
      <point x="33" y="33" type="curve" smooth="yes"/>
      <point x="33" y="9"/>
      <point x="41" y="0"/>
      <point x="69" y="0" type="curve" smooth="yes"/>
    </contour>
  </outline>
</glyph>
<glyph name="braceleft" format="1">
  <advance width="386"/>
  <unicode hex="007B"/>
  <note>
	braceleft
  </note>
  <outline>
    <contour>
      <point x="323" y="-70" type="line" smooth="yes"/>
      <point x="356" y="-70"/>
      <point x="365" y="-57"/>
      <point x="365" y="-28" type="curve" smooth="yes"/>
      <point x="365" y="2" type="line" smooth="yes"/>
      <point x="365" y="32"/>
      <point x="356" y="45"/>
      <point x="323" y="45" type="curve" smooth="yes"/>
      <point x="275" y="45" type="line"/>
      <point x="275" y="634" type="line"/>
      <point x="323" y="634" type="line" smooth="yes"/>
      <point x="356" y="634"/>
      <point x="365" y="648"/>
      <point x="365" y="677" type="curve" smooth="yes"/>
      <point x="365" y="708" type="line" smooth="yes"/>
      <point x="365" y="737"/>
      <point x="356" y="750"/>
      <point x="323" y="750" type="curve" smooth="yes"/>
      <point x="158" y="750" type="line" smooth="yes"/>
      <point x="124" y="750"/>
      <point x="113" y="735"/>
      <point x="113" y="706" type="curve" smooth="yes"/>
      <point x="113" y="398" type="line"/>
      <point x="53" y="398" type="line" smooth="yes"/>
      <point x="20" y="398"/>
      <point x="11" y="385"/>
      <point x="11" y="355" type="curve" smooth="yes"/>
      <point x="11" y="325" type="line" smooth="yes"/>
      <point x="11" y="296"/>
      <point x="20" y="283"/>
      <point x="53" y="283" type="curve" smooth="yes"/>
      <point x="113" y="283" type="line"/>
      <point x="113" y="-27" type="line" smooth="yes"/>
      <point x="113" y="-56"/>
      <point x="124" y="-70"/>
      <point x="158" y="-70" type="curve" smooth="yes"/>
    </contour>
  </outline>
</glyph>
<glyph name="asciitilde" format="1">
  <advance width="614"/>
  <unicode hex="007E"/>
  <note>
	asciitilde
  </note>
  <outline>
    <contour>
      <point x="487" y="213"/>
      <point x="532" y="250"/>
      <point x="566" y="296" type="curve" smooth="yes"/>
      <point x="590" y="329"/>
      <point x="587" y="346"/>
      <point x="555" y="370" type="curve" smooth="yes"/>
      <point x="516" y="401"/>
      <point x="496" y="402"/>
      <point x="478" y="380" type="curve" smooth="yes"/>
      <point x="457" y="356"/>
      <point x="442" y="338"/>
      <point x="405" y="338" type="curve" smooth="yes"/>
      <point x="338" y="338"/>
      <point x="291" y="408"/>
      <point x="199" y="408" type="curve" smooth="yes"/>
      <point x="128" y="408"/>
      <point x="82" y="371"/>
      <point x="48" y="325" type="curve" smooth="yes"/>
      <point x="23" y="291"/>
      <point x="27" y="275"/>
      <point x="58" y="251" type="curve" smooth="yes"/>
      <point x="98" y="220"/>
      <point x="117" y="220"/>
      <point x="136" y="240" type="curve" smooth="yes"/>
      <point x="156" y="262"/>
      <point x="171" y="282"/>
      <point x="209" y="282" type="curve" smooth="yes"/>
      <point x="284" y="282"/>
      <point x="330" y="213"/>
      <point x="421" y="213" type="curve" smooth="yes"/>
    </contour>
  </outline>
</glyph>
<glyph name="exclamdown" format="1">
  <advance width="241"/>
  <unicode hex="00A1"/>
  <note>
	exclamdown
  </note>
  <outline>
    <contour>
      <point x="159" y="-93" type="line" smooth="yes"/>
      <point x="193" y="-93"/>
      <point x="204" y="-78"/>
      <point x="204" y="-49" type="curve"/>
      <point x="197" y="360" type="line"/>
      <point x="197" y="389"/>
      <point x="183" y="403"/>
      <point x="149" y="403" type="curve" smooth="yes"/>
      <point x="92" y="403" type="line" smooth="yes"/>
      <point x="58" y="403"/>
      <point x="44" y="389"/>
      <point x="44" y="360" type="curve" smooth="yes"/>
      <point x="38" y="-49" type="line" smooth="yes"/>
      <point x="38" y="-78"/>
      <point x="49" y="-93"/>
      <point x="83" y="-93" type="curve" smooth="yes"/>
    </contour>
    <contour>
      <point x="136" y="472" type="line" smooth="yes"/>
      <point x="185" y="472"/>
      <point x="210" y="485"/>
      <point x="210" y="518" type="curve" smooth="yes"/>
      <point x="210" y="541" type="line" smooth="yes"/>
      <point x="210" y="574"/>
      <point x="185" y="587"/>
      <point x="136" y="587" type="curve" smooth="yes"/>
      <point x="104" y="587" type="line" smooth="yes"/>
      <point x="55" y="587"/>
      <point x="31" y="574"/>
      <point x="31" y="541" type="curve" smooth="yes"/>
      <point x="31" y="518" type="line" smooth="yes"/>
      <point x="31" y="485"/>
      <point x="55" y="472"/>
      <point x="104" y="472" type="curve" smooth="yes"/>
    </contour>
  </outline>
</glyph>
<glyph name="currency" format="1">
  <advance width="557"/>
  <unicode hex="00A4"/>
  <note>
	currency
  </note>
  <outline>
    <contour>
      <point x="187" y="118" type="line"/>
      <point x="215" y="103"/>
      <point x="245" y="96"/>
      <point x="279" y="96" type="curve" smooth="yes"/>
      <point x="311" y="96"/>
      <point x="342" y="103"/>
      <point x="370" y="118" type="curve"/>
      <point x="415" y="77" type="line" smooth="yes"/>
      <point x="430" y="63"/>
      <point x="445" y="63"/>
      <point x="461" y="78" type="curve" smooth="yes"/>
      <point x="514" y="129" type="line" smooth="yes"/>
      <point x="530" y="144"/>
      <point x="528" y="155"/>
      <point x="514" y="169" type="curve" smooth="yes"/>
      <point x="478" y="206" type="line"/>
      <point x="496" y="236"/>
      <point x="507" y="270"/>
      <point x="507" y="305" type="curve" smooth="yes"/>
      <point x="507" y="340"/>
      <point x="497" y="375"/>
      <point x="478" y="405" type="curve"/>
      <point x="514" y="442" type="line" smooth="yes"/>
      <point x="528" y="456"/>
      <point x="530" y="467"/>
      <point x="514" y="482" type="curve" smooth="yes"/>
      <point x="461" y="532" type="line" smooth="yes"/>
      <point x="445" y="547"/>
      <point x="430" y="548"/>
      <point x="415" y="534" type="curve" smooth="yes"/>
      <point x="370" y="493" type="line"/>
      <point x="344" y="506"/>
      <point x="311" y="515"/>
      <point x="279" y="515" type="curve" smooth="yes"/>
      <point x="245" y="515"/>
      <point x="213" y="506"/>
      <point x="187" y="493" type="curve"/>
      <point x="141" y="534" type="line" smooth="yes"/>
      <point x="126" y="548"/>
      <point x="112" y="548"/>
      <point x="96" y="533" type="curve" smooth="yes"/>
      <point x="42" y="482" type="line" smooth="yes"/>
      <point x="27" y="467"/>
      <point x="28" y="455"/>
      <point x="42" y="442" type="curve"/>
      <point x="79" y="405" type="line"/>
      <point x="61" y="374"/>
      <point x="50" y="340"/>
      <point x="50" y="305" type="curve" smooth="yes"/>
      <point x="50" y="271"/>
      <point x="61" y="236"/>
      <point x="79" y="206" type="curve"/>
      <point x="42" y="169" type="line" smooth="yes"/>
      <point x="28" y="155"/>
      <point x="26" y="143"/>
      <point x="42" y="129" type="curve"/>
      <point x="96" y="78" type="line" smooth="yes"/>
      <point x="112" y="63"/>
      <point x="126" y="63"/>
      <point x="141" y="77" type="curve" smooth="yes"/>
    </contour>
    <contour>
      <point x="229" y="215"/>
      <point x="189" y="256"/>
      <point x="189" y="305" type="curve" smooth="yes"/>
      <point x="189" y="355"/>
      <point x="229" y="395"/>
      <point x="279" y="395" type="curve" smooth="yes"/>
      <point x="328" y="395"/>
      <point x="368" y="355"/>
      <point x="368" y="305" type="curve" smooth="yes"/>
      <point x="368" y="256"/>
      <point x="328" y="215"/>
      <point x="279" y="215" type="curve" smooth="yes"/>
    </contour>
  </outline>
</glyph>
<glyph name="copyright" format="1">
  <advance width="784"/>
  <unicode hex="00A9"/>
  <note>
	copyright
  </note>
  <outline>
    <contour>
      <point x="588" y="-15"/>
      <point x="753" y="144"/>
      <point x="753" y="340" type="curve" smooth="yes"/>
      <point x="753" y="536"/>
      <point x="588" y="695"/>
      <point x="392" y="695" type="curve" smooth="yes"/>
      <point x="196" y="695"/>
      <point x="31" y="536"/>
      <point x="31" y="340" type="curve" smooth="yes"/>
      <point x="31" y="144"/>
      <point x="196" y="-15"/>
      <point x="392" y="-15" type="curve" smooth="yes"/>
    </contour>
    <contour>
      <point x="465" y="110"/>
      <point x="512" y="128"/>
      <point x="551" y="157" type="curve" smooth="yes"/>
      <point x="559" y="163"/>
      <point x="558" y="171"/>
      <point x="554" y="180" type="curve"/>
      <point x="534" y="220" type="line" smooth="yes"/>
      <point x="529" y="230"/>
      <point x="522" y="229"/>
      <point x="513" y="223" type="curve" smooth="yes"/>
      <point x="486" y="204"/>
      <point x="457" y="193"/>
      <point x="410" y="193" type="curve" smooth="yes"/>
      <point x="326" y="193"/>
      <point x="276" y="240"/>
      <point x="276" y="338" type="curve" smooth="yes"/>
      <point x="276" y="432"/>
      <point x="324" y="486"/>
      <point x="406" y="486" type="curve" smooth="yes"/>
      <point x="456" y="486"/>
      <point x="485" y="476"/>
      <point x="510" y="457" type="curve" smooth="yes"/>
      <point x="519" y="450"/>
      <point x="526" y="450"/>
      <point x="531" y="460" type="curve" smooth="yes"/>
      <point x="551" y="500" type="line"/>
      <point x="556" y="509"/>
      <point x="556" y="516"/>
      <point x="548" y="523" type="curve" smooth="yes"/>
      <point x="510" y="555"/>
      <point x="461" y="569"/>
      <point x="392" y="569" type="curve" smooth="yes"/>
      <point x="254" y="569"/>
      <point x="167" y="481"/>
      <point x="167" y="338" type="curve" smooth="yes"/>
      <point x="167" y="191"/>
      <point x="253" y="110"/>
      <point x="397" y="110" type="curve" smooth="yes"/>
    </contour>
    <contour>
      <point x="236" y="74"/>
      <point x="128" y="185"/>
      <point x="128" y="340" type="curve" smooth="yes"/>
      <point x="128" y="494"/>
      <point x="236" y="606"/>
      <point x="392" y="606" type="curve" smooth="yes"/>
      <point x="547" y="606"/>
      <point x="655" y="494"/>
      <point x="655" y="340" type="curve" smooth="yes"/>
      <point x="655" y="185"/>
      <point x="547" y="74"/>
      <point x="392" y="74" type="curve" smooth="yes"/>
    </contour>
  </outline>
</glyph>
<glyph name="ordfeminine" format="1">
  <advance width="366"/>
  <unicode hex="00AA"/>
  <note>
	ordfeminine
  </note>
  <outline>
    <contour>
      <point x="191" y="368"/>
      <point x="225" y="383"/>
      <point x="249" y="410" type="curve"/>
      <point x="253" y="390" type="line"/>
      <point x="255" y="382"/>
      <point x="259" y="377"/>
      <point x="268" y="377" type="curve" smooth="yes"/>
      <point x="320" y="377" type="line" smooth="yes"/>
      <point x="330" y="377"/>
      <point x="335" y="382"/>
      <point x="335" y="390" type="curve" smooth="yes"/>
      <point x="335" y="564" type="line" smooth="yes"/>
      <point x="335" y="651"/>
      <point x="292" y="695"/>
      <point x="185" y="695" type="curve" smooth="yes"/>
      <point x="139" y="695"/>
      <point x="101" y="686"/>
      <point x="73" y="673" type="curve" smooth="yes"/>
      <point x="65" y="669"/>
      <point x="61" y="665"/>
      <point x="64" y="659" type="curve"/>
      <point x="91" y="613" type="line" smooth="yes"/>
      <point x="94" y="608"/>
      <point x="96" y="606"/>
      <point x="103" y="609" type="curve" smooth="yes"/>
      <point x="128" y="620"/>
      <point x="150" y="626"/>
      <point x="177" y="626" type="curve" smooth="yes"/>
      <point x="221" y="626"/>
      <point x="247" y="611"/>
      <point x="247" y="575" type="curve" smooth="yes"/>
      <point x="247" y="567" type="line"/>
      <point x="152" y="567" type="line" smooth="yes"/>
      <point x="79" y="567"/>
      <point x="31" y="532"/>
      <point x="31" y="465" type="curve" smooth="yes"/>
      <point x="31" y="404"/>
      <point x="76" y="368"/>
      <point x="140" y="368" type="curve" smooth="yes"/>
    </contour>
    <contour>
      <point x="139" y="432"/>
      <point x="122" y="444"/>
      <point x="122" y="470" type="curve" smooth="yes"/>
      <point x="122" y="496"/>
      <point x="139" y="507"/>
      <point x="173" y="507" type="curve" smooth="yes"/>
      <point x="247" y="507" type="line"/>
      <point x="247" y="498" type="line" smooth="yes"/>
      <point x="247" y="458"/>
      <point x="215" y="432"/>
      <point x="170" y="432" type="curve" smooth="yes"/>
    </contour>
  </outline>
</glyph>
<glyph name="guillemetleft" format="1">
  <advance width="703"/>
  <unicode hex="00AB"/>
  <note>
	guillemotleft
  </note>
  <outline>
    <contour>
      <point x="352" y="83" type="line" smooth="yes"/>
      <point x="368" y="98"/>
      <point x="372" y="110"/>
      <point x="352" y="129" type="curve" smooth="yes"/>
      <point x="198" y="283" type="line"/>
      <point x="352" y="436" type="line" smooth="yes"/>
      <point x="372" y="455"/>
      <point x="368" y="468"/>
      <point x="352" y="483" type="curve" smooth="yes"/>
      <point x="298" y="537" type="line" smooth="yes"/>
      <point x="282" y="553"/>
      <point x="267" y="551"/>
      <point x="248" y="531" type="curve" smooth="yes"/>
      <point x="58" y="334" type="line"/>
      <point x="42" y="316"/>
      <point x="31" y="306"/>
      <point x="31" y="292" type="curve" smooth="yes"/>
      <point x="31" y="273" type="line" smooth="yes"/>
      <point x="31" y="259"/>
      <point x="40" y="251"/>
      <point x="58" y="232" type="curve" smooth="yes"/>
      <point x="248" y="35" type="line" smooth="yes"/>
      <point x="267" y="15"/>
      <point x="282" y="13"/>
      <point x="298" y="29" type="curve" smooth="yes"/>
    </contour>
    <contour>
      <point x="658" y="83" type="line" smooth="yes"/>
      <point x="674" y="98"/>
      <point x="678" y="110"/>
      <point x="658" y="129" type="curve" smooth="yes"/>
      <point x="504" y="283" type="line"/>
      <point x="658" y="436" type="line" smooth="yes"/>
      <point x="678" y="455"/>
      <point x="674" y="467"/>
      <point x="658" y="483" type="curve" smooth="yes"/>
      <point x="604" y="537" type="line" smooth="yes"/>
      <point x="588" y="553"/>
      <point x="573" y="551"/>
      <point x="554" y="531" type="curve" smooth="yes"/>
      <point x="364" y="334" type="line"/>
      <point x="348" y="316"/>
      <point x="337" y="306"/>
      <point x="337" y="292" type="curve" smooth="yes"/>
      <point x="337" y="273" type="line" smooth="yes"/>
      <point x="337" y="259"/>
      <point x="346" y="251"/>
      <point x="364" y="232" type="curve" smooth="yes"/>
      <point x="554" y="35" type="line" smooth="yes"/>
      <point x="573" y="15"/>
      <point x="588" y="13"/>
      <point x="604" y="29" type="curve" smooth="yes"/>
    </contour>
  </outline>
</glyph>
<glyph name="logicalnot" format="1">
  <advance width="470"/>
  <unicode hex="00AC"/>
  <note>
	logicalnot
  </note>
  <outline>
    <contour>
      <point x="395" y="115" type="line" smooth="yes"/>
      <point x="424" y="115"/>
      <point x="439" y="124"/>
      <point x="439" y="157" type="curve" smooth="yes"/>
      <point x="439" y="319" type="line" smooth="yes"/>
      <point x="439" y="348"/>
      <point x="429" y="362"/>
      <point x="396" y="362" type="curve" smooth="yes"/>
      <point x="73" y="362" type="line" smooth="yes"/>
      <point x="40" y="362"/>
      <point x="31" y="348"/>
      <point x="31" y="319" type="curve" smooth="yes"/>
      <point x="31" y="283" type="line" smooth="yes"/>
      <point x="31" y="253"/>
      <point x="40" y="240"/>
      <point x="73" y="240" type="curve" smooth="yes"/>
      <point x="307" y="240" type="line"/>
      <point x="307" y="157" type="line" smooth="yes"/>
      <point x="307" y="124"/>
      <point x="321" y="115"/>
      <point x="350" y="115" type="curve" smooth="yes"/>
    </contour>
  </outline>
</glyph>
<glyph name="macron" format="1">
  <advance width="418"/>
  <unicode hex="00AF"/>
  <note>
	macron
  </note>
  <outline>
    <contour>
      <point x="344" y="581" type="line" smooth="yes"/>
      <point x="377" y="581"/>
      <point x="387" y="594"/>
      <point x="387" y="624" type="curve" smooth="yes"/>
      <point x="387" y="660" type="line" smooth="yes"/>
      <point x="387" y="689"/>
      <point x="377" y="703"/>
      <point x="344" y="703" type="curve" smooth="yes"/>
      <point x="73" y="703" type="line" smooth="yes"/>
      <point x="40" y="703"/>
      <point x="31" y="689"/>
      <point x="31" y="660" type="curve" smooth="yes"/>
      <point x="31" y="624" type="line" smooth="yes"/>
      <point x="31" y="594"/>
      <point x="40" y="581"/>
      <point x="73" y="581" type="curve" smooth="yes"/>
    </contour>
  </outline>
</glyph>
<glyph name="degree" format="1">
  <advance width="337"/>
  <unicode hex="00B0"/>
  <note>
	degree
  </note>
  <outline>
    <contour>
      <point x="251" y="449"/>
      <point x="306" y="497"/>
      <point x="306" y="586" type="curve" smooth="yes"/>
      <point x="306" y="675"/>
      <point x="251" y="722"/>
      <point x="168" y="722" type="curve" smooth="yes"/>
      <point x="86" y="722"/>
      <point x="31" y="675"/>
      <point x="31" y="586" type="curve" smooth="yes"/>
      <point x="31" y="497"/>
      <point x="86" y="449"/>
      <point x="168" y="449" type="curve" smooth="yes"/>
    </contour>
    <contour>
      <point x="138" y="533"/>
      <point x="117" y="551"/>
      <point x="117" y="586" type="curve" smooth="yes"/>
      <point x="117" y="621"/>
      <point x="138" y="639"/>
      <point x="168" y="639" type="curve" smooth="yes"/>
      <point x="199" y="639"/>
      <point x="220" y="621"/>
      <point x="220" y="586" type="curve" smooth="yes"/>
      <point x="220" y="551"/>
      <point x="199" y="533"/>
      <point x="168" y="533" type="curve" smooth="yes"/>
    </contour>
  </outline>
</glyph>
<glyph name="plusminus" format="1">
  <advance width="462"/>
  <unicode hex="00B1"/>
  <note>
	plusminus
  </note>
  <outline>
    <contour>
      <point x="261" y="191" type="line" smooth="yes"/>
      <point x="295" y="191"/>
      <point x="300" y="201"/>
      <point x="300" y="228" type="curve" smooth="yes"/>
      <point x="300" y="310" type="line"/>
      <point x="396" y="310" type="line" smooth="yes"/>
      <point x="426" y="310"/>
      <point x="439" y="315"/>
      <point x="439" y="349" type="curve" smooth="yes"/>
      <point x="439" y="393" type="line" smooth="yes"/>
      <point x="439" y="427"/>
      <point x="426" y="432"/>
      <point x="396" y="432" type="curve" smooth="yes"/>
      <point x="300" y="432" type="line"/>
      <point x="300" y="515" type="line" smooth="yes"/>
      <point x="300" y="542"/>
      <point x="295" y="552"/>
      <point x="261" y="552" type="curve" smooth="yes"/>
      <point x="207" y="552" type="line" smooth="yes"/>
      <point x="174" y="552"/>
      <point x="168" y="542"/>
      <point x="168" y="515" type="curve" smooth="yes"/>
      <point x="168" y="432" type="line"/>
      <point x="74" y="432" type="line" smooth="yes"/>
      <point x="44" y="432"/>
      <point x="31" y="427"/>
      <point x="31" y="393" type="curve" smooth="yes"/>
      <point x="31" y="349" type="line" smooth="yes"/>
      <point x="31" y="315"/>
      <point x="44" y="310"/>
      <point x="74" y="310" type="curve" smooth="yes"/>
      <point x="168" y="310" type="line"/>
      <point x="168" y="228" type="line" smooth="yes"/>
      <point x="168" y="201"/>
      <point x="174" y="191"/>
      <point x="207" y="191" type="curve" smooth="yes"/>
    </contour>
    <contour>
      <point x="397" y="0" type="line" smooth="yes"/>
      <point x="427" y="0"/>
      <point x="435" y="13"/>
      <point x="435" y="39" type="curve" smooth="yes"/>
      <point x="435" y="82" type="line" smooth="yes"/>
      <point x="435" y="108"/>
      <point x="426" y="121"/>
      <point x="397" y="121" type="curve" smooth="yes"/>
      <point x="65" y="121" type="line" smooth="yes"/>
      <point x="35" y="121"/>
      <point x="27" y="108"/>
      <point x="27" y="82" type="curve" smooth="yes"/>
      <point x="27" y="39" type="line" smooth="yes"/>
      <point x="27" y="13"/>
      <point x="35" y="0"/>
      <point x="65" y="0" type="curve" smooth="yes"/>
    </contour>
  </outline>
</glyph>
<glyph name="cedilla" format="1">
  <advance width="286"/>
  <unicode hex="00B8"/>
  <note>
	cedilla
  </note>
  <outline>
    <contour>
      <point x="216" y="-240"/>
      <point x="255" y="-203"/>
      <point x="255" y="-155" type="curve" smooth="yes"/>
      <point x="255" y="-110"/>
      <point x="231" y="-87"/>
      <point x="186" y="-81" type="curve"/>
      <point x="209" y="-31" type="line" smooth="yes"/>
      <point x="214" y="-21"/>
      <point x="211" y="-15"/>
      <point x="199" y="-15" type="curve" smooth="yes"/>
      <point x="116" y="-15" type="line" smooth="yes"/>
      <point x="102" y="-15"/>
      <point x="98" y="-18"/>
      <point x="94" y="-29" type="curve" smooth="yes"/>
      <point x="67" y="-97" type="line" smooth="yes"/>
      <point x="63" y="-107"/>
      <point x="67" y="-113"/>
      <point x="77" y="-113" type="curve" smooth="yes"/>
      <point x="93" y="-113" type="line" smooth="yes"/>
      <point x="131" y="-113"/>
      <point x="149" y="-118"/>
      <point x="149" y="-142" type="curve" smooth="yes"/>
      <point x="149" y="-159"/>
      <point x="139" y="-167"/>
      <point x="113" y="-167" type="curve" smooth="yes"/>
      <point x="99" y="-167"/>
      <point x="81" y="-163"/>
      <point x="68" y="-157" type="curve" smooth="yes"/>
      <point x="59" y="-153"/>
      <point x="54" y="-152"/>
      <point x="50" y="-161" type="curve"/>
      <point x="33" y="-205" type="line" smooth="yes"/>
      <point x="29" y="-215"/>
      <point x="31" y="-217"/>
      <point x="43" y="-223" type="curve" smooth="yes"/>
      <point x="62" y="-233"/>
      <point x="101" y="-240"/>
      <point x="134" y="-240" type="curve" smooth="yes"/>
    </contour>
  </outline>
</glyph>
<glyph name="guillemetright" format="1">
  <advance width="703"/>
  <unicode hex="00BB"/>
  <note>
	guillemotright
  </note>
  <outline>
    <contour>
      <point x="421" y="12"/>
      <point x="435" y="15"/>
      <point x="454" y="35" type="curve" smooth="yes"/>
      <point x="644" y="232" type="line" smooth="yes"/>
      <point x="662" y="251"/>
      <point x="672" y="259"/>
      <point x="672" y="273" type="curve" smooth="yes"/>
      <point x="672" y="292" type="line" smooth="yes"/>
      <point x="672" y="306"/>
      <point x="661" y="316"/>
      <point x="644" y="334" type="curve" smooth="yes"/>
      <point x="454" y="531" type="line" smooth="yes"/>
      <point x="435" y="551"/>
      <point x="420" y="553"/>
      <point x="404" y="537" type="curve" smooth="yes"/>
      <point x="350" y="483" type="line" smooth="yes"/>
      <point x="335" y="468"/>
      <point x="331" y="455"/>
      <point x="351" y="436" type="curve" smooth="yes"/>
      <point x="504" y="283" type="line"/>
      <point x="351" y="129" type="line" smooth="yes"/>
      <point x="331" y="110"/>
      <point x="335" y="98"/>
      <point x="350" y="83" type="curve" smooth="yes"/>
      <point x="404" y="29" type="line" smooth="yes"/>
    </contour>
    <contour>
      <point x="115" y="12"/>
      <point x="129" y="15"/>
      <point x="148" y="35" type="curve" smooth="yes"/>
      <point x="338" y="232" type="line" smooth="yes"/>
      <point x="356" y="251"/>
      <point x="366" y="259"/>
      <point x="366" y="273" type="curve" smooth="yes"/>
      <point x="366" y="292" type="line" smooth="yes"/>
      <point x="366" y="306"/>
      <point x="355" y="316"/>
      <point x="338" y="334" type="curve" smooth="yes"/>
      <point x="148" y="531" type="line" smooth="yes"/>
      <point x="129" y="551"/>
      <point x="114" y="553"/>
      <point x="98" y="537" type="curve" smooth="yes"/>
      <point x="44" y="483" type="line" smooth="yes"/>
      <point x="29" y="468"/>
      <point x="25" y="455"/>
      <point x="45" y="436" type="curve" smooth="yes"/>
      <point x="198" y="283" type="line"/>
      <point x="45" y="129" type="line" smooth="yes"/>
      <point x="25" y="110"/>
      <point x="29" y="98"/>
      <point x="44" y="83" type="curve" smooth="yes"/>
      <point x="98" y="29" type="line" smooth="yes"/>
    </contour>
  </outline>
</glyph>
<glyph name="onequarter" format="1">
  <advance width="836"/>
  <unicode hex="00BC"/>
  <note>
	onequarter
  </note>
  <outline>
    <contour>
      <point x="248" y="0" type="line" smooth="yes"/>
      <point x="272" y="0"/>
      <point x="292" y="-2"/>
      <point x="303" y="16" type="curve" smooth="yes"/>
      <point x="703" y="649" type="line" smooth="yes"/>
      <point x="712" y="664"/>
      <point x="708" y="680"/>
      <point x="690" y="680" type="curve" smooth="yes"/>
      <point x="591" y="680" type="line" smooth="yes"/>
      <point x="575" y="680"/>
      <point x="567" y="673"/>
      <point x="559" y="660" type="curve" smooth="yes"/>
      <point x="162" y="31" type="line" smooth="yes"/>
      <point x="153" y="16"/>
      <point x="157" y="0"/>
      <point x="175" y="0" type="curve" smooth="yes"/>
    </contour>
    <contour>
      <point x="296" y="286" type="line" smooth="yes"/>
      <point x="317" y="286"/>
      <point x="323" y="294"/>
      <point x="323" y="314" type="curve" smooth="yes"/>
      <point x="323" y="342" type="line" smooth="yes"/>
      <point x="323" y="361"/>
      <point x="317" y="370"/>
      <point x="296" y="370" type="curve" smooth="yes"/>
      <point x="238" y="370" type="line"/>
      <point x="238" y="651" type="line" smooth="yes"/>
      <point x="238" y="670"/>
      <point x="230" y="680"/>
      <point x="208" y="680" type="curve" smooth="yes"/>
      <point x="161" y="680" type="line" smooth="yes"/>
      <point x="148" y="680"/>
      <point x="143" y="678"/>
      <point x="135" y="673" type="curve" smooth="yes"/>
      <point x="20" y="603" type="line"/>
      <point x="11" y="598"/>
      <point x="8" y="592"/>
      <point x="14" y="583" type="curve" smooth="yes"/>
      <point x="44" y="538" type="line"/>
      <point x="50" y="528"/>
      <point x="58" y="528"/>
      <point x="66" y="533" type="curve" smooth="yes"/>
      <point x="120" y="567" type="line"/>
      <point x="120" y="370" type="line"/>
      <point x="62" y="370" type="line" smooth="yes"/>
      <point x="40" y="370"/>
      <point x="33" y="361"/>
      <point x="33" y="342" type="curve" smooth="yes"/>
      <point x="33" y="314" type="line" smooth="yes"/>
      <point x="33" y="294"/>
      <point x="40" y="286"/>
      <point x="62" y="286" type="curve" smooth="yes"/>
    </contour>
    <contour>
      <point x="715" y="0" type="line" smooth="yes"/>
      <point x="737" y="0"/>
      <point x="746" y="7"/>
      <point x="746" y="27" type="curve" smooth="yes"/>
      <point x="746" y="83" type="line"/>
      <point x="778" y="83" type="line" smooth="yes"/>
      <point x="801" y="83"/>
      <point x="806" y="87"/>
      <point x="806" y="106" type="curve" smooth="yes"/>
      <point x="806" y="138" type="line" smooth="yes"/>
      <point x="806" y="157"/>
      <point x="800" y="164"/>
      <point x="778" y="164" type="curve" smooth="yes"/>
      <point x="746" y="164" type="line"/>
      <point x="746" y="367" type="line" smooth="yes"/>
      <point x="746" y="388"/>
      <point x="742" y="394"/>
      <point x="721" y="394" type="curve" smooth="yes"/>
      <point x="660" y="394" type="line" smooth="yes"/>
      <point x="633" y="394"/>
      <point x="626" y="392"/>
      <point x="615" y="378" type="curve" smooth="yes"/>
      <point x="452" y="177" type="line" smooth="yes"/>
      <point x="437" y="158"/>
      <point x="433" y="150"/>
      <point x="433" y="127" type="curve" smooth="yes"/>
      <point x="433" y="99" type="line" smooth="yes"/>
      <point x="433" y="88"/>
      <point x="438" y="83"/>
      <point x="450" y="83" type="curve" smooth="yes"/>
      <point x="622" y="83" type="line"/>
      <point x="622" y="27" type="line" smooth="yes"/>
      <point x="622" y="7"/>
      <point x="631" y="0"/>
      <point x="653" y="0" type="curve" smooth="yes"/>
    </contour>
    <contour>
      <point x="645" y="274" type="line"/>
      <point x="645" y="164" type="line"/>
      <point x="560" y="164" type="line"/>
    </contour>
  </outline>
</glyph>
<glyph name="onehalf" format="1">
  <advance width="892"/>
  <unicode hex="00BD"/>
  <note>
	onehalf
  </note>
  <outline>
    <contour>
      <point x="248" y="0" type="line" smooth="yes"/>
      <point x="272" y="0"/>
      <point x="292" y="-2"/>
      <point x="303" y="16" type="curve" smooth="yes"/>
      <point x="703" y="649" type="line" smooth="yes"/>
      <point x="712" y="664"/>
      <point x="708" y="680"/>
      <point x="690" y="680" type="curve" smooth="yes"/>
      <point x="591" y="680" type="line" smooth="yes"/>
      <point x="575" y="680"/>
      <point x="567" y="673"/>
      <point x="559" y="660" type="curve" smooth="yes"/>
      <point x="162" y="31" type="line" smooth="yes"/>
      <point x="153" y="16"/>
      <point x="157" y="0"/>
      <point x="175" y="0" type="curve" smooth="yes"/>
    </contour>
    <contour>
      <point x="296" y="286" type="line" smooth="yes"/>
      <point x="317" y="286"/>
      <point x="323" y="294"/>
      <point x="323" y="314" type="curve" smooth="yes"/>
      <point x="323" y="342" type="line" smooth="yes"/>
      <point x="323" y="361"/>
      <point x="317" y="370"/>
      <point x="296" y="370" type="curve" smooth="yes"/>
      <point x="238" y="370" type="line"/>
      <point x="238" y="651" type="line" smooth="yes"/>
      <point x="238" y="670"/>
      <point x="230" y="680"/>
      <point x="208" y="680" type="curve" smooth="yes"/>
      <point x="161" y="680" type="line" smooth="yes"/>
      <point x="148" y="680"/>
      <point x="143" y="678"/>
      <point x="135" y="673" type="curve" smooth="yes"/>
      <point x="20" y="603" type="line"/>
      <point x="11" y="598"/>
      <point x="8" y="592"/>
      <point x="14" y="583" type="curve" smooth="yes"/>
      <point x="44" y="538" type="line"/>
      <point x="50" y="528"/>
      <point x="58" y="528"/>
      <point x="66" y="533" type="curve" smooth="yes"/>
      <point x="120" y="567" type="line"/>
      <point x="120" y="370" type="line"/>
      <point x="62" y="370" type="line" smooth="yes"/>
      <point x="40" y="370"/>
      <point x="33" y="361"/>
      <point x="33" y="342" type="curve" smooth="yes"/>
      <point x="33" y="314" type="line" smooth="yes"/>
      <point x="33" y="294"/>
      <point x="40" y="286"/>
      <point x="62" y="286" type="curve" smooth="yes"/>
    </contour>
    <contour>
      <point x="836" y="0" type="line" smooth="yes"/>
      <point x="854" y="0"/>
      <point x="860" y="7"/>
      <point x="860" y="24" type="curve" smooth="yes"/>
      <point x="860" y="66" type="line" smooth="yes"/>
      <point x="860" y="84"/>
      <point x="854" y="91"/>
      <point x="836" y="91" type="curve" smooth="yes"/>
      <point x="680" y="91" type="line"/>
      <point x="688" y="114"/>
      <point x="715" y="133"/>
      <point x="760" y="158" type="curve" smooth="yes"/>
      <point x="832" y="200"/>
      <point x="857" y="233"/>
      <point x="857" y="293" type="curve" smooth="yes"/>
      <point x="857" y="365"/>
      <point x="797" y="409"/>
      <point x="707" y="409" type="curve" smooth="yes"/>
      <point x="640" y="409"/>
      <point x="582" y="393"/>
      <point x="552" y="373" type="curve" smooth="yes"/>
      <point x="544" y="368"/>
      <point x="545" y="363"/>
      <point x="549" y="354" type="curve"/>
      <point x="573" y="306" type="line"/>
      <point x="578" y="298"/>
      <point x="582" y="299"/>
      <point x="591" y="303" type="curve" smooth="yes"/>
      <point x="614" y="314"/>
      <point x="644" y="325"/>
      <point x="679" y="325" type="curve" smooth="yes"/>
      <point x="720" y="325"/>
      <point x="740" y="308"/>
      <point x="740" y="281" type="curve" smooth="yes"/>
      <point x="740" y="245"/>
      <point x="725" y="234"/>
      <point x="658" y="194" type="curve" smooth="yes"/>
      <point x="580" y="145"/>
      <point x="543" y="105"/>
      <point x="543" y="55" type="curve" smooth="yes"/>
      <point x="543" y="24" type="line" smooth="yes"/>
      <point x="543" y="7"/>
      <point x="550" y="0"/>
      <point x="565" y="0" type="curve" smooth="yes"/>
    </contour>
  </outline>
</glyph>
<glyph name="Acircumflex" format="1">
  <advance width="740"/>
  <unicode hex="00C2"/>
  <note>
	Acircumflex
  </note>
  <outline>
    <contour>
      <point x="171" y="0" type="line" smooth="yes"/>
      <point x="190" y="0"/>
      <point x="197" y="6"/>
      <point x="203" y="21" type="curve" smooth="yes"/>
      <point x="248" y="139" type="line"/>
      <point x="491" y="139" type="line"/>
      <point x="537" y="21" type="line" smooth="yes"/>
      <point x="543" y="6"/>
      <point x="550" y="0"/>
      <point x="569" y="0" type="curve" smooth="yes"/>
      <point x="690" y="0" type="line" smooth="yes"/>
      <point x="709" y="0"/>
      <point x="712" y="15"/>
      <point x="705" y="33" type="curve" smooth="yes"/>
      <point x="446" y="650" type="line" smooth="yes"/>
      <point x="437" y="672"/>
      <point x="429" y="680"/>
      <point x="407" y="680" type="curve" smooth="yes"/>
      <point x="334" y="680" type="line" smooth="yes"/>
      <point x="312" y="680"/>
      <point x="303" y="672"/>
      <point x="294" y="650" type="curve" smooth="yes"/>
      <point x="35" y="33" type="line" smooth="yes"/>
      <point x="28" y="15"/>
      <point x="31" y="0"/>
      <point x="50" y="0" type="curve" smooth="yes"/>
    </contour>
    <contour>
      <point x="370" y="470" type="line"/>
      <point x="453" y="254" type="line"/>
      <point x="286" y="254" type="line"/>
    </contour>
    <contour>
      <point x="263" y="722" type="line" smooth="yes"/>
      <point x="292" y="722"/>
      <point x="300" y="729"/>
      <point x="311" y="746" type="curve" smooth="yes"/>
      <point x="370" y="834" type="line"/>
      <point x="429" y="746" type="line" smooth="yes"/>
      <point x="440" y="729"/>
      <point x="448" y="722"/>
      <point x="477" y="722" type="curve" smooth="yes"/>
      <point x="538" y="722" type="line" smooth="yes"/>
      <point x="564" y="722"/>
      <point x="573" y="738"/>
      <point x="555" y="762" type="curve" smooth="yes"/>
      <point x="455" y="895" type="line" smooth="yes"/>
      <point x="442" y="912"/>
      <point x="438" y="919"/>
      <point x="409" y="919" type="curve" smooth="yes"/>
      <point x="330" y="919" type="line" smooth="yes"/>
      <point x="301" y="919"/>
      <point x="298" y="912"/>
      <point x="284" y="895" type="curve"/>
      <point x="184" y="762" type="line" smooth="yes"/>
      <point x="166" y="738"/>
      <point x="176" y="722"/>
      <point x="202" y="722" type="curve" smooth="yes"/>
    </contour>
  </outline>
</glyph>
<glyph name="Atilde" format="1">
  <advance width="740"/>
  <unicode hex="00C3"/>
  <note>
	Atilde
  </note>
  <outline>
    <contour>
      <point x="171" y="0" type="line" smooth="yes"/>
      <point x="190" y="0"/>
      <point x="197" y="6"/>
      <point x="203" y="21" type="curve" smooth="yes"/>
      <point x="248" y="139" type="line"/>
      <point x="491" y="139" type="line"/>
      <point x="537" y="21" type="line" smooth="yes"/>
      <point x="543" y="6"/>
      <point x="550" y="0"/>
      <point x="569" y="0" type="curve" smooth="yes"/>
      <point x="690" y="0" type="line" smooth="yes"/>
      <point x="709" y="0"/>
      <point x="712" y="15"/>
      <point x="705" y="33" type="curve" smooth="yes"/>
      <point x="446" y="650" type="line" smooth="yes"/>
      <point x="437" y="672"/>
      <point x="429" y="680"/>
      <point x="407" y="680" type="curve" smooth="yes"/>
      <point x="334" y="680" type="line" smooth="yes"/>
      <point x="312" y="680"/>
      <point x="303" y="672"/>
      <point x="294" y="650" type="curve" smooth="yes"/>
      <point x="35" y="33" type="line" smooth="yes"/>
      <point x="28" y="15"/>
      <point x="31" y="0"/>
      <point x="50" y="0" type="curve" smooth="yes"/>
    </contour>
    <contour>
      <point x="370" y="470" type="line"/>
      <point x="453" y="254" type="line"/>
      <point x="286" y="254" type="line"/>
    </contour>
    <contour>
      <point x="526" y="730"/>
      <point x="558" y="755"/>
      <point x="593" y="807" type="curve" smooth="yes"/>
      <point x="612" y="834"/>
      <point x="609" y="848"/>
      <point x="578" y="872" type="curve" smooth="yes"/>
      <point x="546" y="896"/>
      <point x="528" y="900"/>
      <point x="513" y="881" type="curve" smooth="yes"/>
      <point x="492" y="855"/>
      <point x="480" y="846"/>
      <point x="454" y="846" type="curve" smooth="yes"/>
      <point x="402" y="846"/>
      <point x="363" y="897"/>
      <point x="283" y="897" type="curve" smooth="yes"/>
      <point x="229" y="897"/>
      <point x="198" y="868"/>
      <point x="165" y="824" type="curve" smooth="yes"/>
      <point x="146" y="798"/>
      <point x="149" y="784"/>
      <point x="178" y="761" type="curve" smooth="yes"/>
      <point x="209" y="736"/>
      <point x="227" y="731"/>
      <point x="242" y="749" type="curve" smooth="yes"/>
      <point x="262" y="772"/>
      <point x="274" y="781"/>
      <point x="300" y="781" type="curve" smooth="yes"/>
      <point x="352" y="781"/>
      <point x="402" y="730"/>
      <point x="467" y="730" type="curve" smooth="yes"/>
    </contour>
  </outline>
</glyph>
<glyph name="AE" format="1">
  <advance width="891"/>
  <unicode hex="00C6"/>
  <note>
	AE
  </note>
  <outline>
    <contour>
      <point x="174" y="0" type="line" smooth="yes"/>
      <point x="193" y="0"/>
      <point x="197" y="4"/>
      <point x="202" y="18" type="curve" smooth="yes"/>
      <point x="248" y="141" type="line"/>
      <point x="400" y="141" type="line"/>
      <point x="400" y="43" type="line" smooth="yes"/>
      <point x="400" y="14"/>
      <point x="412" y="0"/>
      <point x="445" y="0" type="curve" smooth="yes"/>
      <point x="817" y="0" type="line" smooth="yes"/>
      <point x="850" y="0"/>
      <point x="860" y="13"/>
      <point x="860" y="42" type="curve" smooth="yes"/>
      <point x="860" y="78" type="line" smooth="yes"/>
      <point x="860" y="108"/>
      <point x="850" y="121"/>
      <point x="817" y="121" type="curve" smooth="yes"/>
      <point x="554" y="121" type="line"/>
      <point x="554" y="280" type="line"/>
      <point x="729" y="280" type="line" smooth="yes"/>
      <point x="762" y="280"/>
      <point x="771" y="294"/>
      <point x="771" y="323" type="curve" smooth="yes"/>
      <point x="771" y="358" type="line" smooth="yes"/>
      <point x="771" y="387"/>
      <point x="762" y="400"/>
      <point x="729" y="400" type="curve" smooth="yes"/>
      <point x="554" y="400" type="line"/>
      <point x="554" y="558" type="line"/>
      <point x="818" y="558" type="line" smooth="yes"/>
      <point x="851" y="558"/>
      <point x="860" y="572"/>
      <point x="860" y="601" type="curve" smooth="yes"/>
      <point x="860" y="638" type="line" smooth="yes"/>
      <point x="860" y="667"/>
      <point x="851" y="680"/>
      <point x="818" y="680" type="curve" smooth="yes"/>
      <point x="334" y="680" type="line" smooth="yes"/>
      <point x="311" y="680"/>
      <point x="303" y="672"/>
      <point x="294" y="650" type="curve" smooth="yes"/>
      <point x="35" y="33" type="line" smooth="yes"/>
      <point x="27" y="15"/>
      <point x="32" y="0"/>
      <point x="50" y="0" type="curve" smooth="yes"/>
    </contour>
    <contour>
      <point x="394" y="558" type="line"/>
      <point x="400" y="558" type="line"/>
      <point x="400" y="254" type="line"/>
      <point x="282" y="254" type="line"/>
    </contour>
  </outline>
</glyph>
<glyph name="Ccedilla" format="1">
  <advance width="678"/>
  <unicode hex="00C7"/>
  <note>
	Ccedilla
  </note>
  <outline>
    <contour>
      <point x="501" y="-15"/>
      <point x="583" y="2"/>
      <point x="637" y="41" type="curve" smooth="yes"/>
      <point x="650" y="51"/>
      <point x="652" y="55"/>
      <point x="645" y="68" type="curve" smooth="yes"/>
      <point x="606" y="135" type="line" smooth="yes"/>
      <point x="597" y="150"/>
      <point x="590" y="148"/>
      <point x="575" y="140" type="curve" smooth="yes"/>
      <point x="536" y="118"/>
      <point x="488" y="104"/>
      <point x="417" y="104" type="curve" smooth="yes"/>
      <point x="286" y="104"/>
      <point x="195" y="177"/>
      <point x="195" y="340" type="curve" smooth="yes"/>
      <point x="195" y="500"/>
      <point x="278" y="576"/>
      <point x="412" y="576" type="curve" smooth="yes"/>
      <point x="480" y="576"/>
      <point x="529" y="559"/>
      <point x="563" y="540" type="curve" smooth="yes"/>
      <point x="578" y="532"/>
      <point x="585" y="530"/>
      <point x="594" y="545" type="curve" smooth="yes"/>
      <point x="629" y="606" type="line" smooth="yes"/>
      <point x="637" y="620"/>
      <point x="638" y="630"/>
      <point x="625" y="639" type="curve" smooth="yes"/>
      <point x="571" y="675"/>
      <point x="489" y="695"/>
      <point x="392" y="695" type="curve" smooth="yes"/>
      <point x="162" y="695"/>
      <point x="31" y="572"/>
      <point x="31" y="340" type="curve" smooth="yes"/>
      <point x="31" y="108"/>
      <point x="167" y="-15"/>
      <point x="396" y="-15" type="curve" smooth="yes"/>
    </contour>
    <contour>
      <point x="456" y="-229"/>
      <point x="495" y="-192"/>
      <point x="495" y="-144" type="curve" smooth="yes"/>
      <point x="495" y="-99"/>
      <point x="471" y="-76"/>
      <point x="426" y="-70" type="curve"/>
      <point x="449" y="-20" type="line" smooth="yes"/>
      <point x="454" y="-10"/>
      <point x="451" y="-4"/>
      <point x="439" y="-4" type="curve" smooth="yes"/>
      <point x="356" y="-4" type="line" smooth="yes"/>
      <point x="342" y="-4"/>
      <point x="338" y="-7"/>
      <point x="334" y="-18" type="curve" smooth="yes"/>
      <point x="307" y="-86" type="line" smooth="yes"/>
      <point x="303" y="-96"/>
      <point x="307" y="-102"/>
      <point x="317" y="-102" type="curve" smooth="yes"/>
      <point x="333" y="-102" type="line" smooth="yes"/>
      <point x="371" y="-102"/>
      <point x="389" y="-107"/>
      <point x="389" y="-131" type="curve" smooth="yes"/>
      <point x="389" y="-148"/>
      <point x="379" y="-156"/>
      <point x="353" y="-156" type="curve" smooth="yes"/>
      <point x="339" y="-156"/>
      <point x="321" y="-152"/>
      <point x="308" y="-146" type="curve" smooth="yes"/>
      <point x="299" y="-142"/>
      <point x="294" y="-141"/>
      <point x="290" y="-150" type="curve"/>
      <point x="273" y="-194" type="line" smooth="yes"/>
      <point x="269" y="-204"/>
      <point x="271" y="-206"/>
      <point x="283" y="-212" type="curve" smooth="yes"/>
      <point x="302" y="-222"/>
      <point x="341" y="-229"/>
      <point x="374" y="-229" type="curve" smooth="yes"/>
    </contour>
  </outline>
</glyph>
<glyph name="Egrave" format="1">
  <advance width="574"/>
  <unicode hex="00C8"/>
  <note>
	Egrave
  </note>
  <outline>
    <contour>
      <point x="510" y="0" type="line" smooth="yes"/>
      <point x="543" y="0"/>
      <point x="552" y="13"/>
      <point x="552" y="42" type="curve" smooth="yes"/>
      <point x="552" y="78" type="line" smooth="yes"/>
      <point x="552" y="108"/>
      <point x="543" y="121"/>
      <point x="510" y="121" type="curve" smooth="yes"/>
      <point x="216" y="121" type="line"/>
      <point x="216" y="280" type="line"/>
      <point x="422" y="280" type="line" smooth="yes"/>
      <point x="455" y="280"/>
      <point x="464" y="294"/>
      <point x="464" y="323" type="curve" smooth="yes"/>
      <point x="464" y="358" type="line" smooth="yes"/>
      <point x="464" y="387"/>
      <point x="455" y="400"/>
      <point x="422" y="400" type="curve" smooth="yes"/>
      <point x="216" y="400" type="line"/>
      <point x="216" y="558" type="line"/>
      <point x="511" y="558" type="line" smooth="yes"/>
      <point x="544" y="558"/>
      <point x="553" y="572"/>
      <point x="553" y="601" type="curve" smooth="yes"/>
      <point x="553" y="638" type="line" smooth="yes"/>
      <point x="553" y="667"/>
      <point x="544" y="680"/>
      <point x="511" y="680" type="curve" smooth="yes"/>
      <point x="96" y="680" type="line" smooth="yes"/>
      <point x="63" y="680"/>
      <point x="51" y="665"/>
      <point x="51" y="636" type="curve" smooth="yes"/>
      <point x="51" y="43" type="line" smooth="yes"/>
      <point x="51" y="14"/>
      <point x="63" y="0"/>
      <point x="96" y="0" type="curve" smooth="yes"/>
    </contour>
    <contour>
      <point x="363" y="747" type="line" smooth="yes"/>
      <point x="389" y="747"/>
      <point x="396" y="761"/>
      <point x="389" y="781" type="curve" smooth="yes"/>
      <point x="343" y="907" type="line" smooth="yes"/>
      <point x="335" y="929"/>
      <point x="330" y="936"/>
      <point x="298" y="936" type="curve" smooth="yes"/>
      <point x="202" y="936" type="line" smooth="yes"/>
      <point x="175" y="936"/>
      <point x="161" y="923"/>
      <point x="175" y="897" type="curve" smooth="yes"/>
      <point x="241" y="775" type="line" smooth="yes"/>
      <point x="253" y="753"/>
      <point x="260" y="747"/>
      <point x="293" y="747" type="curve" smooth="yes"/>
    </contour>
  </outline>
</glyph>
<glyph name="Edieresis" format="1">
  <advance width="574"/>
  <unicode hex="00CB"/>
  <note>
	Edieresis
  </note>
  <outline>
    <contour>
      <point x="510" y="0" type="line" smooth="yes"/>
      <point x="543" y="0"/>
      <point x="552" y="13"/>
      <point x="552" y="42" type="curve" smooth="yes"/>
      <point x="552" y="78" type="line" smooth="yes"/>
      <point x="552" y="108"/>
      <point x="543" y="121"/>
      <point x="510" y="121" type="curve" smooth="yes"/>
      <point x="216" y="121" type="line"/>
      <point x="216" y="280" type="line"/>
      <point x="422" y="280" type="line" smooth="yes"/>
      <point x="455" y="280"/>
      <point x="464" y="294"/>
      <point x="464" y="323" type="curve" smooth="yes"/>
      <point x="464" y="358" type="line" smooth="yes"/>
      <point x="464" y="387"/>
      <point x="455" y="400"/>
      <point x="422" y="400" type="curve" smooth="yes"/>
      <point x="216" y="400" type="line"/>
      <point x="216" y="558" type="line"/>
      <point x="511" y="558" type="line" smooth="yes"/>
      <point x="544" y="558"/>
      <point x="553" y="572"/>
      <point x="553" y="601" type="curve" smooth="yes"/>
      <point x="553" y="638" type="line" smooth="yes"/>
      <point x="553" y="667"/>
      <point x="544" y="680"/>
      <point x="511" y="680" type="curve" smooth="yes"/>
      <point x="96" y="680" type="line" smooth="yes"/>
      <point x="63" y="680"/>
      <point x="51" y="665"/>
      <point x="51" y="636" type="curve" smooth="yes"/>
      <point x="51" y="43" type="line" smooth="yes"/>
      <point x="51" y="14"/>
      <point x="63" y="0"/>
      <point x="96" y="0" type="curve" smooth="yes"/>
    </contour>
    <contour>
      <point x="208" y="744" type="line" smooth="yes"/>
      <point x="241" y="744"/>
      <point x="262" y="770"/>
      <point x="262" y="801" type="curve" smooth="yes"/>
      <point x="262" y="823" type="line" smooth="yes"/>
      <point x="262" y="855"/>
      <point x="240" y="880"/>
      <point x="208" y="880" type="curve" smooth="yes"/>
      <point x="185" y="880" type="line" smooth="yes"/>
      <point x="153" y="880"/>
      <point x="131" y="855"/>
      <point x="131" y="823" type="curve" smooth="yes"/>
      <point x="131" y="801" type="line" smooth="yes"/>
      <point x="131" y="770"/>
      <point x="153" y="744"/>
      <point x="185" y="744" type="curve" smooth="yes"/>
    </contour>
    <contour>
      <point x="414" y="744" type="line" smooth="yes"/>
      <point x="447" y="744"/>
      <point x="468" y="770"/>
      <point x="468" y="801" type="curve" smooth="yes"/>
      <point x="468" y="823" type="line" smooth="yes"/>
      <point x="468" y="855"/>
      <point x="446" y="880"/>
      <point x="414" y="880" type="curve" smooth="yes"/>
      <point x="390" y="880" type="line" smooth="yes"/>
      <point x="359" y="880"/>
      <point x="336" y="855"/>
      <point x="336" y="823" type="curve" smooth="yes"/>
      <point x="336" y="801" type="line" smooth="yes"/>
      <point x="336" y="770"/>
      <point x="359" y="744"/>
      <point x="390" y="744" type="curve" smooth="yes"/>
    </contour>
  </outline>
</glyph>
<glyph name="Igrave" format="1">
  <advance width="267"/>
  <unicode hex="00CC"/>
  <note>
	Igrave
  </note>
  <outline>
    <contour>
      <point x="171" y="0" type="line" smooth="yes"/>
      <point x="205" y="0"/>
      <point x="216" y="14"/>
      <point x="216" y="43" type="curve" smooth="yes"/>
      <point x="216" y="636" type="line" smooth="yes"/>
      <point x="216" y="665"/>
      <point x="205" y="680"/>
      <point x="171" y="680" type="curve" smooth="yes"/>
      <point x="96" y="680" type="line" smooth="yes"/>
      <point x="63" y="680"/>
      <point x="51" y="665"/>
      <point x="51" y="636" type="curve" smooth="yes"/>
      <point x="51" y="43" type="line" smooth="yes"/>
      <point x="51" y="14"/>
      <point x="63" y="0"/>
      <point x="96" y="0" type="curve" smooth="yes"/>
    </contour>
    <contour>
      <point x="174" y="747" type="line" smooth="yes"/>
      <point x="200" y="747"/>
      <point x="207" y="761"/>
      <point x="200" y="781" type="curve" smooth="yes"/>
      <point x="154" y="907" type="line" smooth="yes"/>
      <point x="146" y="929"/>
      <point x="141" y="936"/>
      <point x="109" y="936" type="curve" smooth="yes"/>
      <point x="13" y="936" type="line" smooth="yes"/>
      <point x="-14" y="936"/>
      <point x="-28" y="923"/>
      <point x="-14" y="897" type="curve" smooth="yes"/>
      <point x="52" y="775" type="line" smooth="yes"/>
      <point x="64" y="753"/>
      <point x="71" y="747"/>
      <point x="104" y="747" type="curve" smooth="yes"/>
    </contour>
  </outline>
</glyph>
<glyph name="Idieresis" format="1">
  <advance width="277"/>
  <unicode hex="00CF"/>
  <note>
	Idieresis
  </note>
  <outline>
    <contour>
      <point x="172" y="0" type="line" smooth="yes"/>
      <point x="206" y="0"/>
      <point x="217" y="14"/>
      <point x="217" y="43" type="curve" smooth="yes"/>
      <point x="217" y="636" type="line" smooth="yes"/>
      <point x="217" y="665"/>
      <point x="206" y="680"/>
      <point x="172" y="680" type="curve" smooth="yes"/>
      <point x="97" y="680" type="line" smooth="yes"/>
      <point x="64" y="680"/>
      <point x="52" y="665"/>
      <point x="52" y="636" type="curve" smooth="yes"/>
      <point x="52" y="43" type="line" smooth="yes"/>
      <point x="52" y="14"/>
      <point x="64" y="0"/>
      <point x="97" y="0" type="curve" smooth="yes"/>
    </contour>
    <contour>
      <point x="47" y="704" type="line" smooth="yes"/>
      <point x="80" y="704"/>
      <point x="101" y="730"/>
      <point x="101" y="761" type="curve" smooth="yes"/>
      <point x="101" y="783" type="line" smooth="yes"/>
      <point x="101" y="815"/>
      <point x="79" y="840"/>
      <point x="47" y="840" type="curve" smooth="yes"/>
      <point x="24" y="840" type="line" smooth="yes"/>
      <point x="-8" y="840"/>
      <point x="-30" y="815"/>
      <point x="-30" y="783" type="curve" smooth="yes"/>
      <point x="-30" y="761" type="line" smooth="yes"/>
      <point x="-30" y="730"/>
      <point x="-8" y="704"/>
      <point x="24" y="704" type="curve" smooth="yes"/>
    </contour>
    <contour>
      <point x="253" y="704" type="line" smooth="yes"/>
      <point x="286" y="704"/>
      <point x="307" y="730"/>
      <point x="307" y="761" type="curve" smooth="yes"/>
      <point x="307" y="783" type="line" smooth="yes"/>
      <point x="307" y="815"/>
      <point x="285" y="840"/>
      <point x="253" y="840" type="curve" smooth="yes"/>
      <point x="229" y="840" type="line" smooth="yes"/>
      <point x="198" y="840"/>
      <point x="175" y="815"/>
      <point x="175" y="783" type="curve" smooth="yes"/>
      <point x="175" y="761" type="line" smooth="yes"/>
      <point x="175" y="730"/>
      <point x="198" y="704"/>
      <point x="229" y="704" type="curve" smooth="yes"/>
    </contour>
  </outline>
</glyph>
<glyph name="Eth" format="1">
  <advance width="729"/>
  <unicode hex="00D0"/>
  <note>
	Eth
  </note>
  <outline>
    <contour>
      <point x="349" y="0" type="line" smooth="yes"/>
      <point x="568" y="0"/>
      <point x="698" y="103"/>
      <point x="698" y="340" type="curve" smooth="yes"/>
      <point x="698" y="582"/>
      <point x="568" y="680"/>
      <point x="349" y="680" type="curve" smooth="yes"/>
      <point x="139" y="680" type="line" smooth="yes"/>
      <point x="105" y="680"/>
      <point x="94" y="665"/>
      <point x="94" y="636" type="curve" smooth="yes"/>
      <point x="94" y="401" type="line"/>
      <point x="51" y="401" type="line" smooth="yes"/>
      <point x="19" y="401"/>
      <point x="11" y="389"/>
      <point x="11" y="359" type="curve" smooth="yes"/>
      <point x="11" y="321" type="line" smooth="yes"/>
      <point x="11" y="292"/>
      <point x="19" y="280"/>
      <point x="51" y="280" type="curve" smooth="yes"/>
      <point x="94" y="280" type="line"/>
      <point x="94" y="43" type="line" smooth="yes"/>
      <point x="94" y="14"/>
      <point x="105" y="0"/>
      <point x="139" y="0" type="curve" smooth="yes"/>
    </contour>
    <contour>
      <point x="259" y="280" type="line"/>
      <point x="379" y="280" type="line" smooth="yes"/>
      <point x="411" y="280"/>
      <point x="419" y="292"/>
      <point x="419" y="321" type="curve" smooth="yes"/>
      <point x="419" y="359" type="line" smooth="yes"/>
      <point x="419" y="389"/>
      <point x="411" y="401"/>
      <point x="379" y="401" type="curve" smooth="yes"/>
      <point x="259" y="401" type="line"/>
      <point x="259" y="558" type="line"/>
      <point x="357" y="558" type="line" smooth="yes"/>
      <point x="470" y="558"/>
      <point x="534" y="507"/>
      <point x="534" y="340" type="curve" smooth="yes"/>
      <point x="534" y="173"/>
      <point x="470" y="121"/>
      <point x="357" y="121" type="curve" smooth="yes"/>
      <point x="259" y="121" type="line"/>
    </contour>
  </outline>
</glyph>
<glyph name="Ograve" format="1">
  <advance width="759"/>
  <unicode hex="00D2"/>
  <note>
	Ograve
  </note>
  <outline>
    <contour>
      <point x="607" y="-15"/>
      <point x="728" y="116"/>
      <point x="728" y="340" type="curve" smooth="yes"/>
      <point x="728" y="564"/>
      <point x="607" y="695"/>
      <point x="380" y="695" type="curve" smooth="yes"/>
      <point x="152" y="695"/>
      <point x="31" y="564"/>
      <point x="31" y="340" type="curve" smooth="yes"/>
      <point x="31" y="116"/>
      <point x="152" y="-15"/>
      <point x="380" y="-15" type="curve" smooth="yes"/>
    </contour>
    <contour>
      <point x="257" y="104"/>
      <point x="195" y="185"/>
      <point x="195" y="340" type="curve" smooth="yes"/>
      <point x="195" y="495"/>
      <point x="257" y="576"/>
      <point x="380" y="576" type="curve" smooth="yes"/>
      <point x="502" y="576"/>
      <point x="564" y="495"/>
      <point x="564" y="340" type="curve" smooth="yes"/>
      <point x="564" y="185"/>
      <point x="502" y="104"/>
      <point x="380" y="104" type="curve" smooth="yes"/>
    </contour>
    <contour>
      <point x="436" y="747" type="line" smooth="yes"/>
      <point x="462" y="747"/>
      <point x="469" y="761"/>
      <point x="462" y="781" type="curve" smooth="yes"/>
      <point x="416" y="907" type="line" smooth="yes"/>
      <point x="408" y="929"/>
      <point x="403" y="936"/>
      <point x="371" y="936" type="curve" smooth="yes"/>
      <point x="275" y="936" type="line" smooth="yes"/>
      <point x="248" y="936"/>
      <point x="234" y="923"/>
      <point x="248" y="897" type="curve" smooth="yes"/>
      <point x="314" y="775" type="line" smooth="yes"/>
      <point x="326" y="753"/>
      <point x="333" y="747"/>
      <point x="366" y="747" type="curve" smooth="yes"/>
    </contour>
  </outline>
</glyph>
<glyph name="Oacute" format="1">
  <advance width="759"/>
  <unicode hex="00D3"/>
  <note>
	Oacute
  </note>
  <outline>
    <contour>
      <point x="607" y="-15"/>
      <point x="728" y="116"/>
      <point x="728" y="340" type="curve" smooth="yes"/>
      <point x="728" y="564"/>
      <point x="607" y="695"/>
      <point x="380" y="695" type="curve" smooth="yes"/>
      <point x="152" y="695"/>
      <point x="31" y="564"/>
      <point x="31" y="340" type="curve" smooth="yes"/>
      <point x="31" y="116"/>
      <point x="152" y="-15"/>
      <point x="380" y="-15" type="curve" smooth="yes"/>
    </contour>
    <contour>
      <point x="257" y="104"/>
      <point x="195" y="185"/>
      <point x="195" y="340" type="curve" smooth="yes"/>
      <point x="195" y="495"/>
      <point x="257" y="576"/>
      <point x="380" y="576" type="curve" smooth="yes"/>
      <point x="502" y="576"/>
      <point x="564" y="495"/>
      <point x="564" y="340" type="curve" smooth="yes"/>
      <point x="564" y="185"/>
      <point x="502" y="104"/>
      <point x="380" y="104" type="curve" smooth="yes"/>
    </contour>
    <contour>
      <point x="405" y="747" type="line" smooth="yes"/>
      <point x="438" y="747"/>
      <point x="446" y="753"/>
      <point x="458" y="775" type="curve" smooth="yes"/>
      <point x="523" y="897" type="line" smooth="yes"/>
      <point x="537" y="923"/>
      <point x="524" y="936"/>
      <point x="497" y="936" type="curve" smooth="yes"/>
      <point x="400" y="936" type="line" smooth="yes"/>
      <point x="369" y="936"/>
      <point x="363" y="928"/>
      <point x="355" y="907" type="curve" smooth="yes"/>
      <point x="310" y="781" type="line" smooth="yes"/>
      <point x="303" y="761"/>
      <point x="309" y="747"/>
      <point x="335" y="747" type="curve" smooth="yes"/>
    </contour>
  </outline>
</glyph>
<glyph name="Otilde" format="1">
  <advance width="759"/>
  <unicode hex="00D5"/>
  <note>
	Otilde
  </note>
  <outline>
    <contour>
      <point x="607" y="-15"/>
      <point x="728" y="116"/>
      <point x="728" y="340" type="curve" smooth="yes"/>
      <point x="728" y="564"/>
      <point x="607" y="695"/>
      <point x="380" y="695" type="curve" smooth="yes"/>
      <point x="152" y="695"/>
      <point x="31" y="564"/>
      <point x="31" y="340" type="curve" smooth="yes"/>
      <point x="31" y="116"/>
      <point x="152" y="-15"/>
      <point x="380" y="-15" type="curve" smooth="yes"/>
    </contour>
    <contour>
      <point x="257" y="104"/>
      <point x="195" y="185"/>
      <point x="195" y="340" type="curve" smooth="yes"/>
      <point x="195" y="495"/>
      <point x="257" y="576"/>
      <point x="380" y="576" type="curve" smooth="yes"/>
      <point x="502" y="576"/>
      <point x="564" y="495"/>
      <point x="564" y="340" type="curve" smooth="yes"/>
      <point x="564" y="185"/>
      <point x="502" y="104"/>
      <point x="380" y="104" type="curve" smooth="yes"/>
    </contour>
    <contour>
      <point x="536" y="754"/>
      <point x="568" y="779"/>
      <point x="603" y="831" type="curve" smooth="yes"/>
      <point x="622" y="858"/>
      <point x="619" y="872"/>
      <point x="588" y="896" type="curve" smooth="yes"/>
      <point x="556" y="920"/>
      <point x="538" y="924"/>
      <point x="523" y="905" type="curve" smooth="yes"/>
      <point x="502" y="879"/>
      <point x="490" y="870"/>
      <point x="464" y="870" type="curve" smooth="yes"/>
      <point x="412" y="870"/>
      <point x="373" y="921"/>
      <point x="293" y="921" type="curve" smooth="yes"/>
      <point x="239" y="921"/>
      <point x="208" y="892"/>
      <point x="175" y="848" type="curve" smooth="yes"/>
      <point x="156" y="822"/>
      <point x="159" y="808"/>
      <point x="188" y="785" type="curve" smooth="yes"/>
      <point x="219" y="760"/>
      <point x="237" y="755"/>
      <point x="252" y="773" type="curve" smooth="yes"/>
      <point x="272" y="796"/>
      <point x="284" y="805"/>
      <point x="310" y="805" type="curve" smooth="yes"/>
      <point x="362" y="805"/>
      <point x="412" y="754"/>
      <point x="477" y="754" type="curve" smooth="yes"/>
    </contour>
  </outline>
</glyph>
<glyph name="multiply" format="1">
  <advance width="396"/>
  <unicode hex="00D7"/>
  <note>
	multiply
  </note>
  <outline>
    <contour>
      <point x="218" y="219" type="line"/>
      <point x="290" y="148" type="line" smooth="yes"/>
      <point x="311" y="128"/>
      <point x="325" y="130"/>
      <point x="344" y="149" type="curve" smooth="yes"/>
      <point x="371" y="175" type="line" smooth="yes"/>
      <point x="390" y="193"/>
      <point x="393" y="209"/>
      <point x="372" y="230" type="curve" smooth="yes"/>
      <point x="301" y="301" type="line"/>
      <point x="372" y="372" type="line" smooth="yes"/>
      <point x="393" y="393"/>
      <point x="390" y="409"/>
      <point x="371" y="427" type="curve" smooth="yes"/>
      <point x="344" y="454" type="line" smooth="yes"/>
      <point x="326" y="473"/>
      <point x="310" y="476"/>
      <point x="290" y="455" type="curve" smooth="yes"/>
      <point x="218" y="383" type="line"/>
      <point x="147" y="455" type="line" smooth="yes"/>
      <point x="126" y="476"/>
      <point x="111" y="473"/>
      <point x="92" y="454" type="curve" smooth="yes"/>
      <point x="65" y="427" type="line" smooth="yes"/>
      <point x="47" y="409"/>
      <point x="44" y="393"/>
      <point x="65" y="372" type="curve" smooth="yes"/>
      <point x="136" y="301" type="line"/>
      <point x="65" y="230" type="line" smooth="yes"/>
      <point x="44" y="209"/>
      <point x="47" y="194"/>
      <point x="66" y="175" type="curve" smooth="yes"/>
      <point x="93" y="149" type="line"/>
      <point x="111" y="130"/>
      <point x="127" y="127"/>
      <point x="147" y="148" type="curve" smooth="yes"/>
    </contour>
  </outline>
</glyph>
<glyph name="Oslash" format="1">
  <advance width="759"/>
  <unicode hex="00D8"/>
  <note>
	Oslash
  </note>
  <outline>
    <contour>
      <point x="607" y="-15"/>
      <point x="728" y="116"/>
      <point x="728" y="340" type="curve" smooth="yes"/>
      <point x="728" y="564"/>
      <point x="607" y="695"/>
      <point x="380" y="695" type="curve" smooth="yes"/>
      <point x="152" y="695"/>
      <point x="31" y="564"/>
      <point x="31" y="340" type="curve" smooth="yes"/>
      <point x="31" y="116"/>
      <point x="152" y="-15"/>
      <point x="380" y="-15" type="curve" smooth="yes"/>
    </contour>
    <contour>
      <point x="257" y="-86" type="line" smooth="yes"/>
      <point x="273" y="-86"/>
      <point x="281" y="-78"/>
      <point x="286" y="-66" type="curve" smooth="yes"/>
      <point x="605" y="720" type="line" smooth="yes"/>
      <point x="612" y="737"/>
      <point x="611" y="751"/>
      <point x="592" y="751" type="curve" smooth="yes"/>
      <point x="494" y="751" type="line" smooth="yes"/>
      <point x="477" y="751"/>
      <point x="469" y="743"/>
      <point x="464" y="731" type="curve" smooth="yes"/>
      <point x="145" y="-55" type="line" smooth="yes"/>
      <point x="138" y="-72"/>
      <point x="140" y="-86"/>
      <point x="158" y="-86" type="curve" smooth="yes"/>
    </contour>
    <contour>
      <point x="257" y="104"/>
      <point x="195" y="185"/>
      <point x="195" y="340" type="curve" smooth="yes"/>
      <point x="195" y="495"/>
      <point x="257" y="576"/>
      <point x="380" y="576" type="curve" smooth="yes"/>
      <point x="502" y="576"/>
      <point x="564" y="495"/>
      <point x="564" y="340" type="curve" smooth="yes"/>
      <point x="564" y="185"/>
      <point x="502" y="104"/>
      <point x="380" y="104" type="curve" smooth="yes"/>
    </contour>
  </outline>
</glyph>
<glyph name="Ugrave" format="1">
  <advance width="716"/>
  <unicode hex="00D9"/>
  <note>
	Ugrave
  </note>
  <outline>
    <contour>
      <point x="542" y="-15"/>
      <point x="670" y="82"/>
      <point x="670" y="243" type="curve" smooth="yes"/>
      <point x="670" y="636" type="line" smooth="yes"/>
      <point x="670" y="665"/>
      <point x="658" y="680"/>
      <point x="624" y="680" type="curve" smooth="yes"/>
      <point x="549" y="680" type="line" smooth="yes"/>
      <point x="516" y="680"/>
      <point x="504" y="665"/>
      <point x="504" y="636" type="curve" smooth="yes"/>
      <point x="504" y="240" type="line" smooth="yes"/>
      <point x="504" y="153"/>
      <point x="450" y="104"/>
      <point x="358" y="104" type="curve" smooth="yes"/>
      <point x="266" y="104"/>
      <point x="211" y="153"/>
      <point x="211" y="240" type="curve" smooth="yes"/>
      <point x="211" y="636" type="line" smooth="yes"/>
      <point x="211" y="665"/>
      <point x="200" y="680"/>
      <point x="166" y="680" type="curve" smooth="yes"/>
      <point x="91" y="680" type="line" smooth="yes"/>
      <point x="58" y="680"/>
      <point x="46" y="665"/>
      <point x="46" y="636" type="curve" smooth="yes"/>
      <point x="46" y="243" type="line" smooth="yes"/>
      <point x="46" y="82"/>
      <point x="173" y="-15"/>
      <point x="358" y="-15" type="curve" smooth="yes"/>
    </contour>
    <contour>
      <point x="422" y="747" type="line" smooth="yes"/>
      <point x="448" y="747"/>
      <point x="455" y="761"/>
      <point x="448" y="781" type="curve" smooth="yes"/>
      <point x="402" y="907" type="line" smooth="yes"/>
      <point x="394" y="929"/>
      <point x="389" y="936"/>
      <point x="357" y="936" type="curve" smooth="yes"/>
      <point x="261" y="936" type="line" smooth="yes"/>
      <point x="234" y="936"/>
      <point x="220" y="923"/>
      <point x="234" y="897" type="curve" smooth="yes"/>
      <point x="300" y="775" type="line" smooth="yes"/>
      <point x="312" y="753"/>
      <point x="319" y="747"/>
      <point x="352" y="747" type="curve" smooth="yes"/>
    </contour>
  </outline>
</glyph>
<glyph name="Uacute" format="1">
  <advance width="716"/>
  <unicode hex="00DA"/>
  <note>
	Uacute
  </note>
  <outline>
    <contour>
      <point x="542" y="-15"/>
      <point x="670" y="82"/>
      <point x="670" y="243" type="curve" smooth="yes"/>
      <point x="670" y="636" type="line" smooth="yes"/>
      <point x="670" y="665"/>
      <point x="658" y="680"/>
      <point x="624" y="680" type="curve" smooth="yes"/>
      <point x="549" y="680" type="line" smooth="yes"/>
      <point x="516" y="680"/>
      <point x="504" y="665"/>
      <point x="504" y="636" type="curve" smooth="yes"/>
      <point x="504" y="240" type="line" smooth="yes"/>
      <point x="504" y="153"/>
      <point x="450" y="104"/>
      <point x="358" y="104" type="curve" smooth="yes"/>
      <point x="266" y="104"/>
      <point x="211" y="153"/>
      <point x="211" y="240" type="curve" smooth="yes"/>
      <point x="211" y="636" type="line" smooth="yes"/>
      <point x="211" y="665"/>
      <point x="200" y="680"/>
      <point x="166" y="680" type="curve" smooth="yes"/>
      <point x="91" y="680" type="line" smooth="yes"/>
      <point x="58" y="680"/>
      <point x="46" y="665"/>
      <point x="46" y="636" type="curve" smooth="yes"/>
      <point x="46" y="243" type="line" smooth="yes"/>
      <point x="46" y="82"/>
      <point x="173" y="-15"/>
      <point x="358" y="-15" type="curve" smooth="yes"/>
    </contour>
    <contour>
      <point x="387" y="747" type="line" smooth="yes"/>
      <point x="420" y="747"/>
      <point x="428" y="753"/>
      <point x="440" y="775" type="curve" smooth="yes"/>
      <point x="505" y="897" type="line" smooth="yes"/>
      <point x="519" y="923"/>
      <point x="506" y="936"/>
      <point x="479" y="936" type="curve" smooth="yes"/>
      <point x="382" y="936" type="line" smooth="yes"/>
      <point x="351" y="936"/>
      <point x="345" y="928"/>
      <point x="337" y="907" type="curve" smooth="yes"/>
      <point x="292" y="781" type="line" smooth="yes"/>
      <point x="285" y="761"/>
      <point x="291" y="747"/>
      <point x="317" y="747" type="curve" smooth="yes"/>
    </contour>
  </outline>
</glyph>
<glyph name="Yacute" format="1">
  <advance width="722"/>
  <unicode hex="00DD"/>
  <note>
	Yacute
  </note>
  <outline>
    <contour>
      <point x="398" y="0" type="line" smooth="yes"/>
      <point x="432" y="0"/>
      <point x="444" y="14"/>
      <point x="444" y="43" type="curve" smooth="yes"/>
      <point x="444" y="231" type="line"/>
      <point x="686" y="647" type="line" smooth="yes"/>
      <point x="695" y="663"/>
      <point x="691" y="680"/>
      <point x="671" y="680" type="curve" smooth="yes"/>
      <point x="550" y="680" type="line" smooth="yes"/>
      <point x="531" y="680"/>
      <point x="526" y="672"/>
      <point x="519" y="660" type="curve" smooth="yes"/>
      <point x="361" y="383" type="line"/>
      <point x="203" y="660" type="line" smooth="yes"/>
      <point x="196" y="672"/>
      <point x="191" y="680"/>
      <point x="171" y="680" type="curve" smooth="yes"/>
      <point x="51" y="680" type="line" smooth="yes"/>
      <point x="31" y="680"/>
      <point x="26" y="663"/>
      <point x="36" y="647" type="curve" smooth="yes"/>
      <point x="278" y="232" type="line"/>
      <point x="278" y="43" type="line" smooth="yes"/>
      <point x="278" y="14"/>
      <point x="290" y="0"/>
      <point x="323" y="0" type="curve" smooth="yes"/>
    </contour>
    <contour>
      <point x="395" y="747" type="line" smooth="yes"/>
      <point x="428" y="747"/>
      <point x="436" y="753"/>
      <point x="448" y="775" type="curve" smooth="yes"/>
      <point x="513" y="897" type="line" smooth="yes"/>
      <point x="527" y="923"/>
      <point x="514" y="936"/>
      <point x="487" y="936" type="curve" smooth="yes"/>
      <point x="390" y="936" type="line" smooth="yes"/>
      <point x="359" y="936"/>
      <point x="353" y="928"/>
      <point x="345" y="907" type="curve" smooth="yes"/>
      <point x="300" y="781" type="line" smooth="yes"/>
      <point x="293" y="761"/>
      <point x="299" y="747"/>
      <point x="325" y="747" type="curve" smooth="yes"/>
    </contour>
  </outline>
</glyph>
<glyph name="Thorn" format="1">
  <advance width="634"/>
  <unicode hex="00DE"/>
  <note>
	Thorn
  </note>
  <outline>
    <contour>
      <point x="171" y="0" type="line" smooth="yes"/>
      <point x="205" y="0"/>
      <point x="216" y="14"/>
      <point x="216" y="43" type="curve" smooth="yes"/>
      <point x="216" y="111" type="line"/>
      <point x="346" y="111" type="line" smooth="yes"/>
      <point x="525" y="111"/>
      <point x="603" y="193"/>
      <point x="603" y="340" type="curve" smooth="yes"/>
      <point x="603" y="486"/>
      <point x="525" y="570"/>
      <point x="346" y="570" type="curve" smooth="yes"/>
      <point x="216" y="570" type="line"/>
      <point x="216" y="636" type="line" smooth="yes"/>
      <point x="216" y="665"/>
      <point x="205" y="680"/>
      <point x="171" y="680" type="curve" smooth="yes"/>
      <point x="96" y="680" type="line" smooth="yes"/>
      <point x="63" y="680"/>
      <point x="51" y="665"/>
      <point x="51" y="636" type="curve" smooth="yes"/>
      <point x="51" y="43" type="line" smooth="yes"/>
      <point x="51" y="14"/>
      <point x="63" y="0"/>
      <point x="96" y="0" type="curve" smooth="yes"/>
    </contour>
    <contour>
      <point x="217" y="448" type="line"/>
      <point x="335" y="448" type="line" smooth="yes"/>
      <point x="403" y="448"/>
      <point x="439" y="413"/>
      <point x="439" y="340" type="curve" smooth="yes"/>
      <point x="439" y="267"/>
      <point x="403" y="232"/>
      <point x="335" y="232" type="curve" smooth="yes"/>
      <point x="217" y="232" type="line"/>
    </contour>
  </outline>
</glyph>
<glyph name="agrave" format="1">
  <advance width="617"/>
  <unicode hex="00E0"/>
  <note>
	agrave
  </note>
  <outline>
    <contour>
      <point x="323" y="-15"/>
      <point x="379" y="5"/>
      <point x="419" y="52" type="curve"/>
      <point x="430" y="17" type="line" smooth="yes"/>
      <point x="434" y="5"/>
      <point x="440" y="0"/>
      <point x="455" y="0" type="curve" smooth="yes"/>
      <point x="534" y="0" type="line" smooth="yes"/>
      <point x="559" y="0"/>
      <point x="566" y="7"/>
      <point x="566" y="29" type="curve" smooth="yes"/>
      <point x="566" y="433" type="line"/>
      <point x="510" y="470"/>
      <point x="441" y="495"/>
      <point x="341" y="495" type="curve" smooth="yes"/>
      <point x="156" y="495"/>
      <point x="31" y="384"/>
      <point x="31" y="214" type="curve" smooth="yes"/>
      <point x="31" y="66"/>
      <point x="116" y="-15"/>
      <point x="242" y="-15" type="curve" smooth="yes"/>
    </contour>
    <contour>
      <point x="231" y="99"/>
      <point x="195" y="136"/>
      <point x="195" y="217" type="curve" smooth="yes"/>
      <point x="195" y="322"/>
      <point x="253" y="382"/>
      <point x="340" y="382" type="curve" smooth="yes"/>
      <point x="367" y="382"/>
      <point x="392" y="377"/>
      <point x="412" y="367" type="curve"/>
      <point x="412" y="192" type="line" smooth="yes"/>
      <point x="412" y="132"/>
      <point x="358" y="99"/>
      <point x="303" y="99" type="curve" smooth="yes"/>
    </contour>
    <contour>
      <point x="406" y="545" type="line" smooth="yes"/>
      <point x="432" y="545"/>
      <point x="439" y="559"/>
      <point x="432" y="579" type="curve" smooth="yes"/>
      <point x="386" y="705" type="line" smooth="yes"/>
      <point x="378" y="727"/>
      <point x="373" y="734"/>
      <point x="341" y="734" type="curve" smooth="yes"/>
      <point x="245" y="734" type="line" smooth="yes"/>
      <point x="218" y="734"/>
      <point x="204" y="721"/>
      <point x="218" y="695" type="curve" smooth="yes"/>
      <point x="284" y="573" type="line" smooth="yes"/>
      <point x="296" y="551"/>
      <point x="303" y="545"/>
      <point x="336" y="545" type="curve" smooth="yes"/>
    </contour>
  </outline>
</glyph>
<glyph name="aring" format="1">
  <advance width="617"/>
  <unicode hex="00E5"/>
  <note>
	aring
  </note>
  <outline>
    <contour>
      <point x="323" y="-15"/>
      <point x="379" y="5"/>
      <point x="419" y="52" type="curve"/>
      <point x="430" y="17" type="line" smooth="yes"/>
      <point x="434" y="5"/>
      <point x="440" y="0"/>
      <point x="455" y="0" type="curve" smooth="yes"/>
      <point x="534" y="0" type="line" smooth="yes"/>
      <point x="559" y="0"/>
      <point x="566" y="7"/>
      <point x="566" y="29" type="curve" smooth="yes"/>
      <point x="566" y="433" type="line"/>
      <point x="510" y="470"/>
      <point x="441" y="495"/>
      <point x="341" y="495" type="curve" smooth="yes"/>
      <point x="156" y="495"/>
      <point x="31" y="384"/>
      <point x="31" y="214" type="curve" smooth="yes"/>
      <point x="31" y="66"/>
      <point x="116" y="-15"/>
      <point x="242" y="-15" type="curve" smooth="yes"/>
    </contour>
    <contour>
      <point x="231" y="99"/>
      <point x="195" y="136"/>
      <point x="195" y="217" type="curve" smooth="yes"/>
      <point x="195" y="322"/>
      <point x="253" y="382"/>
      <point x="340" y="382" type="curve" smooth="yes"/>
      <point x="367" y="382"/>
      <point x="392" y="377"/>
      <point x="412" y="367" type="curve"/>
      <point x="412" y="192" type="line" smooth="yes"/>
      <point x="412" y="132"/>
      <point x="358" y="99"/>
      <point x="303" y="99" type="curve" smooth="yes"/>
    </contour>
    <contour>
      <point x="407" y="544"/>
      <point x="461" y="597"/>
      <point x="461" y="664" type="curve" smooth="yes"/>
      <point x="461" y="731"/>
      <point x="407" y="785"/>
      <point x="340" y="785" type="curve" smooth="yes"/>
      <point x="273" y="785"/>
      <point x="220" y="731"/>
      <point x="220" y="664" type="curve" smooth="yes"/>
      <point x="220" y="597"/>
      <point x="273" y="544"/>
      <point x="340" y="544" type="curve" smooth="yes"/>
    </contour>
    <contour>
      <point x="314" y="618"/>
      <point x="294" y="638"/>
      <point x="294" y="664" type="curve" smooth="yes"/>
      <point x="294" y="689"/>
      <point x="314" y="710"/>
      <point x="340" y="710" type="curve" smooth="yes"/>
      <point x="365" y="710"/>
      <point x="386" y="689"/>
      <point x="386" y="664" type="curve" smooth="yes"/>
      <point x="386" y="638"/>
      <point x="365" y="618"/>
      <point x="340" y="618" type="curve" smooth="yes"/>
    </contour>
  </outline>
</glyph>
<glyph name="egrave" format="1">
  <advance width="596"/>
  <unicode hex="00E8"/>
  <note>
	egrave
  </note>
  <outline>
    <contour>
      <point x="401" y="-15"/>
      <point x="466" y="-1"/>
      <point x="521" y="35" type="curve" smooth="yes"/>
      <point x="533" y="43"/>
      <point x="535" y="51"/>
      <point x="528" y="63" type="curve"/>
      <point x="499" y="117" type="line" smooth="yes"/>
      <point x="493" y="128"/>
      <point x="487" y="131"/>
      <point x="472" y="123" type="curve" smooth="yes"/>
      <point x="439" y="105"/>
      <point x="400" y="90"/>
      <point x="339" y="90" type="curve" smooth="yes"/>
      <point x="245" y="90"/>
      <point x="187" y="130"/>
      <point x="187" y="203" type="curve"/>
      <point x="527" y="203" type="line" smooth="yes"/>
      <point x="553" y="203"/>
      <point x="565" y="217"/>
      <point x="565" y="245" type="curve" smooth="yes"/>
      <point x="565" y="402"/>
      <point x="478" y="495"/>
      <point x="303" y="495" type="curve" smooth="yes"/>
      <point x="129" y="495"/>
      <point x="31" y="405"/>
      <point x="31" y="233" type="curve" smooth="yes"/>
      <point x="31" y="64"/>
      <point x="159" y="-15"/>
      <point x="316" y="-15" type="curve" smooth="yes"/>
    </contour>
    <contour>
      <point x="187" y="352"/>
      <point x="226" y="395"/>
      <point x="304" y="395" type="curve" smooth="yes"/>
      <point x="382" y="395"/>
      <point x="417" y="354"/>
      <point x="417" y="289" type="curve"/>
      <point x="187" y="289" type="line"/>
    </contour>
    <contour>
      <point x="366" y="545" type="line" smooth="yes"/>
      <point x="392" y="545"/>
      <point x="399" y="559"/>
      <point x="392" y="579" type="curve" smooth="yes"/>
      <point x="346" y="705" type="line" smooth="yes"/>
      <point x="338" y="727"/>
      <point x="333" y="734"/>
      <point x="301" y="734" type="curve" smooth="yes"/>
      <point x="205" y="734" type="line" smooth="yes"/>
      <point x="178" y="734"/>
      <point x="164" y="721"/>
      <point x="178" y="695" type="curve" smooth="yes"/>
      <point x="244" y="573" type="line" smooth="yes"/>
      <point x="256" y="551"/>
      <point x="263" y="545"/>
      <point x="296" y="545" type="curve" smooth="yes"/>
    </contour>
  </outline>
</glyph>
<glyph name="edieresis" format="1">
  <advance width="596"/>
  <unicode hex="00EB"/>
  <note>
	edieresis
  </note>
  <outline>
    <contour>
      <point x="401" y="-15"/>
      <point x="466" y="-1"/>
      <point x="521" y="35" type="curve" smooth="yes"/>
      <point x="533" y="43"/>
      <point x="535" y="51"/>
      <point x="528" y="63" type="curve"/>
      <point x="499" y="117" type="line" smooth="yes"/>
      <point x="493" y="128"/>
      <point x="487" y="131"/>
      <point x="472" y="123" type="curve" smooth="yes"/>
      <point x="439" y="105"/>
      <point x="400" y="90"/>
      <point x="339" y="90" type="curve" smooth="yes"/>
      <point x="245" y="90"/>
      <point x="187" y="130"/>
      <point x="187" y="203" type="curve"/>
      <point x="527" y="203" type="line" smooth="yes"/>
      <point x="553" y="203"/>
      <point x="565" y="217"/>
      <point x="565" y="245" type="curve" smooth="yes"/>
      <point x="565" y="402"/>
      <point x="478" y="495"/>
      <point x="303" y="495" type="curve" smooth="yes"/>
      <point x="129" y="495"/>
      <point x="31" y="405"/>
      <point x="31" y="233" type="curve" smooth="yes"/>
      <point x="31" y="64"/>
      <point x="159" y="-15"/>
      <point x="316" y="-15" type="curve" smooth="yes"/>
    </contour>
    <contour>
      <point x="187" y="352"/>
      <point x="226" y="395"/>
      <point x="304" y="395" type="curve" smooth="yes"/>
      <point x="382" y="395"/>
      <point x="417" y="354"/>
      <point x="417" y="289" type="curve"/>
      <point x="187" y="289" type="line"/>
    </contour>
    <contour>
      <point x="224" y="523" type="line" smooth="yes"/>
      <point x="257" y="523"/>
      <point x="278" y="549"/>
      <point x="278" y="580" type="curve" smooth="yes"/>
      <point x="278" y="602" type="line" smooth="yes"/>
      <point x="278" y="634"/>
      <point x="256" y="659"/>
      <point x="224" y="659" type="curve" smooth="yes"/>
      <point x="201" y="659" type="line" smooth="yes"/>
      <point x="169" y="659"/>
      <point x="147" y="634"/>
      <point x="147" y="602" type="curve" smooth="yes"/>
      <point x="147" y="580" type="line" smooth="yes"/>
      <point x="147" y="549"/>
      <point x="169" y="523"/>
      <point x="201" y="523" type="curve" smooth="yes"/>
    </contour>
    <contour>
      <point x="430" y="523" type="line" smooth="yes"/>
      <point x="463" y="523"/>
      <point x="484" y="549"/>
      <point x="484" y="580" type="curve" smooth="yes"/>
      <point x="484" y="602" type="line" smooth="yes"/>
      <point x="484" y="634"/>
      <point x="462" y="659"/>
      <point x="430" y="659" type="curve" smooth="yes"/>
      <point x="406" y="659" type="line" smooth="yes"/>
      <point x="375" y="659"/>
      <point x="352" y="634"/>
      <point x="352" y="602" type="curve" smooth="yes"/>
      <point x="352" y="580" type="line" smooth="yes"/>
      <point x="352" y="549"/>
      <point x="375" y="523"/>
      <point x="406" y="523" type="curve" smooth="yes"/>
    </contour>
  </outline>
</glyph>
<glyph name="igrave" format="1">
  <advance width="285"/>
  <unicode hex="00EC"/>
  <note>
	igrave
  </note>
  <outline>
    <contour>
      <point x="180" y="0" type="line" smooth="yes"/>
      <point x="214" y="0"/>
      <point x="225" y="14"/>
      <point x="225" y="43" type="curve" smooth="yes"/>
      <point x="225" y="436" type="line" smooth="yes"/>
      <point x="225" y="465"/>
      <point x="214" y="480"/>
      <point x="180" y="480" type="curve" smooth="yes"/>
      <point x="105" y="480" type="line" smooth="yes"/>
      <point x="72" y="480"/>
      <point x="60" y="465"/>
      <point x="60" y="436" type="curve" smooth="yes"/>
      <point x="60" y="43" type="line" smooth="yes"/>
      <point x="60" y="14"/>
      <point x="72" y="0"/>
      <point x="105" y="0" type="curve" smooth="yes"/>
    </contour>
    <contour>
      <point x="189" y="545" type="line" smooth="yes"/>
      <point x="215" y="545"/>
      <point x="222" y="559"/>
      <point x="215" y="579" type="curve" smooth="yes"/>
      <point x="169" y="705" type="line" smooth="yes"/>
      <point x="161" y="727"/>
      <point x="156" y="734"/>
      <point x="124" y="734" type="curve" smooth="yes"/>
      <point x="28" y="734" type="line" smooth="yes"/>
      <point x="1" y="734"/>
      <point x="-13" y="721"/>
      <point x="1" y="695" type="curve" smooth="yes"/>
      <point x="67" y="573" type="line" smooth="yes"/>
      <point x="79" y="551"/>
      <point x="86" y="545"/>
      <point x="119" y="545" type="curve" smooth="yes"/>
    </contour>
  </outline>
</glyph>
<glyph name="iacute" format="1">
  <advance width="275"/>
  <unicode hex="00ED"/>
  <note>
	iacute
  </note>
  <outline>
    <contour>
      <point x="175" y="0" type="line" smooth="yes"/>
      <point x="209" y="0"/>
      <point x="220" y="14"/>
      <point x="220" y="43" type="curve" smooth="yes"/>
      <point x="220" y="436" type="line" smooth="yes"/>
      <point x="220" y="465"/>
      <point x="209" y="480"/>
      <point x="175" y="480" type="curve" smooth="yes"/>
      <point x="100" y="480" type="line" smooth="yes"/>
      <point x="67" y="480"/>
      <point x="55" y="465"/>
      <point x="55" y="436" type="curve" smooth="yes"/>
      <point x="55" y="43" type="line" smooth="yes"/>
      <point x="55" y="14"/>
      <point x="67" y="0"/>
      <point x="100" y="0" type="curve" smooth="yes"/>
    </contour>
    <contour>
      <point x="156" y="545" type="line" smooth="yes"/>
      <point x="189" y="545"/>
      <point x="197" y="551"/>
      <point x="209" y="573" type="curve" smooth="yes"/>
      <point x="274" y="695" type="line" smooth="yes"/>
      <point x="288" y="721"/>
      <point x="275" y="734"/>
      <point x="248" y="734" type="curve" smooth="yes"/>
      <point x="151" y="734" type="line" smooth="yes"/>
      <point x="120" y="734"/>
      <point x="114" y="726"/>
      <point x="106" y="705" type="curve" smooth="yes"/>
      <point x="61" y="579" type="line" smooth="yes"/>
      <point x="54" y="559"/>
      <point x="60" y="545"/>
      <point x="86" y="545" type="curve" smooth="yes"/>
    </contour>
  </outline>
</glyph>
<glyph name="icircumflex" format="1">
  <advance width="285"/>
  <unicode hex="00EE"/>
  <note>
	icircumflex
  </note>
  <outline>
    <contour>
      <point x="180" y="0" type="line" smooth="yes"/>
      <point x="214" y="0"/>
      <point x="225" y="14"/>
      <point x="225" y="43" type="curve" smooth="yes"/>
      <point x="225" y="436" type="line" smooth="yes"/>
      <point x="225" y="465"/>
      <point x="214" y="480"/>
      <point x="180" y="480" type="curve" smooth="yes"/>
      <point x="105" y="480" type="line" smooth="yes"/>
      <point x="72" y="480"/>
      <point x="60" y="465"/>
      <point x="60" y="436" type="curve" smooth="yes"/>
      <point x="60" y="43" type="line" smooth="yes"/>
      <point x="60" y="14"/>
      <point x="72" y="0"/>
      <point x="105" y="0" type="curve" smooth="yes"/>
    </contour>
    <contour>
      <point x="35" y="532" type="line" smooth="yes"/>
      <point x="64" y="532"/>
      <point x="72" y="539"/>
      <point x="83" y="556" type="curve" smooth="yes"/>
      <point x="142" y="644" type="line"/>
      <point x="201" y="556" type="line" smooth="yes"/>
      <point x="212" y="539"/>
      <point x="220" y="532"/>
      <point x="249" y="532" type="curve" smooth="yes"/>
      <point x="310" y="532" type="line" smooth="yes"/>
      <point x="336" y="532"/>
      <point x="345" y="548"/>
      <point x="327" y="572" type="curve" smooth="yes"/>
      <point x="227" y="705" type="line" smooth="yes"/>
      <point x="214" y="722"/>
      <point x="210" y="729"/>
      <point x="181" y="729" type="curve" smooth="yes"/>
      <point x="102" y="729" type="line" smooth="yes"/>
      <point x="73" y="729"/>
      <point x="70" y="722"/>
      <point x="56" y="705" type="curve"/>
      <point x="-44" y="572" type="line" smooth="yes"/>
      <point x="-62" y="548"/>
      <point x="-52" y="532"/>
      <point x="-26" y="532" type="curve" smooth="yes"/>
    </contour>
  </outline>
</glyph>
<glyph name="ograve" format="1">
  <advance width="623"/>
  <unicode hex="00F2"/>
  <note>
	ograve
  </note>
  <outline>
    <contour>
      <point x="492" y="-15"/>
      <point x="592" y="85"/>
      <point x="592" y="240" type="curve" smooth="yes"/>
      <point x="592" y="395"/>
      <point x="492" y="495"/>
      <point x="311" y="495" type="curve" smooth="yes"/>
      <point x="131" y="495"/>
      <point x="31" y="395"/>
      <point x="31" y="240" type="curve" smooth="yes"/>
      <point x="31" y="85"/>
      <point x="131" y="-15"/>
      <point x="311" y="-15" type="curve" smooth="yes"/>
    </contour>
    <contour>
      <point x="237" y="104"/>
      <point x="195" y="149"/>
      <point x="195" y="240" type="curve" smooth="yes"/>
      <point x="195" y="331"/>
      <point x="237" y="375"/>
      <point x="311" y="375" type="curve" smooth="yes"/>
      <point x="386" y="375"/>
      <point x="428" y="331"/>
      <point x="428" y="240" type="curve" smooth="yes"/>
      <point x="428" y="149"/>
      <point x="386" y="104"/>
      <point x="311" y="104" type="curve" smooth="yes"/>
    </contour>
    <contour>
      <point x="362" y="545" type="line" smooth="yes"/>
      <point x="388" y="545"/>
      <point x="395" y="559"/>
      <point x="388" y="579" type="curve" smooth="yes"/>
      <point x="342" y="705" type="line" smooth="yes"/>
      <point x="334" y="727"/>
      <point x="329" y="734"/>
      <point x="297" y="734" type="curve" smooth="yes"/>
      <point x="201" y="734" type="line" smooth="yes"/>
      <point x="174" y="734"/>
      <point x="160" y="721"/>
      <point x="174" y="695" type="curve" smooth="yes"/>
      <point x="240" y="573" type="line" smooth="yes"/>
      <point x="252" y="551"/>
      <point x="259" y="545"/>
      <point x="292" y="545" type="curve" smooth="yes"/>
    </contour>
  </outline>
</glyph>
<glyph name="otilde" format="1">
  <advance width="623"/>
  <unicode hex="00F5"/>
  <note>
	otilde
  </note>
  <outline>
    <contour>
      <point x="492" y="-15"/>
      <point x="592" y="85"/>
      <point x="592" y="240" type="curve" smooth="yes"/>
      <point x="592" y="395"/>
      <point x="492" y="495"/>
      <point x="311" y="495" type="curve" smooth="yes"/>
      <point x="131" y="495"/>
      <point x="31" y="395"/>
      <point x="31" y="240" type="curve" smooth="yes"/>
      <point x="31" y="85"/>
      <point x="131" y="-15"/>
      <point x="311" y="-15" type="curve" smooth="yes"/>
    </contour>
    <contour>
      <point x="237" y="104"/>
      <point x="195" y="149"/>
      <point x="195" y="240" type="curve" smooth="yes"/>
      <point x="195" y="331"/>
      <point x="237" y="375"/>
      <point x="311" y="375" type="curve" smooth="yes"/>
      <point x="386" y="375"/>
      <point x="428" y="331"/>
      <point x="428" y="240" type="curve" smooth="yes"/>
      <point x="428" y="149"/>
      <point x="386" y="104"/>
      <point x="311" y="104" type="curve" smooth="yes"/>
    </contour>
    <contour>
      <point x="467" y="558"/>
      <point x="499" y="583"/>
      <point x="534" y="635" type="curve" smooth="yes"/>
      <point x="553" y="662"/>
      <point x="550" y="676"/>
      <point x="519" y="700" type="curve" smooth="yes"/>
      <point x="487" y="724"/>
      <point x="469" y="728"/>
      <point x="454" y="709" type="curve" smooth="yes"/>
      <point x="433" y="683"/>
      <point x="421" y="674"/>
      <point x="395" y="674" type="curve" smooth="yes"/>
      <point x="343" y="674"/>
      <point x="304" y="725"/>
      <point x="224" y="725" type="curve" smooth="yes"/>
      <point x="170" y="725"/>
      <point x="139" y="696"/>
      <point x="106" y="652" type="curve" smooth="yes"/>
      <point x="87" y="626"/>
      <point x="90" y="612"/>
      <point x="119" y="589" type="curve" smooth="yes"/>
      <point x="150" y="564"/>
      <point x="168" y="559"/>
      <point x="183" y="577" type="curve" smooth="yes"/>
      <point x="203" y="600"/>
      <point x="215" y="609"/>
      <point x="241" y="609" type="curve" smooth="yes"/>
      <point x="293" y="609"/>
      <point x="343" y="558"/>
      <point x="408" y="558" type="curve" smooth="yes"/>
    </contour>
  </outline>
</glyph>
<glyph name="odieresis" format="1">
  <advance width="623"/>
  <unicode hex="00F6"/>
  <note>
	odieresis
  </note>
  <outline>
    <contour>
      <point x="492" y="-15"/>
      <point x="592" y="85"/>
      <point x="592" y="240" type="curve" smooth="yes"/>
      <point x="592" y="395"/>
      <point x="492" y="495"/>
      <point x="311" y="495" type="curve" smooth="yes"/>
      <point x="131" y="495"/>
      <point x="31" y="395"/>
      <point x="31" y="240" type="curve" smooth="yes"/>
      <point x="31" y="85"/>
      <point x="131" y="-15"/>
      <point x="311" y="-15" type="curve" smooth="yes"/>
    </contour>
    <contour>
      <point x="237" y="104"/>
      <point x="195" y="149"/>
      <point x="195" y="240" type="curve" smooth="yes"/>
      <point x="195" y="331"/>
      <point x="237" y="375"/>
      <point x="311" y="375" type="curve" smooth="yes"/>
      <point x="386" y="375"/>
      <point x="428" y="331"/>
      <point x="428" y="240" type="curve" smooth="yes"/>
      <point x="428" y="149"/>
      <point x="386" y="104"/>
      <point x="311" y="104" type="curve" smooth="yes"/>
    </contour>
    <contour>
      <point x="219" y="541" type="line" smooth="yes"/>
      <point x="252" y="541"/>
      <point x="273" y="567"/>
      <point x="273" y="598" type="curve" smooth="yes"/>
      <point x="273" y="620" type="line" smooth="yes"/>
      <point x="273" y="652"/>
      <point x="251" y="677"/>
      <point x="219" y="677" type="curve" smooth="yes"/>
      <point x="196" y="677" type="line" smooth="yes"/>
      <point x="164" y="677"/>
      <point x="142" y="652"/>
      <point x="142" y="620" type="curve" smooth="yes"/>
      <point x="142" y="598" type="line" smooth="yes"/>
      <point x="142" y="567"/>
      <point x="164" y="541"/>
      <point x="196" y="541" type="curve" smooth="yes"/>
    </contour>
    <contour>
      <point x="425" y="541" type="line" smooth="yes"/>
      <point x="458" y="541"/>
      <point x="479" y="567"/>
      <point x="479" y="598" type="curve" smooth="yes"/>
      <point x="479" y="620" type="line" smooth="yes"/>
      <point x="479" y="652"/>
      <point x="457" y="677"/>
      <point x="425" y="677" type="curve" smooth="yes"/>
      <point x="401" y="677" type="line" smooth="yes"/>
      <point x="370" y="677"/>
      <point x="347" y="652"/>
      <point x="347" y="620" type="curve" smooth="yes"/>
      <point x="347" y="598" type="line" smooth="yes"/>
      <point x="347" y="567"/>
      <point x="370" y="541"/>
      <point x="401" y="541" type="curve" smooth="yes"/>
    </contour>
  </outline>
</glyph>
<glyph name="divide" format="1">
  <advance width="470"/>
  <unicode hex="00F7"/>
  <note>
	divide
  </note>
  <outline>
    <contour>
      <point x="401" y="240" type="line" smooth="yes"/>
      <point x="430" y="240"/>
      <point x="439" y="253"/>
      <point x="439" y="279" type="curve" smooth="yes"/>
      <point x="439" y="323" type="line" smooth="yes"/>
      <point x="439" y="349"/>
      <point x="430" y="362"/>
      <point x="401" y="362" type="curve" smooth="yes"/>
      <point x="69" y="362" type="line" smooth="yes"/>
      <point x="39" y="362"/>
      <point x="31" y="349"/>
      <point x="31" y="323" type="curve" smooth="yes"/>
      <point x="31" y="279" type="line" smooth="yes"/>
      <point x="31" y="253"/>
      <point x="39" y="240"/>
      <point x="69" y="240" type="curve" smooth="yes"/>
    </contour>
    <contour>
      <point x="242" y="83" type="line" smooth="yes"/>
      <point x="271" y="83"/>
      <point x="290" y="106"/>
      <point x="290" y="133" type="curve" smooth="yes"/>
      <point x="290" y="154" type="line" smooth="yes"/>
      <point x="290" y="182"/>
      <point x="270" y="204"/>
      <point x="242" y="204" type="curve" smooth="yes"/>
      <point x="221" y="204" type="line" smooth="yes"/>
      <point x="193" y="204"/>
      <point x="173" y="182"/>
      <point x="173" y="154" type="curve" smooth="yes"/>
      <point x="173" y="133" type="line" smooth="yes"/>
      <point x="173" y="106"/>
      <point x="193" y="83"/>
      <point x="221" y="83" type="curve" smooth="yes"/>
    </contour>
    <contour>
      <point x="242" y="398" type="line" smooth="yes"/>
      <point x="271" y="398"/>
      <point x="290" y="421"/>
      <point x="290" y="448" type="curve" smooth="yes"/>
      <point x="290" y="469" type="line" smooth="yes"/>
      <point x="290" y="497"/>
      <point x="270" y="519"/>
      <point x="242" y="519" type="curve" smooth="yes"/>
      <point x="221" y="519" type="line" smooth="yes"/>
      <point x="193" y="519"/>
      <point x="173" y="497"/>
      <point x="173" y="469" type="curve" smooth="yes"/>
      <point x="173" y="448" type="line" smooth="yes"/>
      <point x="173" y="421"/>
      <point x="193" y="398"/>
      <point x="221" y="398" type="curve" smooth="yes"/>
    </contour>
  </outline>
</glyph>
<glyph name="ugrave" format="1">
  <advance width="597"/>
  <unicode hex="00F9"/>
  <note>
	ugrave
  </note>
  <outline>
    <contour>
      <point x="310" y="-15"/>
      <point x="369" y="13"/>
      <point x="408" y="54" type="curve"/>
      <point x="412" y="17" type="line" smooth="yes"/>
      <point x="413" y="4"/>
      <point x="422" y="0"/>
      <point x="436" y="0" type="curve" smooth="yes"/>
      <point x="516" y="0" type="line" smooth="yes"/>
      <point x="541" y="0"/>
      <point x="546" y="7"/>
      <point x="546" y="29" type="curve" smooth="yes"/>
      <point x="546" y="436" type="line" smooth="yes"/>
      <point x="546" y="465"/>
      <point x="534" y="480"/>
      <point x="500" y="480" type="curve" smooth="yes"/>
      <point x="426" y="480" type="line" smooth="yes"/>
      <point x="392" y="480"/>
      <point x="380" y="465"/>
      <point x="380" y="436" type="curve" smooth="yes"/>
      <point x="380" y="181" type="line" smooth="yes"/>
      <point x="380" y="130"/>
      <point x="342" y="99"/>
      <point x="288" y="99" type="curve" smooth="yes"/>
      <point x="238" y="99"/>
      <point x="211" y="121"/>
      <point x="211" y="174" type="curve" smooth="yes"/>
      <point x="211" y="436" type="line" smooth="yes"/>
      <point x="211" y="465"/>
      <point x="200" y="480"/>
      <point x="166" y="480" type="curve" smooth="yes"/>
      <point x="91" y="480" type="line" smooth="yes"/>
      <point x="58" y="480"/>
      <point x="46" y="465"/>
      <point x="46" y="436" type="curve" smooth="yes"/>
      <point x="46" y="168" type="line" smooth="yes"/>
      <point x="46" y="42"/>
      <point x="122" y="-15"/>
      <point x="227" y="-15" type="curve" smooth="yes"/>
    </contour>
    <contour>
      <point x="365" y="545" type="line" smooth="yes"/>
      <point x="391" y="545"/>
      <point x="398" y="559"/>
      <point x="391" y="579" type="curve" smooth="yes"/>
      <point x="345" y="705" type="line" smooth="yes"/>
      <point x="337" y="727"/>
      <point x="332" y="734"/>
      <point x="300" y="734" type="curve" smooth="yes"/>
      <point x="204" y="734" type="line" smooth="yes"/>
      <point x="177" y="734"/>
      <point x="163" y="721"/>
      <point x="177" y="695" type="curve" smooth="yes"/>
      <point x="243" y="573" type="line" smooth="yes"/>
      <point x="255" y="551"/>
      <point x="262" y="545"/>
      <point x="295" y="545" type="curve" smooth="yes"/>
    </contour>
  </outline>
</glyph>
<glyph name="uacute" format="1">
  <advance width="597"/>
  <unicode hex="00FA"/>
  <note>
	uacute
  </note>
  <outline>
    <contour>
      <point x="310" y="-15"/>
      <point x="369" y="13"/>
      <point x="408" y="54" type="curve"/>
      <point x="412" y="17" type="line" smooth="yes"/>
      <point x="413" y="4"/>
      <point x="422" y="0"/>
      <point x="436" y="0" type="curve" smooth="yes"/>
      <point x="516" y="0" type="line" smooth="yes"/>
      <point x="541" y="0"/>
      <point x="546" y="7"/>
      <point x="546" y="29" type="curve" smooth="yes"/>
      <point x="546" y="436" type="line" smooth="yes"/>
      <point x="546" y="465"/>
      <point x="534" y="480"/>
      <point x="500" y="480" type="curve" smooth="yes"/>
      <point x="426" y="480" type="line" smooth="yes"/>
      <point x="392" y="480"/>
      <point x="380" y="465"/>
      <point x="380" y="436" type="curve" smooth="yes"/>
      <point x="380" y="181" type="line" smooth="yes"/>
      <point x="380" y="130"/>
      <point x="342" y="99"/>
      <point x="288" y="99" type="curve" smooth="yes"/>
      <point x="238" y="99"/>
      <point x="211" y="121"/>
      <point x="211" y="174" type="curve" smooth="yes"/>
      <point x="211" y="436" type="line" smooth="yes"/>
      <point x="211" y="465"/>
      <point x="200" y="480"/>
      <point x="166" y="480" type="curve" smooth="yes"/>
      <point x="91" y="480" type="line" smooth="yes"/>
      <point x="58" y="480"/>
      <point x="46" y="465"/>
      <point x="46" y="436" type="curve" smooth="yes"/>
      <point x="46" y="168" type="line" smooth="yes"/>
      <point x="46" y="42"/>
      <point x="122" y="-15"/>
      <point x="227" y="-15" type="curve" smooth="yes"/>
    </contour>
    <contour>
      <point x="314" y="545" type="line" smooth="yes"/>
      <point x="347" y="545"/>
      <point x="355" y="551"/>
      <point x="367" y="573" type="curve" smooth="yes"/>
      <point x="432" y="695" type="line" smooth="yes"/>
      <point x="446" y="721"/>
      <point x="433" y="734"/>
      <point x="406" y="734" type="curve" smooth="yes"/>
      <point x="309" y="734" type="line" smooth="yes"/>
      <point x="278" y="734"/>
      <point x="272" y="726"/>
      <point x="264" y="705" type="curve" smooth="yes"/>
      <point x="219" y="579" type="line" smooth="yes"/>
      <point x="212" y="559"/>
      <point x="218" y="545"/>
      <point x="244" y="545" type="curve" smooth="yes"/>
    </contour>
  </outline>
</glyph>
<glyph name="udieresis" format="1">
  <advance width="597"/>
  <unicode hex="00FC"/>
  <note>
	udieresis
  </note>
  <outline>
    <contour>
      <point x="310" y="-15"/>
      <point x="369" y="13"/>
      <point x="408" y="54" type="curve"/>
      <point x="412" y="17" type="line" smooth="yes"/>
      <point x="413" y="4"/>
      <point x="422" y="0"/>
      <point x="436" y="0" type="curve" smooth="yes"/>
      <point x="516" y="0" type="line" smooth="yes"/>
      <point x="541" y="0"/>
      <point x="546" y="7"/>
      <point x="546" y="29" type="curve" smooth="yes"/>
      <point x="546" y="436" type="line" smooth="yes"/>
      <point x="546" y="465"/>
      <point x="534" y="480"/>
      <point x="500" y="480" type="curve" smooth="yes"/>
      <point x="426" y="480" type="line" smooth="yes"/>
      <point x="392" y="480"/>
      <point x="380" y="465"/>
      <point x="380" y="436" type="curve" smooth="yes"/>
      <point x="380" y="181" type="line" smooth="yes"/>
      <point x="380" y="130"/>
      <point x="342" y="99"/>
      <point x="288" y="99" type="curve" smooth="yes"/>
      <point x="238" y="99"/>
      <point x="211" y="121"/>
      <point x="211" y="174" type="curve" smooth="yes"/>
      <point x="211" y="436" type="line" smooth="yes"/>
      <point x="211" y="465"/>
      <point x="200" y="480"/>
      <point x="166" y="480" type="curve" smooth="yes"/>
      <point x="91" y="480" type="line" smooth="yes"/>
      <point x="58" y="480"/>
      <point x="46" y="465"/>
      <point x="46" y="436" type="curve" smooth="yes"/>
      <point x="46" y="168" type="line" smooth="yes"/>
      <point x="46" y="42"/>
      <point x="122" y="-15"/>
      <point x="227" y="-15" type="curve" smooth="yes"/>
    </contour>
    <contour>
      <point x="208" y="546" type="line" smooth="yes"/>
      <point x="241" y="546"/>
      <point x="262" y="572"/>
      <point x="262" y="603" type="curve" smooth="yes"/>
      <point x="262" y="625" type="line" smooth="yes"/>
      <point x="262" y="657"/>
      <point x="240" y="682"/>
      <point x="208" y="682" type="curve" smooth="yes"/>
      <point x="185" y="682" type="line" smooth="yes"/>
      <point x="153" y="682"/>
      <point x="131" y="657"/>
      <point x="131" y="625" type="curve" smooth="yes"/>
      <point x="131" y="603" type="line" smooth="yes"/>
      <point x="131" y="572"/>
      <point x="153" y="546"/>
      <point x="185" y="546" type="curve" smooth="yes"/>
    </contour>
    <contour>
      <point x="414" y="546" type="line" smooth="yes"/>
      <point x="447" y="546"/>
      <point x="468" y="572"/>
      <point x="468" y="603" type="curve" smooth="yes"/>
      <point x="468" y="625" type="line" smooth="yes"/>
      <point x="468" y="657"/>
      <point x="446" y="682"/>
      <point x="414" y="682" type="curve" smooth="yes"/>
      <point x="390" y="682" type="line" smooth="yes"/>
      <point x="359" y="682"/>
      <point x="336" y="657"/>
      <point x="336" y="625" type="curve" smooth="yes"/>
      <point x="336" y="603" type="line" smooth="yes"/>
      <point x="336" y="572"/>
      <point x="359" y="546"/>
      <point x="390" y="546" type="curve" smooth="yes"/>
    </contour>
  </outline>
</glyph>
<glyph name="yacute" format="1">
  <advance width="601"/>
  <unicode hex="00FD"/>
  <note>
	yacute
  </note>
  <outline>
    <contour>
      <point x="288" y="-156"/>
      <point x="332" y="-93"/>
      <point x="399" y="49" type="curve" smooth="yes"/>
      <point x="586" y="447" type="line" smooth="yes"/>
      <point x="594" y="464"/>
      <point x="591" y="480"/>
      <point x="572" y="480" type="curve" smooth="yes"/>
      <point x="456" y="480" type="line" smooth="yes"/>
      <point x="437" y="480"/>
      <point x="429" y="473"/>
      <point x="423" y="458" type="curve" smooth="yes"/>
      <point x="313" y="187" type="line"/>
      <point x="203" y="458" type="line" smooth="yes"/>
      <point x="197" y="473"/>
      <point x="189" y="480"/>
      <point x="170" y="480" type="curve" smooth="yes"/>
      <point x="54" y="480" type="line" smooth="yes"/>
      <point x="35" y="480"/>
      <point x="32" y="464"/>
      <point x="40" y="447" type="curve" smooth="yes"/>
      <point x="238" y="27" type="line"/>
      <point x="222" y="-15"/>
      <point x="207" y="-39"/>
      <point x="170" y="-39" type="curve" smooth="yes"/>
      <point x="141" y="-39"/>
      <point x="123" y="-30"/>
      <point x="104" y="-17" type="curve" smooth="yes"/>
      <point x="90" y="-8"/>
      <point x="82" y="-8"/>
      <point x="74" y="-22" type="curve" smooth="yes"/>
      <point x="40" y="-81" type="line" smooth="yes"/>
      <point x="33" y="-94"/>
      <point x="32" y="-101"/>
      <point x="44" y="-111" type="curve" smooth="yes"/>
      <point x="76" y="-138"/>
      <point x="122" y="-156"/>
      <point x="179" y="-156" type="curve" smooth="yes"/>
    </contour>
    <contour>
      <point x="330" y="557" type="line" smooth="yes"/>
      <point x="363" y="557"/>
      <point x="371" y="563"/>
      <point x="383" y="585" type="curve" smooth="yes"/>
      <point x="448" y="707" type="line" smooth="yes"/>
      <point x="462" y="733"/>
      <point x="449" y="746"/>
      <point x="422" y="746" type="curve" smooth="yes"/>
      <point x="325" y="746" type="line" smooth="yes"/>
      <point x="294" y="746"/>
      <point x="288" y="738"/>
      <point x="280" y="717" type="curve" smooth="yes"/>
      <point x="235" y="591" type="line" smooth="yes"/>
      <point x="228" y="571"/>
      <point x="234" y="557"/>
      <point x="260" y="557" type="curve" smooth="yes"/>
    </contour>
  </outline>
</glyph>
<glyph name="ydieresis" format="1">
  <advance width="601"/>
  <unicode hex="00FF"/>
  <note>
	ydieresis
  </note>
  <outline>
    <contour>
      <point x="219" y="541" type="line" smooth="yes"/>
      <point x="252" y="541"/>
      <point x="273" y="567"/>
      <point x="273" y="598" type="curve" smooth="yes"/>
      <point x="273" y="620" type="line" smooth="yes"/>
      <point x="273" y="652"/>
      <point x="251" y="677"/>
      <point x="219" y="677" type="curve" smooth="yes"/>
      <point x="196" y="677" type="line" smooth="yes"/>
      <point x="164" y="677"/>
      <point x="142" y="652"/>
      <point x="142" y="620" type="curve" smooth="yes"/>
      <point x="142" y="598" type="line" smooth="yes"/>
      <point x="142" y="567"/>
      <point x="164" y="541"/>
      <point x="196" y="541" type="curve" smooth="yes"/>
    </contour>
    <contour>
      <point x="425" y="541" type="line" smooth="yes"/>
      <point x="458" y="541"/>
      <point x="479" y="567"/>
      <point x="479" y="598" type="curve" smooth="yes"/>
      <point x="479" y="620" type="line" smooth="yes"/>
      <point x="479" y="652"/>
      <point x="457" y="677"/>
      <point x="425" y="677" type="curve" smooth="yes"/>
      <point x="401" y="677" type="line" smooth="yes"/>
      <point x="370" y="677"/>
      <point x="347" y="652"/>
      <point x="347" y="620" type="curve" smooth="yes"/>
      <point x="347" y="598" type="line" smooth="yes"/>
      <point x="347" y="567"/>
      <point x="370" y="541"/>
      <point x="401" y="541" type="curve" smooth="yes"/>
    </contour>
    <contour>
      <point x="288" y="-156"/>
      <point x="332" y="-93"/>
      <point x="399" y="49" type="curve" smooth="yes"/>
      <point x="586" y="447" type="line" smooth="yes"/>
      <point x="594" y="464"/>
      <point x="591" y="480"/>
      <point x="572" y="480" type="curve" smooth="yes"/>
      <point x="456" y="480" type="line" smooth="yes"/>
      <point x="437" y="480"/>
      <point x="429" y="473"/>
      <point x="423" y="458" type="curve" smooth="yes"/>
      <point x="313" y="187" type="line"/>
      <point x="203" y="458" type="line" smooth="yes"/>
      <point x="197" y="473"/>
      <point x="189" y="480"/>
      <point x="170" y="480" type="curve" smooth="yes"/>
      <point x="54" y="480" type="line" smooth="yes"/>
      <point x="35" y="480"/>
      <point x="32" y="464"/>
      <point x="40" y="447" type="curve" smooth="yes"/>
      <point x="238" y="27" type="line"/>
      <point x="222" y="-15"/>
      <point x="207" y="-39"/>
      <point x="170" y="-39" type="curve" smooth="yes"/>
      <point x="141" y="-39"/>
      <point x="123" y="-30"/>
      <point x="104" y="-17" type="curve" smooth="yes"/>
      <point x="90" y="-8"/>
      <point x="82" y="-8"/>
      <point x="74" y="-22" type="curve" smooth="yes"/>
      <point x="40" y="-81" type="line" smooth="yes"/>
      <point x="33" y="-94"/>
      <point x="32" y="-101"/>
      <point x="44" y="-111" type="curve" smooth="yes"/>
      <point x="76" y="-138"/>
      <point x="122" y="-156"/>
      <point x="179" y="-156" type="curve" smooth="yes"/>
    </contour>
  </outline>
</glyph>
<glyph name="Abreve" format="1">
  <advance width="740"/>
  <unicode hex="0102"/>
  <note>
	Abreve
  </note>
  <outline>
    <contour>
      <point x="171" y="0" type="line" smooth="yes"/>
      <point x="190" y="0"/>
      <point x="197" y="6"/>
      <point x="203" y="21" type="curve" smooth="yes"/>
      <point x="248" y="139" type="line"/>
      <point x="491" y="139" type="line"/>
      <point x="537" y="21" type="line" smooth="yes"/>
      <point x="543" y="6"/>
      <point x="550" y="0"/>
      <point x="569" y="0" type="curve" smooth="yes"/>
      <point x="690" y="0" type="line" smooth="yes"/>
      <point x="709" y="0"/>
      <point x="712" y="15"/>
      <point x="705" y="33" type="curve" smooth="yes"/>
      <point x="446" y="650" type="line" smooth="yes"/>
      <point x="437" y="672"/>
      <point x="429" y="680"/>
      <point x="407" y="680" type="curve" smooth="yes"/>
      <point x="334" y="680" type="line" smooth="yes"/>
      <point x="312" y="680"/>
      <point x="303" y="672"/>
      <point x="294" y="650" type="curve" smooth="yes"/>
      <point x="35" y="33" type="line" smooth="yes"/>
      <point x="28" y="15"/>
      <point x="31" y="0"/>
      <point x="50" y="0" type="curve" smooth="yes"/>
    </contour>
    <contour>
      <point x="370" y="470" type="line"/>
      <point x="453" y="254" type="line"/>
      <point x="286" y="254" type="line"/>
    </contour>
    <contour>
      <point x="489" y="750"/>
      <point x="547" y="822"/>
      <point x="547" y="918" type="curve" smooth="yes"/>
      <point x="547" y="929"/>
      <point x="541" y="936"/>
      <point x="531" y="936" type="curve" smooth="yes"/>
      <point x="444" y="936" type="line" smooth="yes"/>
      <point x="430" y="936"/>
      <point x="427" y="929"/>
      <point x="427" y="917" type="curve" smooth="yes"/>
      <point x="427" y="880"/>
      <point x="412" y="855"/>
      <point x="370" y="855" type="curve" smooth="yes"/>
      <point x="327" y="855"/>
      <point x="313" y="880"/>
      <point x="313" y="917" type="curve" smooth="yes"/>
      <point x="313" y="929"/>
      <point x="310" y="936"/>
      <point x="296" y="936" type="curve" smooth="yes"/>
      <point x="209" y="936" type="line" smooth="yes"/>
      <point x="199" y="936"/>
      <point x="193" y="929"/>
      <point x="193" y="918" type="curve" smooth="yes"/>
      <point x="193" y="822"/>
      <point x="250" y="750"/>
      <point x="370" y="750" type="curve" smooth="yes"/>
    </contour>
  </outline>
</glyph>
<glyph name="abreve" format="1">
  <advance width="617"/>
  <unicode hex="0103"/>
  <note>
	abreve
  </note>
  <outline>
    <contour>
      <point x="323" y="-15"/>
      <point x="379" y="5"/>
      <point x="419" y="52" type="curve"/>
      <point x="430" y="17" type="line" smooth="yes"/>
      <point x="434" y="5"/>
      <point x="440" y="0"/>
      <point x="455" y="0" type="curve" smooth="yes"/>
      <point x="534" y="0" type="line" smooth="yes"/>
      <point x="559" y="0"/>
      <point x="566" y="7"/>
      <point x="566" y="29" type="curve" smooth="yes"/>
      <point x="566" y="433" type="line"/>
      <point x="510" y="470"/>
      <point x="441" y="495"/>
      <point x="341" y="495" type="curve" smooth="yes"/>
      <point x="156" y="495"/>
      <point x="31" y="384"/>
      <point x="31" y="214" type="curve" smooth="yes"/>
      <point x="31" y="66"/>
      <point x="116" y="-15"/>
      <point x="242" y="-15" type="curve" smooth="yes"/>
    </contour>
    <contour>
      <point x="231" y="99"/>
      <point x="195" y="136"/>
      <point x="195" y="217" type="curve" smooth="yes"/>
      <point x="195" y="322"/>
      <point x="253" y="382"/>
      <point x="340" y="382" type="curve" smooth="yes"/>
      <point x="367" y="382"/>
      <point x="392" y="377"/>
      <point x="412" y="367" type="curve"/>
      <point x="412" y="192" type="line" smooth="yes"/>
      <point x="412" y="132"/>
      <point x="358" y="99"/>
      <point x="303" y="99" type="curve" smooth="yes"/>
    </contour>
    <contour>
      <point x="458" y="554"/>
      <point x="516" y="626"/>
      <point x="516" y="722" type="curve" smooth="yes"/>
      <point x="516" y="733"/>
      <point x="510" y="740"/>
      <point x="500" y="740" type="curve" smooth="yes"/>
      <point x="413" y="740" type="line" smooth="yes"/>
      <point x="399" y="740"/>
      <point x="396" y="733"/>
      <point x="396" y="721" type="curve" smooth="yes"/>
      <point x="396" y="684"/>
      <point x="381" y="659"/>
      <point x="339" y="659" type="curve" smooth="yes"/>
      <point x="296" y="659"/>
      <point x="282" y="684"/>
      <point x="282" y="721" type="curve" smooth="yes"/>
      <point x="282" y="733"/>
      <point x="279" y="740"/>
      <point x="265" y="740" type="curve" smooth="yes"/>
      <point x="178" y="740" type="line" smooth="yes"/>
      <point x="168" y="740"/>
      <point x="162" y="733"/>
      <point x="162" y="722" type="curve" smooth="yes"/>
      <point x="162" y="626"/>
      <point x="219" y="554"/>
      <point x="339" y="554" type="curve" smooth="yes"/>
    </contour>
  </outline>
</glyph>
<glyph name="aogonek" format="1">
  <advance width="617"/>
  <unicode hex="0105"/>
  <note>
	aogonek
  </note>
  <outline>
    <contour>
      <point x="323" y="-15"/>
      <point x="379" y="5"/>
      <point x="419" y="52" type="curve"/>
      <point x="430" y="17" type="line" smooth="yes"/>
      <point x="434" y="5"/>
      <point x="440" y="0"/>
      <point x="455" y="0" type="curve" smooth="yes"/>
      <point x="534" y="0" type="line" smooth="yes"/>
      <point x="559" y="0"/>
      <point x="566" y="7"/>
      <point x="566" y="29" type="curve" smooth="yes"/>
      <point x="566" y="433" type="line"/>
      <point x="510" y="470"/>
      <point x="441" y="495"/>
      <point x="341" y="495" type="curve" smooth="yes"/>
      <point x="156" y="495"/>
      <point x="31" y="384"/>
      <point x="31" y="214" type="curve" smooth="yes"/>
      <point x="31" y="66"/>
      <point x="116" y="-15"/>
      <point x="242" y="-15" type="curve" smooth="yes"/>
    </contour>
    <contour>
      <point x="505" y="-210"/>
      <point x="533" y="-207"/>
      <point x="555" y="-196" type="curve" smooth="yes"/>
      <point x="568" y="-190"/>
      <point x="568" y="-186"/>
      <point x="565" y="-179" type="curve" smooth="yes"/>
      <point x="547" y="-140" type="line" smooth="yes"/>
      <point x="544" y="-133"/>
      <point x="540" y="-132"/>
      <point x="533" y="-135" type="curve"/>
      <point x="527" y="-138"/>
      <point x="520" y="-139"/>
      <point x="511" y="-139" type="curve" smooth="yes"/>
      <point x="495" y="-139"/>
      <point x="487" y="-130"/>
      <point x="487" y="-112" type="curve" smooth="yes"/>
      <point x="487" y="-83"/>
      <point x="500" y="-62"/>
      <point x="547" y="-7" type="curve" smooth="yes"/>
      <point x="554" y="1"/>
      <point x="549" y="9"/>
      <point x="537" y="9" type="curve" smooth="yes"/>
      <point x="459" y="9" type="line" smooth="yes"/>
      <point x="446" y="9"/>
      <point x="442" y="5"/>
      <point x="434" y="-4" type="curve" smooth="yes"/>
      <point x="390" y="-54"/>
      <point x="373" y="-91"/>
      <point x="373" y="-127" type="curve" smooth="yes"/>
      <point x="373" y="-172"/>
      <point x="402" y="-210"/>
      <point x="467" y="-210" type="curve" smooth="yes"/>
    </contour>
    <contour>
      <point x="231" y="99"/>
      <point x="195" y="136"/>
      <point x="195" y="217" type="curve" smooth="yes"/>
      <point x="195" y="322"/>
      <point x="253" y="382"/>
      <point x="340" y="382" type="curve" smooth="yes"/>
      <point x="367" y="382"/>
      <point x="392" y="377"/>
      <point x="412" y="367" type="curve"/>
      <point x="412" y="192" type="line" smooth="yes"/>
      <point x="412" y="132"/>
      <point x="358" y="99"/>
      <point x="303" y="99" type="curve" smooth="yes"/>
    </contour>
  </outline>
</glyph>
<glyph name="Cacute" format="1">
  <advance width="678"/>
  <unicode hex="0106"/>
  <note>
	Cacute
  </note>
  <outline>
    <contour>
      <point x="501" y="-15"/>
      <point x="583" y="2"/>
      <point x="637" y="41" type="curve" smooth="yes"/>
      <point x="650" y="51"/>
      <point x="652" y="55"/>
      <point x="645" y="68" type="curve" smooth="yes"/>
      <point x="606" y="135" type="line" smooth="yes"/>
      <point x="597" y="150"/>
      <point x="590" y="148"/>
      <point x="575" y="140" type="curve" smooth="yes"/>
      <point x="536" y="118"/>
      <point x="488" y="104"/>
      <point x="417" y="104" type="curve" smooth="yes"/>
      <point x="286" y="104"/>
      <point x="195" y="177"/>
      <point x="195" y="340" type="curve" smooth="yes"/>
      <point x="195" y="500"/>
      <point x="278" y="576"/>
      <point x="412" y="576" type="curve" smooth="yes"/>
      <point x="480" y="576"/>
      <point x="529" y="559"/>
      <point x="563" y="540" type="curve" smooth="yes"/>
      <point x="578" y="532"/>
      <point x="585" y="530"/>
      <point x="594" y="545" type="curve" smooth="yes"/>
      <point x="629" y="606" type="line" smooth="yes"/>
      <point x="637" y="620"/>
      <point x="638" y="630"/>
      <point x="625" y="639" type="curve" smooth="yes"/>
      <point x="571" y="675"/>
      <point x="489" y="695"/>
      <point x="392" y="695" type="curve" smooth="yes"/>
      <point x="162" y="695"/>
      <point x="31" y="572"/>
      <point x="31" y="340" type="curve" smooth="yes"/>
      <point x="31" y="108"/>
      <point x="167" y="-15"/>
      <point x="396" y="-15" type="curve" smooth="yes"/>
    </contour>
    <contour>
      <point x="400" y="747" type="line" smooth="yes"/>
      <point x="433" y="747"/>
      <point x="441" y="753"/>
      <point x="453" y="775" type="curve" smooth="yes"/>
      <point x="518" y="897" type="line" smooth="yes"/>
      <point x="532" y="923"/>
      <point x="519" y="936"/>
      <point x="492" y="936" type="curve" smooth="yes"/>
      <point x="395" y="936" type="line" smooth="yes"/>
      <point x="364" y="936"/>
      <point x="358" y="928"/>
      <point x="350" y="907" type="curve" smooth="yes"/>
      <point x="305" y="781" type="line" smooth="yes"/>
      <point x="298" y="761"/>
      <point x="304" y="747"/>
      <point x="330" y="747" type="curve" smooth="yes"/>
    </contour>
  </outline>
</glyph>
<glyph name="ccircumflex" format="1">
  <advance width="563"/>
  <unicode hex="0109"/>
  <note>
	ccircumflex
  </note>
  <outline>
    <contour>
      <point x="408" y="-15"/>
      <point x="467" y="4"/>
      <point x="520" y="38" type="curve" smooth="yes"/>
      <point x="534" y="47"/>
      <point x="535" y="54"/>
      <point x="527" y="67" type="curve" smooth="yes"/>
      <point x="490" y="130" type="line" smooth="yes"/>
      <point x="481" y="145"/>
      <point x="475" y="145"/>
      <point x="459" y="135" type="curve" smooth="yes"/>
      <point x="427" y="114"/>
      <point x="391" y="99"/>
      <point x="337" y="99" type="curve" smooth="yes"/>
      <point x="247" y="99"/>
      <point x="195" y="145"/>
      <point x="195" y="239" type="curve" smooth="yes"/>
      <point x="195" y="327"/>
      <point x="247" y="382"/>
      <point x="331" y="382" type="curve" smooth="yes"/>
      <point x="385" y="382"/>
      <point x="417" y="368"/>
      <point x="452" y="346" type="curve" smooth="yes"/>
      <point x="467" y="337"/>
      <point x="474" y="336"/>
      <point x="483" y="351" type="curve" smooth="yes"/>
      <point x="517" y="410" type="line" smooth="yes"/>
      <point x="525" y="424"/>
      <point x="526" y="434"/>
      <point x="513" y="443" type="curve" smooth="yes"/>
      <point x="464" y="477"/>
      <point x="408" y="495"/>
      <point x="318" y="495" type="curve" smooth="yes"/>
      <point x="139" y="495"/>
      <point x="31" y="391"/>
      <point x="31" y="239" type="curve" smooth="yes"/>
      <point x="31" y="73"/>
      <point x="137" y="-15"/>
      <point x="318" y="-15" type="curve" smooth="yes"/>
    </contour>
    <contour>
      <point x="203" y="544" type="line" smooth="yes"/>
      <point x="232" y="544"/>
      <point x="240" y="551"/>
      <point x="251" y="568" type="curve" smooth="yes"/>
      <point x="310" y="656" type="line"/>
      <point x="369" y="568" type="line" smooth="yes"/>
      <point x="380" y="551"/>
      <point x="388" y="544"/>
      <point x="417" y="544" type="curve" smooth="yes"/>
      <point x="478" y="544" type="line" smooth="yes"/>
      <point x="504" y="544"/>
      <point x="513" y="560"/>
      <point x="495" y="584" type="curve" smooth="yes"/>
      <point x="395" y="717" type="line" smooth="yes"/>
      <point x="382" y="734"/>
      <point x="378" y="741"/>
      <point x="349" y="741" type="curve" smooth="yes"/>
      <point x="270" y="741" type="line" smooth="yes"/>
      <point x="241" y="741"/>
      <point x="238" y="734"/>
      <point x="224" y="717" type="curve"/>
      <point x="124" y="584" type="line" smooth="yes"/>
      <point x="106" y="560"/>
      <point x="116" y="544"/>
      <point x="142" y="544" type="curve" smooth="yes"/>
    </contour>
  </outline>
</glyph>
<glyph name="cdotaccent" format="1">
  <advance width="563"/>
  <unicode hex="010B"/>
  <note>
	cdotaccent
  </note>
  <outline>
    <contour>
      <point x="408" y="-15"/>
      <point x="467" y="4"/>
      <point x="520" y="38" type="curve" smooth="yes"/>
      <point x="534" y="47"/>
      <point x="535" y="54"/>
      <point x="527" y="67" type="curve" smooth="yes"/>
      <point x="490" y="130" type="line" smooth="yes"/>
      <point x="481" y="145"/>
      <point x="475" y="145"/>
      <point x="459" y="135" type="curve" smooth="yes"/>
      <point x="427" y="114"/>
      <point x="391" y="99"/>
      <point x="337" y="99" type="curve" smooth="yes"/>
      <point x="247" y="99"/>
      <point x="195" y="145"/>
      <point x="195" y="239" type="curve" smooth="yes"/>
      <point x="195" y="327"/>
      <point x="247" y="382"/>
      <point x="331" y="382" type="curve" smooth="yes"/>
      <point x="385" y="382"/>
      <point x="417" y="368"/>
      <point x="452" y="346" type="curve" smooth="yes"/>
      <point x="467" y="337"/>
      <point x="474" y="336"/>
      <point x="483" y="351" type="curve" smooth="yes"/>
      <point x="517" y="410" type="line" smooth="yes"/>
      <point x="525" y="424"/>
      <point x="526" y="434"/>
      <point x="513" y="443" type="curve" smooth="yes"/>
      <point x="464" y="477"/>
      <point x="408" y="495"/>
      <point x="318" y="495" type="curve" smooth="yes"/>
      <point x="139" y="495"/>
      <point x="31" y="391"/>
      <point x="31" y="239" type="curve" smooth="yes"/>
      <point x="31" y="73"/>
      <point x="137" y="-15"/>
      <point x="318" y="-15" type="curve" smooth="yes"/>
    </contour>
    <contour>
      <point x="321" y="559" type="line" smooth="yes"/>
      <point x="353" y="559"/>
      <point x="375" y="585"/>
      <point x="375" y="616" type="curve" smooth="yes"/>
      <point x="375" y="638" type="line" smooth="yes"/>
      <point x="375" y="670"/>
      <point x="352" y="695"/>
      <point x="321" y="695" type="curve" smooth="yes"/>
      <point x="297" y="695" type="line" smooth="yes"/>
      <point x="265" y="695"/>
      <point x="243" y="670"/>
      <point x="243" y="638" type="curve" smooth="yes"/>
      <point x="243" y="616" type="line" smooth="yes"/>
      <point x="243" y="585"/>
      <point x="265" y="559"/>
      <point x="297" y="559" type="curve" smooth="yes"/>
    </contour>
  </outline>
</glyph>
<glyph name="Ccaron" format="1">
  <advance width="678"/>
  <unicode hex="010C"/>
  <note>
	Ccaron
  </note>
  <outline>
    <contour>
      <point x="501" y="-15"/>
      <point x="583" y="2"/>
      <point x="637" y="41" type="curve" smooth="yes"/>
      <point x="650" y="51"/>
      <point x="652" y="55"/>
      <point x="645" y="68" type="curve" smooth="yes"/>
      <point x="606" y="135" type="line" smooth="yes"/>
      <point x="597" y="150"/>
      <point x="590" y="148"/>
      <point x="575" y="140" type="curve" smooth="yes"/>
      <point x="536" y="118"/>
      <point x="488" y="104"/>
      <point x="417" y="104" type="curve" smooth="yes"/>
      <point x="286" y="104"/>
      <point x="195" y="177"/>
      <point x="195" y="340" type="curve" smooth="yes"/>
      <point x="195" y="500"/>
      <point x="278" y="576"/>
      <point x="412" y="576" type="curve" smooth="yes"/>
      <point x="480" y="576"/>
      <point x="529" y="559"/>
      <point x="563" y="540" type="curve" smooth="yes"/>
      <point x="578" y="532"/>
      <point x="585" y="530"/>
      <point x="594" y="545" type="curve" smooth="yes"/>
      <point x="629" y="606" type="line" smooth="yes"/>
      <point x="637" y="620"/>
      <point x="638" y="630"/>
      <point x="625" y="639" type="curve" smooth="yes"/>
      <point x="571" y="675"/>
      <point x="489" y="695"/>
      <point x="392" y="695" type="curve" smooth="yes"/>
      <point x="162" y="695"/>
      <point x="31" y="572"/>
      <point x="31" y="340" type="curve" smooth="yes"/>
      <point x="31" y="108"/>
      <point x="167" y="-15"/>
      <point x="396" y="-15" type="curve" smooth="yes"/>
    </contour>
    <contour>
      <point x="436" y="752" type="line" smooth="yes"/>
      <point x="465" y="752"/>
      <point x="469" y="758"/>
      <point x="482" y="776" type="curve" smooth="yes"/>
      <point x="582" y="909" type="line" smooth="yes"/>
      <point x="600" y="932"/>
      <point x="594" y="948"/>
      <point x="568" y="948" type="curve" smooth="yes"/>
      <point x="503" y="948" type="line" smooth="yes"/>
      <point x="474" y="948"/>
      <point x="467" y="943"/>
      <point x="456" y="926" type="curve" smooth="yes"/>
      <point x="397" y="837" type="line"/>
      <point x="337" y="926" type="line" smooth="yes"/>
      <point x="326" y="943"/>
      <point x="319" y="948"/>
      <point x="290" y="948" type="curve" smooth="yes"/>
      <point x="225" y="948" type="line" smooth="yes"/>
      <point x="199" y="948"/>
      <point x="193" y="932"/>
      <point x="211" y="909" type="curve" smooth="yes"/>
      <point x="311" y="776" type="line" smooth="yes"/>
      <point x="325" y="758"/>
      <point x="328" y="752"/>
      <point x="357" y="752" type="curve" smooth="yes"/>
    </contour>
  </outline>
</glyph>
<glyph name="Dcaron" format="1">
  <advance width="686"/>
  <unicode hex="010E"/>
  <note>
	Dcaron
  </note>
  <outline>
    <contour>
      <point x="306" y="0" type="line" smooth="yes"/>
      <point x="526" y="0"/>
      <point x="655" y="103"/>
      <point x="655" y="340" type="curve" smooth="yes"/>
      <point x="655" y="582"/>
      <point x="526" y="680"/>
      <point x="306" y="680" type="curve" smooth="yes"/>
      <point x="96" y="680" type="line" smooth="yes"/>
      <point x="63" y="680"/>
      <point x="51" y="665"/>
      <point x="51" y="636" type="curve" smooth="yes"/>
      <point x="51" y="43" type="line" smooth="yes"/>
      <point x="51" y="14"/>
      <point x="63" y="0"/>
      <point x="96" y="0" type="curve" smooth="yes"/>
    </contour>
    <contour>
      <point x="216" y="558" type="line"/>
      <point x="314" y="558" type="line" smooth="yes"/>
      <point x="427" y="558"/>
      <point x="491" y="507"/>
      <point x="491" y="340" type="curve" smooth="yes"/>
      <point x="491" y="173"/>
      <point x="427" y="121"/>
      <point x="314" y="121" type="curve" smooth="yes"/>
      <point x="216" y="121" type="line"/>
    </contour>
    <contour>
      <point x="348" y="752" type="line" smooth="yes"/>
      <point x="377" y="752"/>
      <point x="381" y="758"/>
      <point x="394" y="776" type="curve" smooth="yes"/>
      <point x="494" y="909" type="line" smooth="yes"/>
      <point x="512" y="932"/>
      <point x="506" y="948"/>
      <point x="480" y="948" type="curve" smooth="yes"/>
      <point x="415" y="948" type="line" smooth="yes"/>
      <point x="386" y="948"/>
      <point x="379" y="943"/>
      <point x="368" y="926" type="curve" smooth="yes"/>
      <point x="309" y="837" type="line"/>
      <point x="249" y="926" type="line" smooth="yes"/>
      <point x="238" y="943"/>
      <point x="231" y="948"/>
      <point x="202" y="948" type="curve" smooth="yes"/>
      <point x="137" y="948" type="line" smooth="yes"/>
      <point x="111" y="948"/>
      <point x="105" y="932"/>
      <point x="123" y="909" type="curve" smooth="yes"/>
      <point x="223" y="776" type="line" smooth="yes"/>
      <point x="237" y="758"/>
      <point x="240" y="752"/>
      <point x="269" y="752" type="curve" smooth="yes"/>
    </contour>
  </outline>
</glyph>
<glyph name="dcaron" format="1">
  <advance width="785"/>
  <unicode hex="010F"/>
  <note>
	dcaron
  </note>
  <outline>
    <contour>
      <point x="424" y="-15"/>
      <point x="517" y="15"/>
      <point x="569" y="53" type="curve"/>
      <point x="569" y="636" type="line" smooth="yes"/>
      <point x="569" y="665"/>
      <point x="557" y="680"/>
      <point x="524" y="680" type="curve" smooth="yes"/>
      <point x="452" y="680" type="line" smooth="yes"/>
      <point x="418" y="680"/>
      <point x="407" y="665"/>
      <point x="407" y="636" type="curve" smooth="yes"/>
      <point x="407" y="458" type="line"/>
      <point x="379" y="482"/>
      <point x="331" y="495"/>
      <point x="274" y="495" type="curve" smooth="yes"/>
      <point x="119" y="495"/>
      <point x="31" y="392"/>
      <point x="31" y="242" type="curve" smooth="yes"/>
      <point x="31" y="72"/>
      <point x="127" y="-15"/>
      <point x="323" y="-15" type="curve" smooth="yes"/>
    </contour>
    <contour>
      <point x="242" y="99"/>
      <point x="195" y="136"/>
      <point x="195" y="240" type="curve" smooth="yes"/>
      <point x="195" y="324"/>
      <point x="230" y="381"/>
      <point x="311" y="381" type="curve" smooth="yes"/>
      <point x="367" y="381"/>
      <point x="407" y="356"/>
      <point x="407" y="299" type="curve" smooth="yes"/>
      <point x="407" y="116" type="line"/>
      <point x="389" y="106"/>
      <point x="361" y="99"/>
      <point x="327" y="99" type="curve" smooth="yes"/>
    </contour>
    <contour>
      <point x="690" y="563" type="line" smooth="yes"/>
      <point x="723" y="563"/>
      <point x="730" y="569"/>
      <point x="742" y="591" type="curve" smooth="yes"/>
      <point x="808" y="713" type="line" smooth="yes"/>
      <point x="822" y="739"/>
      <point x="808" y="752"/>
      <point x="781" y="752" type="curve" smooth="yes"/>
      <point x="697" y="752" type="line" smooth="yes"/>
      <point x="665" y="752"/>
      <point x="660" y="744"/>
      <point x="652" y="723" type="curve" smooth="yes"/>
      <point x="606" y="597" type="line" smooth="yes"/>
      <point x="599" y="577"/>
      <point x="606" y="563"/>
      <point x="632" y="563" type="curve" smooth="yes"/>
    </contour>
  </outline>
</glyph>
